<?xml version="1.0" encoding="utf-8"?>
<!-- Generator: Adobe Illustrator 25.2.1, SVG Export Plug-In . SVG Version: 6.00 Build 0)  -->
<svg version="1.1" id="图层_1" xmlns="http://www.w3.org/2000/svg" xmlns:xlink="http://www.w3.org/1999/xlink" x="0px" y="0px"
	 viewBox="0 0 120 120" style="enable-background:new 0 0 120 120;" xml:space="preserve">
<style type="text/css">
	.st0{fill:#030202;}
	.st1{fill:#A4ABC4;}
	.st2{fill:#A3AAC4;}
	.st3{fill:#1D0D10;}
	.st4{fill:#100F10;}
	.st5{fill:#97A0BE;}
	.st6{fill:#26280B;}
	.st7{fill:#A7AFCA;}
	.st8{fill:#9BA4C0;}
	.st9{fill:#969FBA;}
	.st10{fill:#969FBB;}
	.st11{fill:#9BA3BF;}
	.st12{fill:#9BA3C0;}
	.st13{fill:#FAFAFA;}
	.st14{fill:#7C8396;}
	.st15{fill:#C5A8C6;}
	.st16{fill:#AF85B1;}
	.st17{fill:#C09FC0;}
	.st18{fill:#BD9ABD;}
	.st19{fill:#AF81B0;}
	.st20{fill:#B14353;}
	.st21{fill:#A93B51;}
	.st22{fill:#C0A0C0;}
	.st23{fill:#951D4E;}
	.st24{fill:#B692B8;}
	.st25{fill:#C3A6C5;}
	.st26{fill:#91894C;}
	.st27{fill:#AA3B51;}
	.st28{fill:#B84B54;}
	.st29{fill:#9097AD;}
	.st30{fill:#CAB0CB;}
	.st31{fill:#DBC9DB;}
	.st32{fill:#E0D1E1;}
	.st33{fill:#A53251;}
	.st34{fill:#DEC8DD;}
	.st35{fill:#6C5917;}
	.st36{fill:#70652C;}
	.st37{fill:#C05355;}
	.st38{fill:#D6CBD6;}
	.st39{fill:#9C2A4E;}
	.st40{fill:#7A6C31;}
	.st41{fill:#FAE1FA;}
	.st42{fill:#B793B8;}
	.st43{fill:#8B92A9;}
	.st44{fill:#D5FEFE;}
	.st45{fill:#D5BED5;}
	.st46{fill:#7F869A;}
	.st47{fill:#685822;}
	.st48{fill:#56425F;}
	.st49{fill:#33273F;}
	.st50{fill:#B83B59;}
	.st51{fill:#E5C2E5;}
	.st52{fill:#B588B7;}
	.st53{fill:#928849;}
	.st54{fill:#AD80AE;}
	.st55{fill:#848A9F;}
	.st56{fill:#C2485B;}
	.st57{fill:#E7C6E9;}
	.st58{fill:#5F4D1A;}
	.st59{fill:#716529;}
	.st60{fill:#554B4A;}
	.st61{fill:#CF9ED1;}
	.st62{fill:#DEC3DE;}
	.st63{fill:#9F1856;}
	.st64{fill:#060A00;}
	.st65{fill:#C9A0CB;}
	.st66{fill:#BE98BF;}
	.st67{fill:#B78AB9;}
	.st68{fill:#B32D5A;}
	.st69{fill:#EECEEF;}
	.st70{fill:#E5FEFE;}
	.st71{fill:#8C94AA;}
	.st72{fill:#040400;}
	.st73{fill:#BD8EBF;}
	.st74{fill:#D75960;}
	.st75{fill:#C08FC2;}
	.st76{fill:#FEF6FE;}
	.st77{fill:#E2BCE3;}
	.st78{fill:#AD235A;}
	.st79{fill:#AA2B56;}
	.st80{fill:#CD9ECF;}
	.st81{fill:#A4ABC6;}
	.st82{fill:#798093;}
	.st83{fill:#A7AEC8;}
	.st84{fill:#99A1BD;}
	.st85{fill:#9AA1BD;}
	.st86{fill:#A8AFC9;}
	.st87{fill:#A22E50;}
	.st88{fill:#99254E;}
	.st89{fill:#FEFEAC;}
	.st90{fill:#B84857;}
	.st91{fill:#E55469;}
	.st92{fill:#B38CB4;}
	.st93{fill:#DFB8E2;}
	.st94{fill:#D8C4D9;}
	.st95{fill:#FAF9FB;}
	.st96{fill:#F7F4F7;}
	.st97{fill:#F6F1F6;}
	.st98{fill:#F3ECF3;}
	.st99{fill:#F7F4F8;}
	.st100{fill:#EDE5ED;}
	.st101{fill:#F2EAF2;}
	.st102{fill:#EADFEA;}
	.st103{fill:#EADEE9;}
	.st104{fill:#EBE0EA;}
	.st105{fill:#F2EBF2;}
	.st106{fill:#EDE5EE;}
	.st107{fill:#3C3A3D;}
	.st108{fill:#F5F1F6;}
	.st109{fill:#E4D7E5;}
	.st110{fill:#7A8194;}
	.st111{fill:#201D27;}
	.st112{fill:#CAAECA;}
	.st113{fill:#CBAFCB;}
	.st114{fill:#CDB3CE;}
	.st115{fill:#E2C1E2;}
	.st116{fill:#D4B5D5;}
	.st117{fill:#DEBEDF;}
	.st118{fill:#DFC2E1;}
	.st119{fill:#E2A8E6;}
	.st120{fill:#D9ABDA;}
	.st121{fill:#B38CB5;}
	.st122{fill:#B794B9;}
	.st123{fill:#BF90C0;}
	.st124{fill:#AE84B0;}
	.st125{fill:#D0A1D3;}
	.st126{fill:#DFB6E0;}
	.st127{fill:#BA97BA;}
	.st128{fill:#B12F58;}
	.st129{fill:#B188B2;}
	.st130{fill:#CDB3CD;}
	.st131{fill:#E5C8E5;}
	.st132{fill:#9A914D;}
	.st133{fill:#A0964A;}
	.st134{fill:#D3BCD3;}
	.st135{fill:#BFA0BF;}
	.st136{fill:#D5B4D7;}
	.st137{fill:#FEF2FE;}
	.st138{fill:#DCC9DC;}
	.st139{fill:#E5D9E6;}
	.st140{fill:#D8C4D8;}
	.st141{fill:#D4BDD4;}
	.st142{fill:#695D25;}
	.st143{fill:#A39A56;}
	.st144{fill:#0D0D00;}
	.st145{fill:#766E41;}
	.st146{fill:#CCB2CD;}
	.st147{fill:#EAD5EA;}
	.st148{fill:#C4A8C5;}
	.st149{fill:#E2B9E3;}
	.st150{fill:#D5A4D6;}
	.st151{fill:#F8E2F7;}
	.st152{fill:#EAD6EA;}
	.st153{fill:#BE9DBE;}
	.st154{fill:#010200;}
	.st155{fill:#CFB7CF;}
	.st156{fill:#8F1D4C;}
	.st157{fill:#CAA5CA;}
	.st158{fill:#070615;}
	.st159{fill:#F1EAF1;}
	.st160{fill:#D0B8D1;}
	.st161{fill:#D4BCD4;}
	.st162{fill:#FCEAFD;}
	.st163{fill:#494B45;}
	.st164{fill:#E2CCE2;}
	.st165{fill:#EBD2EB;}
	.st166{fill:#FEF3FE;}
	.st167{fill:#535152;}
	.st168{fill:#F8F6F9;}
	.st169{fill:#D0B7D0;}
	.st170{fill:#665F66;}
	.st171{fill:#37353C;}
	.st172{fill:#F6E8F7;}
	.st173{fill:#FDF2FD;}
	.st174{fill:#F8F8F8;}
	.st175{fill:#A79ABD;}
	.st176{fill:#C5B9C7;}
	.st177{fill:#9B8CCB;}
	.st178{fill:#DAC5DA;}
	.st179{fill:#2D2B2D;}
	.st180{fill:#252129;}
	.st181{fill:#D6BDD7;}
	.st182{fill:#B9ABE1;}
	.st183{fill:#E2CFE2;}
	.st184{fill:#E5CAE6;}
	.st185{fill:#201B1B;}
	.st186{fill:#27242D;}
	.st187{fill:#3A3242;}
	.st188{fill:#554D56;}
	.st189{fill:#DCC1DE;}
	.st190{fill:#584960;}
	.st191{fill:#676167;}
	.st192{fill:#F6E0F8;}
	.st193{fill:#E0D0E0;}
	.st194{fill:#FDEFFC;}
	.st195{fill:#EEE3EF;}
	.st196{fill:#C9AECA;}
	.st197{fill:#64546C;}
	.st198{fill:#EECBF0;}
	.st199{fill:#E7C6E7;}
	.st200{fill:#272427;}
	.st201{fill:#201E22;}
	.st202{fill:#B4AEC9;}
	.st203{fill:#9D96C6;}
	.st204{fill:#DDD9ED;}
	.st205{fill:#262626;}
	.st206{fill:#A79DE1;}
	.st207{fill:#E9DEE9;}
	.st208{fill:#EDE4ED;}
	.st209{fill:#464646;}
	.st210{fill:#757372;}
	.st211{fill:#232323;}
	.st212{fill:#E3D7E4;}
	.st213{fill:#F8E5F8;}
	.st214{fill:#0B0C0B;}
	.st215{fill:#AA9DBF;}
	.st216{fill:#C0B1E2;}
	.st217{fill:#9484B2;}
	.st218{fill:#9686B0;}
	.st219{fill:#A99AB9;}
	.st220{fill:#FCF9F4;}
	.st221{fill:#151519;}
	.st222{fill:#9B92C1;}
	.st223{fill:#B1A8C2;}
	.st224{fill:#BDB5C4;}
	.st225{fill:#DBD6D2;}
	.st226{fill:#A79EC2;}
	.st227{fill:#FFD22A;stroke:#FFF035;stroke-width:0.25;stroke-miterlimit:10;}
	.st228{font-family:'AdobeSongStd-Light-GBpc-EUC-H';}
	.st229{font-size:9.3303px;}
</style>
<g>
	<g>
		<path class="st0" d="M20.12,88.98c-1.96-10.67-2.99-21.36-2.68-32.26c0.2-6.76,2.62-11.24,8.62-14.02
			c1.03-0.48,1.9-1.28,2.85-1.93c0.02,0.69,0.03,1.37,0.05,2.06c-0.61,0.66-1.54,1.33,0.09,1.89c1.99,0.06,3.98,0.12,5.97,0.18
			c2.66,0.03,5.31,0.06,7.97,0.09c2,0.02,4,0.04,6,0.05c1.59,0.11,3.22,0.49,4.84-0.6c-0.61-1.48-1.22-2.94-1.82-4.4l0.01-0.01
			c1.56-0.65,1.93,1.61,3.27,1.43c0.95-0.74,0.39-1.64,0.26-2.33c-2.13-11.51,4.43-18.96,11.84-26.21
			c7.17-7.02,7.03-7.17,15.78-2.78c0.44,0.22,0.85,0.51,1.3,0.74c7.95,4.04,8.09,4.04,8.2-5.05c0.03-2.61,1.29-2.7,3.07-2.52
			c1.79,0.18,4.36-0.73,4.28,2.56c-0.04,1.82-0.25,3.63-0.35,5.45c-0.29,4.86,0.45,9.05,5.83,11.09c3.69,1.4,4.01,5.11,4.25,8.36
			c1.26,16.58,0.75,33.14-1.27,49.64c-0.88,7.22-2.25,14.38-3.4,21.57c-0.78,1.17-1.16,2.46-1.16,3.87
			c-0.32,0.71-0.63,1.41-0.95,2.12c-2.01,0.05-4.01,0.11-6.02,0.16c-2.54-0.09-5.08-0.17-7.62-0.26
			c-5.73-1.16-11.54-0.75-17.32-0.73c-1.68-0.01-3.35-0.02-5.03-0.02c-2.66-0.01-5.33-0.02-7.99-0.02c-0.57-0.07-1.13-0.14-1.7-0.21
			c-7.21-0.98-14.42-0.85-21.63-0.01c-3.86-0.03-7.72-0.06-11.57-0.08c-0.08-0.5-0.16-1-0.24-1.5c0.33-0.76,0.67-1.51,1-2.27
			c0.36,0.4,0.71,0.8,1.07,1.19c6.06,1,12.1,0.41,18.15-0.16c1.88-2.48,0.38-5.41,1.07-8.04c0,0,0.34,0,0.34,0l0.34,0
			c0.23,0.75,0.14,1.67,1.07,2.06c0.08,0.96,0.16,1.91,0.24,2.87c-0.23,2.11,0.68,3.16,2.84,3.02c1.19,0.31,2.02-0.48,2.94-0.98
			c0.33,0.01,0.67,0.02,1,0.03c0.33,0.35,0.65,0.7,0.98,1.04c1.37,0.64,2.81,1.54,3.17-1c-0.08-3.66-0.15-7.32-0.23-10.99
			c0.02-5.08,0.49-10.18-0.69-15.2c-0.31-5.76,0.23-11.58-1.03-17.28c0.66-2.82-0.21-5.63-0.08-8.44c0.1-2.2-0.96-2.96-2.95-3.01
			c-9.47-0.24-18.92-1.24-28.43-0.68c-2.64,0.16-4.13,1.19-4.51,3.61c-0.9,5.74-1.82,11.49-0.32,17.28
			c0.08,1.55,0.15,3.09,0.23,4.64c0.1,2.05-0.62,4.22,0.92,6.05c0.06,1.33,0.12,2.67,0.18,4c-0.04,1.62-0.08,3.24-0.12,4.86
			C20.74,88.25,20.43,88.62,20.12,88.98z M79.07,103.07c1.8-2.19,0.71-4.69,0.76-7.07c0-0.68-0.01-1.35-0.01-2.03
			c0-2.65,0.01-5.31,0.01-7.96c-0.29-3.02,0.75-4.52,4.1-4.07c2.28,0.31,4.62,0.12,6.94,0.15c0.12,5.94,0.11,11.89,0.44,17.82
			c0.1,1.76-1.57,4.97,2.06,4.96c2.99-0.01,7.19,2.41,8.51-2.89c0.74-1.89,1.36-3.8,1.24-5.87c1.45-2.6,1.1-5.35,0.74-8.12
			c0.34-0.68,0.69-1.35,1.03-2.03c0.11-0.88,0.21-1.76,0.32-2.63c1-1.68,0.79-3.53,0.72-5.36c0.08-1.22,0.16-2.43,0.24-3.65
			c1.03-2.7,0.8-5.51,0.75-8.3c0.04-1.34,0.08-2.67,0.12-4.01c0.23-0.23,0.27-0.48,0.1-0.76c1.05-8.85,1.21-17.7,0.04-26.55
			c-0.83-2.86,2.01-7.72-3.96-7.81c-13.78-0.21-27.56-0.44-41.33,0.69c-2.57,0.21-3.47,1.07-3.5,3.55c-0.13,8.97,0,17.93,0.61,26.88
			c0.01,0.67,0.03,1.33,0.04,2c-0.02,7.12-0.27,14.25,0.81,21.33c0.05,1.22,0.11,2.45,0.16,3.67c0.06,2.67,0.12,5.35,0.18,8.02
			c0.05,3.39-0.58,6.83,0.69,10.14l-0.05,0.05c3.65,1.55,7.45,0.67,11.19,0.71C74.38,103.76,76.95,105.34,79.07,103.07z M97.16,6.56
			c-0.24-0.55-0.6-0.75-1.15-0.4c-2.28,2.3-0.43,5.22-1.13,7.76c-0.26,0.93-0.41,2.14,1.01,2.26c1.63,0.14,1.78-1.09,1.66-2.32
			C97.32,11.44,98.08,8.95,97.16,6.56z M92,18.01c-0.65-0.36-1.31-0.72-1.96-1.08c-0.66-0.34-1.33-0.67-1.99-1.01
			c-1.33-0.68-2.66-1.35-3.98-2.03c-0.53-0.68-1.19-1.03-2.08-0.82c-0.67-0.33-1.34-0.65-2.01-0.98c-5.79-3.46-5.79-3.46-8.99,1.9
			c-0.34,0.6-0.68,1.19-1.03,1.79c-2.49,0.3-3.7,1.82-4.02,4.2c-1.53,0.92-2.85,2.03-3.8,4.17c2.25-0.14,4.03-0.25,5.81-0.36
			c1.03,0.01,2.05,0.02,3.08,0.03c9.86,0,19.72,0,30.7,0c-2.65-2.52-4.53-3.46-6.59-4.07C94.1,19.18,93.05,18.59,92,18.01z
			 M82.02,82.96c-2.08,7.06-1.17,14.15-0.14,21.23c7.33,1.68,8.02,1.2,8.06-5.69c0.01-1.49-0.08-2.99-0.13-4.48
			c0.01-2.68,0.02-5.36,0.03-8.04c-0.02-0.65-0.04-1.3-0.06-1.95C87.42,82.05,84.6,83.4,82.02,82.96z"/>
		<path class="st1" d="M36.06,117.88c-9.89,0.02-19.57-1.55-29.16-3.8c0.87-0.45,1.08-1.23,1.08-2.13c1.39-2.89,4.14-2.86,6.75-3.12
			c0.17,0.1,0.33,0.21,0.48,0.33c-0.07,0.62-3.04,1.4-0.1,1.77c3.22,0.41,6.52,0.11,9.79,0.12c0.07,0.3,0.15,0.6,0.22,0.89
			c-3.66,0-7.31,0-10.97,0c18.34,0.29,36.51,3.7,54.85,3.06c5.56,2.18,11.35,0.44,17,1c1.75,1.78,3.93,0.73,5.93,0.91
			c0.74,0.05,1.48,0.1,2.21,0.15c-3.99,1.58-8.13,0.78-12.22,0.81c-2.67-1.31-5.32-1.48-7.93,0.15c-10.67,0-21.34,0.01-32,0.01
			C40.06,116.45,38.08,116.56,36.06,117.88z M32.16,116.51c-1.1-0.74-2.11-0.69-3.41,0.04C30.11,117.12,31.12,117.21,32.16,116.51z"
			/>
		<path class="st2" d="M94.15,117.06c-0.74-0.05-1.48-0.1-2.21-0.15c0.04-0.3,0.06-0.6,0.06-0.9c0.34-0.34,0.67-0.67,1.01-1.01
			c0.33-0.35,0.66-0.69,0.99-1.04c0,0-0.01,0.03-0.01,0.03c2.82,0.03,5.55-0.15,6.98-3.17c-0.17-1.55,1.79-1.6,2.02-2.86
			c0.32-0.71,0.63-1.41,0.95-2.12c0.24,0.41,0.35,1.73,0.79,1.01c0.81-1.32,0.9-3.08,1.29-4.66c0.82-0.04,1.63-0.13,2.44-0.1
			c0.64,0.03,1.27,0.21,1.95,0.33c0.61,2.73-3.83,2.92-2.74,5.69c0.95,2.4,3.38,2.73,5.38,3.66c0.33,0.78,0.67,1.56,1,2.34
			c-2.56,1.26-5.36,1.41-8.12,1.74c-1.55-1.34-3.25-0.93-6.3-0.23c2.35,0.22,3.4,0.32,4.45,0.41
			C100.91,117.78,97.47,116.82,94.15,117.06z"/>
		<path class="st3" d="M28.97,42.82c-0.02-0.69-0.03-1.37-0.05-2.06c-0.01-2.32-0.2-4.65,0.05-6.94c0.11-1.04-1.81-2.44-0.09-2.79
			c1.47-0.3,3.82-1.84,4.87,1.01c-0.64,0.34-1.28,0.69-1.92,1.03c-2.32,2.13-2.27,3.66,0.16,4.92c1.94,0.54,0.63-1.81,1.77-1.98
			c2.22,2.21,3.45-0.42,4.79-1.21c6.75-3.98,10.56-2.58,13.48,5.22c0,0-0.01,0.01-0.01,0.01c-0.34,0.01-0.68,0.02-1.01,0.03
			c-0.56-0.07-1.13-0.13-1.69-0.19c-0.62-0.69-1.24-1.37-1.87-2.06C47.34,36.91,46.99,36.2,46,36c-0.37-2.37-1.52-2.11-2.97-0.89
			c-1.8,0.6-3.62,1.18-4.69,2.94c-1.42,1.64-4.18,0.85-5.36,2.94C31.24,40.7,30.55,42.74,28.97,42.82z"/>
		<path class="st4" d="M20.12,88.98c0.31-0.37,0.62-0.73,0.93-1.1c1.12,0.28,0.93,1.3,1.17,2.08c-0.68,1.56,0.78,2.6,0.95,3.95
			c-0.03,1.43-0.19,2.89,0.82,4.12c0.25,1.36-0.24,2.9,0.99,4.01c0.06,0.33,0.02,0.65-0.12,0.96c-0.33,0.76-0.67,1.51-1,2.27
			c-0.3-0.11-0.61-0.21-0.93-0.3C22,99.65,21.06,94.31,20.12,88.98z"/>
		<path class="st5" d="M22.93,104.98c0.31,0.09,0.62,0.19,0.93,0.3c0.08,0.5,0.16,1,0.24,1.5c-0.03,0.38-0.06,0.77-0.09,1.15
			c-2.93,0.41-5.86,0.82-8.79,1.23c-0.15-0.12-0.31-0.23-0.48-0.33C17.73,108.1,19.59,104.96,22.93,104.98z"/>
		<path class="st6" d="M31.83,33.07c0.64-0.34,1.28-0.69,1.92-1.03c0,1.32,0.01,2.64,0.01,3.96c-1.14,0.17,0.17,2.52-1.77,1.98
			C31.94,36.35,31.89,34.71,31.83,33.07z"/>
		<path class="st7" d="M106.01,102.18c-0.39,1.58-0.48,3.33-1.29,4.66c-0.44,0.72-0.55-0.59-0.79-1.01
			c-0.01-1.41,0.38-2.7,1.16-3.87C105.4,102.01,105.71,102.09,106.01,102.18z"/>
		<path class="st8" d="M74,118.03c2.61-1.63,5.26-1.47,7.93-0.15C79.29,117.92,76.64,117.98,74,118.03z"/>
		<path class="st9" d="M7.99,111.95c0,0.89-0.21,1.68-1.08,2.13c-0.77-0.18-1.55-0.36-2.32-0.54
			C5.45,112.42,6.61,111.96,7.99,111.95z"/>
		<path class="st10" d="M114.04,114.1c-0.33-0.78-0.67-1.56-1-2.34c1.49,0.53,2.98,1.06,5.51,1.96
			C116.3,113.91,115.17,114.01,114.04,114.1z"/>
		<path class="st11" d="M104.08,116.03c-1.05-0.1-2.11-0.2-4.45-0.41c3.05-0.7,4.75-1.12,6.3,0.23
			C105.31,115.91,104.69,115.97,104.08,116.03z"/>
		<path class="st12" d="M36.06,117.88c2.02-1.32,4-1.43,5.94,0.16C40.02,117.98,38.04,117.93,36.06,117.88z"/>
		<path class="st13" d="M19.84,68.34c-1.5-5.79-0.58-11.55,0.32-17.28c0.38-2.42,1.87-3.45,4.51-3.61
			c9.51-0.56,18.95,0.44,28.43,0.68c1.99,0.05,3.04,0.81,2.95,3.01c-0.13,2.81,0.75,5.62,0.08,8.44C55.36,63.34,57,67.31,55.19,71
			c-0.08-1.63-0.16-3.26-0.24-4.89c0.01-2.03,0.02-4.06,0.03-6.1c0-1,0.01-2,0.01-3c0-0.34,0.01-0.67,0.01-1.01
			c-0.33-0.67-0.66-1.33-1-2c-0.51-2.8-2.61-2.13-4.26-1.7c-1.62,0.42-3.19,0.8-4.85,0.69c-6.76-0.42-13.45,0.59-20.17,0.98
			C22.63,54.1,21.17,54.68,21,57c0,0.34,0,0.67,0.01,1.01c0,0.34,0.01,0.67,0.01,1.01c0,0.67,0.01,1.34,0.01,2
			c0,1.33,0.01,2.66,0.01,4C21.02,65.34,21,65.67,20.98,66C20.09,66.53,19.99,67.45,19.84,68.34z"/>
		<path class="st14" d="M102.98,107.95c-0.23,1.27-2.19,1.32-2.02,2.87c-2.33,1.06-4.65,2.12-6.98,3.17c0,0,0.01-0.03,0.01-0.02
			c-0.33-0.02-0.67-0.03-1-0.05c-0.54-2.74-2.74-1.88-4.37-1.89C77.41,111.97,66.2,112,55,112c-4.88-2.2-10.02-0.43-15-1
			c0.48-2.77,2.69-1.79,4.34-2c3.86-0.49,7.89,1.05,11.63-0.96c1.01-0.02,2.01-0.04,3.02-0.07c2.67,0.01,5.34,0.01,8.01,0.02
			c2.46,2,5.35,0.57,8.01,0.99c7.31-0.5,14.7,1.12,21.95-0.88C98.96,108.06,100.97,108.01,102.98,107.95z"/>
		<path class="st15" d="M90.87,82.08c-2.32-0.03-4.66,0.16-6.94-0.15c-3.35-0.46-4.39,1.04-4.1,4.07c-0.61,0-1.22,0-1.82,0L78,86
			c0.12-2-0.64-3.15-2.82-3c-2.77,0.19-5.62-0.53-8.29,0.57c-2.89,1.2-4.62,0.02-5.79-2.55c0-1.32-0.01-2.64-0.01-3.96
			c1.99,2.59,4.37,2.32,6.9,0.94c4.31-0.57,8.84,1.35,12.99-1.11c-0.02-0.32,0.05-0.62,0.21-0.9C81.46,76,81.73,76,82,76.01
			c2.56,4.38,6.08-0.06,9.01,0.99c0.32,0,0.65,0,0.97,0.02c3.18,2.02,6.69,0.56,10.02,0.97c-3.41,2.1-7.54,0.2-11,2.01
			c-3.27,0-6.53,0-9.8,0c0,0.33,0.01,0.66,0.01,0.99c3.26,0,6.52,0,9.79,0c0.34,0.32,0.67,0.65,1.01,0.97L92,82
			C91.62,82.03,91.25,82.05,90.87,82.08z"/>
		<path class="st16" d="M44.07,104.05c-6.04,0.56-12.09,1.16-18.14,0.16c0.02-0.2,0.07-0.4,0.14-0.59c2.95,0,5.89,0,8.84,0
			c0-0.16,0-0.32,0-0.49c-2.97,0-5.94,0-8.9,0c0.01-1.04,0.01-2.09,0.02-3.13c3.77-1.89,7.8-0.79,11.71-0.93
			c2.09-0.08,3.9-0.27,5.21-2.05c0.16,1-0.2,2.16,0.89,2.87C43.91,101.27,43.99,102.66,44.07,104.05z"/>
		<path class="st17" d="M61.1,81.02c1.17,2.57,2.89,3.75,5.78,2.55c2.67-1.11,5.53-0.38,8.29-0.57c2.19-0.15,2.94,1,2.82,3
			c-4.03,0.33-8.07,0.93-12.1,0.92c-3.11-0.01-4.29,1.11-3.9,4.09c0,1.33,0.01,2.67,0.01,4c0.01,1.01,0.02,2.02,0.03,3.03
			c-0.01,1.31-0.02,2.63-0.02,3.94c-0.01,0.33-0.02,0.67-0.03,1c-0.39,0.08-0.78,0.16-1.17,0.24c0,0,0.05-0.05,0.05-0.05
			c-0.1-3.39,0.96-6.85-0.69-10.14c-0.06-2.67-0.12-5.35-0.18-8.02C61.49,83.99,60.83,82.38,61.1,81.02z"/>
		<path class="st18" d="M62,91c-0.38-2.98,0.79-4.09,3.9-4.09c4.03,0.01,8.07-0.58,12.1-0.92c0,0,0.01,0,0.01,0
			c0.6,2.65,1.21,5.31,1.81,7.96c0,0.68,0.01,1.35,0.01,2.03C79.55,96,79.28,96,79,96c-1.17-0.72-0.96-1.9-1-3
			c-0.05-1.74,0.58-3.39-2.66-3.2C70.87,90.07,66.44,90.52,62,91z"/>
		<path class="st19" d="M90.87,82.08c0.38-0.03,0.75-0.05,1.13-0.08c0.06,0.4,0.11,0.8,0.16,1.2c0.01,1.86,0.03,3.71,0.04,5.57
			c-0.01,1.14-0.01,2.29-0.02,3.43c0.04,2.88,0.09,5.76,0.13,8.64c0.2-0.12,0.44-0.21,0.6-0.38c0.1-0.1,0.08-0.31,0.11-0.47
			c2.94,2.04,5.42,0.3,7.95-0.99c0.06,1.06-0.17,2.21,0.91,2.96c-1.32,5.3-5.52,2.88-8.51,2.89c-3.63,0.01-1.96-3.2-2.06-4.96
			C90.99,93.97,90.99,88.02,90.87,82.08z"/>
		<path class="st20" d="M81.98,13.08c0.88-0.22,1.55,0.13,2.08,0.82c-0.86,2.4-2.67,3.47-5.03,4.32c-3.06,1.1-6.56,1.27-9.03,3.79
			c-1.04,0.13-2.08,0.26-3.11,0.39c0.35,0.47,0.71,0.95,1.06,1.42c-1.78,0.11-3.57,0.22-5.81,0.36c0.95-2.14,2.27-3.24,3.8-4.17
			c1.02-0.67,2.04-1.34,3.06-2.01C74.19,18.64,78.55,17.09,81.98,13.08z"/>
		<path class="st21" d="M32.99,40.99c1.17-2.1,3.93-1.31,5.36-2.94c2.28,1.05,3.53-0.32,4.65-1.99c1-0.02,2-0.04,3-0.06
			c0.99,0.2,1.34,0.91,1.45,1.81c-2.88,2.47-7.69,1.99-9.44,6.18c-1.07,0.05-2.22-0.18-2.97,0.9c-1.99-0.06-3.98-0.12-5.97-0.18
			C29.87,42.95,35.07,45.82,32.99,40.99z"/>
		<path class="st22" d="M92.16,83.2c-0.05-0.4-0.11-0.8-0.16-1.2c0,0,0-0.03,0-0.03c3.91-1.36,7.97-0.92,11.99-0.97
			c0.25,1.66-0.61,3.52,0.9,4.96c-0.34,0.68-0.69,1.35-1.03,2.03c-0.29,0.01-0.57,0.02-0.86,0.02c-0.26-2.26-1.4-3.46-3.7-2.59
			c-2.19,0.82-4.21,0.74-6.23-0.38C92.98,84.32,92.99,83.55,92.16,83.2z"/>
		<path class="st23" d="M95.15,19.76c2.06,0.61,3.93,1.55,6.59,4.07c-10.98,0-20.84,0-30.7,0c2.17-1.57,4.65-0.49,6.97-0.84
			c4.31-0.55,8.8,1.15,12.99-0.99c0.34-0.67,0.67-1.33,1.01-2C93.03,19.72,94.21,21.25,95.15,19.76z"/>
		<path class="st24" d="M102.99,88.01c0.29,0,0.57,0,0.86-0.02c0.36,2.76,0.72,5.52-0.74,8.12c0,0-0.17-0.15-0.17-0.15
			c0.01-0.66,0.03-1.31,0.04-1.97c-0.99-2.04-2.7-2.38-4.58-1.61c-1.77,0.72-3.56,0.58-5.36,0.64c-0.29-0.27-0.58-0.54-0.87-0.81
			c0.01-1.14,0.01-2.29,0.02-3.43c0.23,0.13,0.48,0.19,0.75,0.19C96.46,90.27,99.78,89.67,102.99,88.01z"/>
		<path class="st25" d="M103.98,81c-4.02,0.05-8.08-0.39-11.99,0.97c-0.34-0.32-0.67-0.65-1.01-0.97c0.01-0.33,0.01-0.66,0-0.99
			c3.46-1.81,7.6,0.09,11-2.01c-0.04-0.39-0.08-0.78-0.12-1.18c0.38-0.27,0.77-0.54,1.15-0.8c0.64-0.99,1.28-1.97,1.92-2.96
			c0.31,1.64-0.6,3.53,0.98,4.92c0.07,1.83,0.28,3.67-0.72,5.36C104.47,82.72,105.87,81,103.98,81z"/>
		<path class="st26" d="M89.78,84.03c0.02,0.65,0.04,1.3,0.06,1.95C88.87,86.8,89.01,87.92,89,89c-3.36,2.11-3.27,6.49-5.94,9.06
			c-0.3-0.32-0.6-0.65-0.9-0.97c-0.3-1.51,0.16-2.85,0.91-4.13c2.97-1.86-0.4-6.86,3.98-8.03C87.96,84.63,88.87,84.33,89.78,84.03z"
			/>
		<path class="st27" d="M70.01,22c2.47-2.52,5.97-2.69,9.03-3.79c2.36-0.85,4.17-1.92,5.03-4.32c1.33,0.68,2.66,1.35,3.98,2.03
			C84.84,19.56,79.4,18.75,76,22C74,22,72,22,70.01,22z"/>
		<path class="st28" d="M81.98,13.08c-3.43,4.01-7.79,5.56-12.99,4.9c0.32-0.73,0.64-1.46,0.96-2.2c0.34-0.6,0.68-1.19,1.03-1.79
			c3.44,1.45,6.37,0.5,8.99-1.9C80.64,12.43,81.31,12.75,81.98,13.08z"/>
		<path class="st29" d="M58.99,107.98c-1.01,0.02-2.01,0.04-3.02,0.07c-6.32,0-12.65,0-18.97,0.01c-4.34-0.01-8.69-0.01-13.03-0.02
			l0.03-0.11c0.03-0.38,0.06-0.77,0.09-1.15c3.86,0.03,7.72,0.06,11.58,0.08c7.21,0,14.42,0,21.63,0.01
			c0.57,0.07,1.13,0.14,1.7,0.21C59,107.38,59,107.68,58.99,107.98z"/>
		<path class="st30" d="M21.17,83.03c-0.06-1.33-0.12-2.67-0.18-4c0,0,0.1-0.25,0.1-0.25c2,0.77,4.01,1.55,6.01,2.32
			c-0.08,1.31-0.17,2.63-0.25,3.94C25.4,86.49,26.23,88.34,26,90c-0.98-1.31-1.95-2.62-2.93-3.94
			C22.95,84.73,23.17,83.18,21.17,83.03z"/>
		<path class="st31" d="M20.99,79.02c-1.54-1.83-0.83-4-0.92-6.05c1.42-1.03,0.78-2.59,0.99-3.92c2.45,3.45,3.5,0.27,4.94-1.05
			c0.02,1,0.05,1.99,0.07,2.99c-0.05,1.01-0.1,2.02-0.15,3.03c-2,1.19-4.63,1.73-4.84,4.75L20.99,79.02z"/>
		<path class="st32" d="M58.99,58c1.87-1.72,0.65-3.99,1.06-5.98C60.37,52.01,60.68,52,61,52c-0.4,5.66,2.79,2.57,4.94,2.03
			c0.03,1.31,0.05,2.61,0.08,3.92C65.03,60.32,62.95,59.99,61,60c-0.66,0-1.32,0-1.97,0C59.01,59.33,59,58.67,58.99,58z"/>
		<path class="st33" d="M76,22c3.4-3.24,8.84-2.44,12.04-6.07c0.66,0.34,1.33,0.67,1.99,1.01c-1.74,3.17-5.31,3.45-8.03,5.06
			C80.67,22,79.33,22,78,22C77.33,22,76.67,22,76,22z"/>
		<path class="st34" d="M59.03,60c0.66,0,1.32,0,1.97,0c0,1,0,2,0,3c0,1.34,0.01,2.67,0.01,4.01c0,1-0.01,2-0.01,3
			c-2.17,3.59-0.28,7.61-1.16,11.33C58.76,74.25,59,67.12,59.03,60z"/>
		<path class="st35" d="M89.81,94.02c0.05,1.49,0.14,2.99,0.13,4.48c-0.03,6.89-0.72,7.37-8.06,5.69c0.1-0.16,0.21-0.32,0.33-0.47
			c0.19,0.12,0.4,0.18,0.63,0.18c1.15,0.07,2.35,0.31,3.15-0.88c1-2.67,2.01-5.34,3.01-8.01C89.27,94.67,89.54,94.35,89.81,94.02z"
			/>
		<path class="st36" d="M83.07,92.96c-0.75,1.28-1.21,2.62-0.91,4.13c0.02,2.21,0.04,4.42,0.06,6.63c-0.12,0.15-0.23,0.31-0.33,0.48
			c-1.02-7.08-1.94-14.17,0.14-21.23c0.33,0.52,0.66,1.04,0.99,1.55C83.08,87.33,82.15,90.15,83.07,92.96z"/>
		<path class="st37" d="M79.97,12.1c-2.62,2.41-5.55,3.35-8.99,1.9C74.18,8.64,74.18,8.64,79.97,12.1z"/>
		<path class="st38" d="M107.14,61.25c-0.45-8.85-0.41-17.7,0.04-26.55C108.35,43.55,108.19,52.4,107.14,61.25z"/>
		<path class="st39" d="M82.01,21.99c2.73-1.61,6.29-1.89,8.03-5.06c0.65,0.36,1.31,0.72,1.96,1.08c0,0.66,0,1.33,0,1.99
			c-0.34,0.67-0.67,1.33-1.01,2C88,22,85,22,82.01,21.99z"/>
		<path class="st40" d="M47.15,100.93c-0.08-0.96-0.16-1.91-0.24-2.87c1.86-0.73,2.25-2.59,3.11-4.08c1.18-0.74,0.94-1.96,1-3.07
			c0.27,0,0.53,0.01,0.8,0.01c1.37,1.45,1.16,3.32,1.34,5.08c-0.1,0.65-0.2,1.3-0.31,1.95c-0.75-0.5-1.23-2.01-2.44-0.34
			C49.51,98.87,48.25,99.84,47.15,100.93z"/>
		<path class="st41" d="M55.19,71c1.81-3.69,0.17-7.66,0.94-11.43c1.25,5.71,0.71,11.52,1.03,17.28c-0.13,0.61-0.27,1.22-0.4,1.83
			c-0.87-0.25-0.67-1.01-0.77-1.63c-0.31-0.35-0.61-0.69-0.92-1.04C55.1,74.34,55.14,72.67,55.19,71z"/>
		<path class="st42" d="M56.75,78.68c0.13-0.61,0.27-1.22,0.4-1.83c1.19,5.02,0.72,10.12,0.69,15.2c-1.29,1.08-0.71,2.58-0.86,3.91
			c-0.61-0.64-1.23-1.27-1.84-1.91c0-0.72,0-1.43,0-2.15c2.11-1.84,1.79-4.31,1.71-6.71c-0.02-1.42-0.03-2.85-0.05-4.27
			C56.79,80.18,56.77,79.43,56.75,78.68z"/>
		<path class="st43" d="M96.95,108.11c-7.25,2-14.64,0.38-21.95,0.88c0-0.33,0-0.65,0-0.98c4.78-0.05,9.55-0.1,14.33-0.15
			C91.88,107.94,94.42,108.03,96.95,108.11z"/>
		<path class="st44" d="M97.16,6.56c0.92,2.39,0.15,4.88,0.39,7.31c0.12,1.23-0.03,2.46-1.66,2.32c-1.42-0.12-1.27-1.34-1.01-2.26
			c0.7-2.55-1.15-5.46,1.13-7.76c0,2.22,0,4.44,0,6.65c0.27-0.01,0.54-0.01,0.81-0.02C96.93,10.71,97.05,8.64,97.16,6.56z"/>
		<path class="st45" d="M106.07,61.95c0.32,0,0.64,0.02,0.96,0.06c-0.04,1.34-0.08,2.67-0.12,4.01c-0.64,0.66-1.28,1.33-1.92,1.99
			c-0.66,0.33-1.32,0.67-1.98,1c-0.29-1.68,0.67-3.61-1.01-5.02c-0.02-0.32-0.04-0.65-0.07-0.97
			C103.44,63.15,104.79,62.67,106.07,61.95z"/>
		<path class="st46" d="M57.3,106.87c-7.21,0-14.42,0-21.63-0.01C42.88,106.02,50.09,105.88,57.3,106.87z"/>
		<path class="st47" d="M47.15,100.93c1.1-1.09,2.37-2.07,3.26-3.31c1.21-1.67,1.69-0.16,2.44,0.34c0.01,0.34,0.02,0.68,0.04,1.02
			c-2.69,0.65-2.75,2.83-2.9,4.97C47.82,104.09,46.92,103.04,47.15,100.93z"/>
		<path class="st14" d="M89.34,107.86c-4.78,0.05-9.55,0.1-14.33,0.15c-1.07-0.05-2.22,0.17-2.99-0.89
			C77.8,107.11,83.6,106.7,89.34,107.86z"/>
		<path class="st48" d="M44.07,104.05c-0.08-1.39-0.16-2.78-0.24-4.17c0-1.96,0-3.93,0-5.89c0.01-1.97,0.03-3.94,0.04-5.9
			c0.08-0.34,0.16-0.69,0.24-1.03l0.44-0.09c0,0,0.45,0.05,0.45,0.05c0.02,0.33,0.07,0.66,0.16,0.98c-0.01,2.67-0.02,5.34-0.03,8.01
			C44.45,98.64,45.95,101.57,44.07,104.05z"/>
		<path class="st49" d="M55.15,91.92c0,0.72,0,1.43,0,2.15c0.01,1.95,0.01,3.89,0.02,5.84c-0.09,1.38-0.17,2.76-0.26,4.14
			c-0.33-0.35-0.65-0.7-0.98-1.04c-0.01-2.33-0.02-4.66-0.03-6.99c0-2.68-0.01-5.35-0.01-8.03c0.05-0.32,0.09-0.65,0.1-0.98
			c0.38,0.33,0.75,0.66,1.13,1C55.13,89.31,55.14,90.61,55.15,91.92z"/>
		<path class="st50" d="M76,22c0.67,0,1.33,0.01,2,0.01c0,0.33,0,0.66,0,0.99c-2.31,0.35-4.8-0.73-6.97,0.84
			c-1.03-0.01-2.05-0.02-3.08-0.03c-0.35-0.47-0.71-0.95-1.06-1.42c1.04-0.13,2.08-0.26,3.11-0.39C72,22,74,22,76,22z"/>
		<path class="st51" d="M59.83,81.33C60.72,77.61,58.83,73.6,61,70c0.01,0.34,0.02,0.67,0.03,1.01c0.01,1.33,0.02,2.67,0.03,4
			c0.01,0.68,0.02,1.37,0.03,2.05c0,1.32,0.01,2.64,0.01,3.96c-0.27,1.35,0.39,2.97-1.11,3.98C59.94,83.78,59.89,82.56,59.83,81.33z
			"/>
		<path class="st52" d="M60.81,103.21c0.39-0.08,0.78-0.16,1.17-0.24c2-0.3,4.24,0.83,6-0.96c1.39,0.13,2.96-0.47,4.01,0.99
			c0,0.31,0,0.61,0.01,0.92C68.26,103.88,64.46,104.76,60.81,103.21z"/>
		<path class="st53" d="M50.02,93.99c-0.87,1.49-1.25,3.35-3.11,4.08c-0.93-0.39-0.84-1.31-1.07-2.06c0.12-0.34,0.23-0.69,0.35-1.03
			c2-0.15,1.79-1.68,1.88-3.02C49.29,92.07,49.98,92.72,50.02,93.99z"/>
		<path class="st54" d="M54.91,104.04c0.09-1.38,0.17-2.76,0.26-4.14c0.61-0.62,1.21-1.24,1.82-1.86c0.27,1.69-0.67,3.64,1.09,5
			C57.72,105.58,56.27,104.69,54.91,104.04z"/>
		<path class="st55" d="M72.02,107.12c0.77,1.06,1.92,0.83,2.99,0.89c-0.01,0.33-0.01,0.65,0,0.98c-2.66-0.42-5.54,1-8.01-0.99
			c0-0.3,0-0.6-0.01-0.9C68.67,107.11,70.34,107.11,72.02,107.12z"/>
		<path class="st56" d="M32.99,40.99c2.08,4.83-3.11,1.96-3.93,3.72c-1.63-0.55-0.7-1.23-0.09-1.89
			C30.55,42.74,31.24,40.7,32.99,40.99z"/>
		<path class="st57" d="M21.17,83.03c2.01,0.15,1.78,1.7,1.9,3.04c-0.03,0.99-0.06,1.99-0.09,2.98c-0.25,0.31-0.51,0.62-0.76,0.92
			c-0.23-0.78-0.05-1.8-1.17-2.08C21.09,86.27,21.13,84.65,21.17,83.03z"/>
		<path class="st58" d="M49.99,103.95c0.15-2.13,0.21-4.32,2.9-4.97c0.01,1.33,0.03,2.66,0.04,3.99
			C52.01,103.48,51.18,104.26,49.99,103.95z"/>
		<path class="st59" d="M89.81,94.02C89.54,94.35,89.27,94.67,89,95c-0.67,0.34-1.33,0.67-2,1.01c0.34-2.43,2.79-4.25,2-7
			c0.01-1.08-0.13-2.2,0.84-3.02C89.83,88.66,89.82,91.34,89.81,94.02z"/>
		<path class="st60" d="M83.01,84.52c-0.33-0.52-0.66-1.04-0.99-1.55c2.57,0.44,5.4-0.91,7.76,1.07c-0.91,0.3-1.82,0.6-2.74,0.9
			C85.78,84.03,84.38,84.4,83.01,84.52z"/>
		<path class="st61" d="M58.08,103.04c-1.75-1.36-0.81-3.31-1.09-5c0-0.69,0-1.38,0-2.07c0.15-1.34-0.43-2.83,0.86-3.91
			C57.93,95.72,58,99.38,58.08,103.04z"/>
		<path class="st62" d="M105,68.01c0.64-0.66,1.28-1.33,1.92-1.99c0.05,2.79,0.28,5.61-0.75,8.3c-0.49-1.4,0.28-3.14-1.14-4.29
			C105.02,69.35,105.01,68.68,105,68.01z"/>
		<path class="st63" d="M51.01,40.06c0.34-0.01,0.68-0.02,1.01-0.03c0.6,1.46,1.21,2.92,1.82,4.4c-1.62,1.09-3.25,0.7-4.84,0.6
			c0-0.34-0.01-0.68-0.01-1.02c1.19-0.13,3.16,0.51,1.99-1.99C50.99,41.37,51,40.71,51.01,40.06z"/>
		<path class="st64" d="M46.17,94.97c-0.12,0.34-0.23,0.69-0.35,1.03c0,0-0.34,0-0.34,0s-0.34,0-0.34,0
			c0.01-2.67,0.02-5.34,0.03-8.01c0.79,0.04,1.48,0.27,1.85,1.05C45.51,90.84,45.97,92.93,46.17,94.97z"/>
		<path class="st65" d="M79.82,93.96c-0.6-2.65-1.21-5.31-1.81-7.96c0.61,0,1.22,0,1.82,0C79.83,88.65,79.83,91.31,79.82,93.96z"/>
		<path class="st66" d="M60.17,93.02c1.65,3.28,0.59,6.75,0.69,10.14C59.59,99.85,60.23,96.41,60.17,93.02z"/>
		<path class="st67" d="M101.88,101.97c-1.08-0.75-0.85-1.9-0.91-2.96c0.01-0.34,0.01-0.67,0.02-1.01c0.65-0.68,1.3-1.37,1.95-2.05
			c0,0,0.17,0.15,0.17,0.15C103.24,98.17,102.62,100.08,101.88,101.97z"/>
		<path class="st68" d="M35.03,44.89c0.75-1.08,1.9-0.86,2.97-0.9c1.33,0,2.67,0,4,0c0.33,0,0.66,0.01,0.99,0.02
			c0,0.32,0,0.64,0,0.97C40.34,44.95,37.69,44.92,35.03,44.89z"/>
		<path class="st69" d="M105.03,70.02c1.42,1.16,0.64,2.89,1.14,4.29c-0.08,1.22-0.16,2.43-0.24,3.65
			c-1.58-1.39-0.68-3.27-0.98-4.92C104.97,72.04,105,71.03,105.03,70.02z"/>
		<path class="st70" d="M97.16,6.56c-0.11,2.08-0.23,4.16-0.34,6.23c-0.27,0.01-0.54,0.01-0.81,0.02c0-2.22,0-4.44,0-6.65
			C96.56,5.81,96.92,6.01,97.16,6.56z"/>
		<path class="st71" d="M66.99,107.1c0,0.3,0.01,0.6,0.01,0.9c-2.67-0.01-5.34-0.01-8.01-0.02c0-0.3,0-0.6,0-0.9
			C61.66,107.08,64.33,107.09,66.99,107.1z"/>
		<path class="st72" d="M52.93,102.97c-0.01-1.33-0.03-2.66-0.04-3.99c-0.01-0.34-0.02-0.68-0.04-1.02c0.1-0.65,0.2-1.3,0.31-1.95
			c0,0,0.37-0.01,0.37-0.01l0.37,0c0.01,2.33,0.02,4.66,0.03,6.99C53.6,102.99,53.26,102.98,52.93,102.97z"/>
		<path class="st73" d="M79,96c0.28,0,0.55,0,0.83-0.01c-0.05,2.38,1.04,4.88-0.76,7.07c0,0-0.12-0.11-0.12-0.11
			c0.02-0.32,0.04-0.64,0.04-0.96C79,100,79,98,79,96z"/>
		<path class="st74" d="M69.96,15.79c-0.32,0.73-0.64,1.46-0.96,2.2c-1.02,0.67-2.04,1.34-3.06,2.01
			C66.25,17.61,67.47,16.09,69.96,15.79z"/>
		<path class="st75" d="M72.01,103.92C72,103.61,72,103.3,72,103c2.32-0.01,4.64-0.03,6.95-0.04c0,0,0.12,0.11,0.12,0.11
			C76.95,105.34,74.38,103.76,72.01,103.92z"/>
		<path class="st76" d="M21.06,69.05c-0.22,1.34,0.43,2.89-0.99,3.92c-0.08-1.55-0.15-3.09-0.23-4.64c0.15-0.89,0.26-1.8,1.14-2.34
			C21,67.02,21.03,68.03,21.06,69.05z"/>
		<path class="st77" d="M103.98,81c1.88,0,0.49,1.72,1.22,2.32c-0.11,0.88-0.21,1.76-0.32,2.63C103.38,84.52,104.23,82.66,103.98,81
			z"/>
		<path class="st78" d="M43,44.98c0-0.32,0-0.64,0-0.97c0.67-0.01,1.35-0.02,2.02-0.03c1.32,0.01,2.65,0.02,3.97,0.03
			c0,0.34,0.01,0.68,0.01,1.02C47,45.01,45,45,43,44.98z"/>
		<path class="st79" d="M92,20c0-0.66,0-1.33,0-1.99c1.05,0.58,2.1,1.17,3.15,1.75C94.21,21.25,93.03,19.72,92,20z"/>
		<path class="st80" d="M26.02,100c-0.01,1.04-0.01,2.09-0.02,3.13c0,0,0.07,0.49,0.07,0.49c-0.07,0.19-0.12,0.39-0.14,0.59
			c-0.36-0.4-0.71-0.79-1.07-1.19c0.14-0.31,0.18-0.63,0.12-0.96C25.51,101.46,24.09,99.87,26.02,100z"/>
		<path class="st81" d="M69,115c-18.34,0.64-36.5-2.77-54.85-3.06c3.66,0,7.31,0,10.97,0c3.3,0.04,6.6,0.08,9.91,0.13
			c2.87,1.87,6.06,0.56,9.08,0.88c2.29,0.04,4.59,0.08,6.88,0.13c2.88,1.84,6.07,0.56,9.1,0.88c2.97,0.03,5.93,0.06,8.9,0.1
			C69,114.37,69,114.68,69,115L69,115z"/>
		<path class="st82" d="M15.21,109.15c2.93-0.41,5.86-0.82,8.79-1.23c0,0-0.03,0.1-0.03,0.1c-0.01,0.67-2.54,1.83,0.25,1.93
			C28.48,110.12,32.74,110,37,110c0,0.33,0,0.67,0,1c-4.03,0.01-8.06,0.03-12.1,0.04c-3.27-0.01-6.57,0.29-9.79-0.12
			C12.17,110.55,15.15,109.77,15.21,109.15z"/>
		<path class="st83" d="M93,115c-0.34,0.34-0.67,0.67-1.01,1.01c-2,0-3.99,0-5.99,0c-5.65-0.57-11.45,1.18-17-1c0,0,0,0,0,0
			C77,115,85,115,93,115z"/>
		<path class="st14" d="M24.9,111.04c4.03-0.01,8.06-0.03,12.1-0.04c0,0.31,0,0.63,0,0.94c-0.66,0.04-1.31,0.08-1.97,0.12
			c-3.3-0.04-6.61-0.08-9.91-0.13C25.05,111.64,24.98,111.34,24.9,111.04z"/>
		<path class="st84" d="M86,116c2,0,3.99,0,5.99,0c0,0.3-0.02,0.6-0.06,0.9C89.94,116.73,87.76,117.78,86,116z"/>
		<path class="st85" d="M32.16,116.51c-1.04,0.7-2.05,0.61-3.41,0.04C30.05,115.81,31.05,115.77,32.16,116.51z"/>
		<path class="st1" d="M93,115c-8,0-16,0-24,0c0-0.32,0-0.63,0-0.95c1.99-0.04,3.98-0.08,5.97-0.12c6.01,0,12.01-0.01,18.02-0.01
			c0.33,0.02,0.67,0.03,1,0.05C93.66,114.31,93.33,114.66,93,115z"/>
		<path class="st86" d="M93.98,113.99c2.33-1.06,4.65-2.11,6.98-3.17C99.53,113.84,96.8,114.02,93.98,113.99z"/>
		<path class="st87" d="M42,43.99c-1.33,0-2.67,0-4,0c1.76-4.18,6.56-3.71,9.44-6.18c0.62,0.68,1.25,1.37,1.87,2.05
			C46.49,40.56,44.27,42.32,42,43.99z"/>
		<path class="st88" d="M42,43.99c2.27-1.68,4.49-3.43,7.31-4.13c0.57,0.06,1.13,0.13,1.69,0.19c-0.01,0.65-0.02,1.31-0.03,1.96
			c-1.98,0.66-4.24,0.5-5.96,1.96C44.35,43.99,43.67,44,43,44.01C42.67,44,42.34,44,42,43.99z"/>
		<path class="st89" d="M31.83,33.07c0.05,1.64,0.11,3.28,0.16,4.92C29.56,36.73,29.51,35.21,31.83,33.07z"/>
		<path class="st90" d="M43,36.06c-1.12,1.67-2.37,3.04-4.65,1.99c1.07-1.76,2.89-2.34,4.69-2.94C43.02,35.43,43.01,35.74,43,36.06z
			"/>
		<path class="st91" d="M43,36.06c0.01-0.31,0.02-0.63,0.04-0.94c1.44-1.22,2.6-1.49,2.97,0.89C45,36.02,44,36.04,43,36.06z"/>
		<path class="st42" d="M23.99,98.04c-1-1.23-0.85-2.68-0.82-4.12c1.05-0.72,0.81-1.85,0.9-2.88c0.87,0.64,1.49,2.05,2.92,0.96
			C30.99,93.67,35,93.43,39,92c1.71,1.26,2.69-0.4,3.93-0.98c0.05,1,0.1,2,0.14,2.99c0,0-0.18-0.02-0.18-0.02
			c-1.9,2.97-4.92,1.7-7.54,2.04C31.54,96.52,27.49,95.75,23.99,98.04z"/>
		<path class="st92" d="M23.99,98.04c3.5-2.29,7.55-1.52,11.37-2.02c2.62-0.34,5.64,0.93,7.54-2.04c0.02,1.01,0.03,2.02,0.04,3.02
			c-1.31,1.79-3.13,1.98-5.21,2.05c-3.91,0.15-7.94-0.96-11.71,0.93c-1.93-0.12-0.51,1.47-1.05,2.05
			C23.75,100.93,24.23,99.4,23.99,98.04z"/>
		<path class="st93" d="M24.07,91.05c-0.09,1.02,0.15,2.15-0.9,2.88c-0.17-1.35-1.63-2.4-0.95-3.95c0.25-0.31,0.51-0.62,0.76-0.92
			C23.82,89.45,23.96,90.24,24.07,91.05z"/>
		<path class="st94" d="M106.07,61.95c-1.28,0.72-2.63,1.2-4.13,1.07c-3.26,0.84-7.23-2.04-9.9,1.89c-1.19,0.75-1.01,1.96-1.05,3.1
			c-4-3.2-6.63-2.87-7.99,0.99c-0.33,0-0.65,0.01-0.98,0.01c-0.31-1.75,0.77-3.85-1.34-5.13c-4.11-1.88-8.45-0.44-12.66-0.87L68,63
			c1.28-1.5,3.02-0.95,4.59-0.97c4.57-0.06,9.14-0.01,13.71-0.03c1.6-0.01,3.42,0.33,3.73-2.05c3.97-0.47,8.15,1.33,11.94-1.08
			c0.03-0.3,0.01-0.61-0.06-0.91c0.04-5.32,0.09-10.64,0.13-15.95l0.48-0.04l0.48,0.02c0,0,0.09,0.02,0.09,0.02
			c0.07,3.66,0.14,7.33,0.21,10.99c-0.04,1.25-0.5,2.71-0.01,3.69c0.47,0.94,0.56-0.36,0.83-0.67c0.62,0,1.23,0,1.85,0
			C106,57.98,106.04,59.97,106.07,61.95z"/>
		<path class="st95" d="M60,36c0.06-1.34,0.03-3.08,1.87-2.88c4.94,0.53,9.8-1.59,14.68-0.36c2.14,0.54,3.91-0.47,5.81-0.81
			c6.43-1.13,13.11,1.18,19.44-1.65c1.93-0.86,2.99,0.75,3.19,2.69c-6.53,0.44-13.12,0.66-19.59,1.29C80.98,34.73,76.24,33.84,72,36
			C68,36,64,36,60,36z"/>
		<path class="st96" d="M60,36c4,0,8,0,12,0c4.69,0.14,9.28,0.28,14.02-0.74C89.43,34.53,93.48,33.89,97,36
			c-5.21,1.66-10.92-0.72-16,2c-0.33,0-0.67,0-1,0c-3.44,0-6.89-0.06-10.32,0.04c-1.01,0.03-3.2-0.45-1.67,1.95
			c0.04,0.44,0.08,0.87,0.12,1.31c-2.42,5.38-0.85,10.96-0.83,16.47c-0.42,0.06-0.85,0.12-1.27,0.18c-0.03-1.31-0.05-2.61-0.08-3.92
			c0-1.01,0.01-2.02,0.01-3.02c0.01-1,0.01-2,0.02-3c0-1.33,0.01-2.67,0.01-4c0.12-4.48-3.99-2.65-5.97-4
			C60.01,38.68,60.01,37.34,60,36z"/>
		<path class="st97" d="M81,38c5.08-2.72,10.79-0.34,16-2c3.01-0.23,5.9-1.49,8.99-1c0,0.67,0,1.34,0,2
			c-2.75,1.61-5.77,0.9-8.68,0.97C92.46,38.08,87.68,38.68,83,40c-0.33,0-0.67,0-1,0c-0.33,0-0.66,0.01-0.99,0.03
			C81,39.35,81,38.68,81,38z"/>
		<path class="st98" d="M83,40c4.68-1.32,9.46-1.92,14.32-2.02c2.91-0.06,5.93,0.64,8.68-0.97c0,2-0.01,4-0.01,6
			c-0.66-0.34-1.32-0.67-1.98-1.01c-0.3,0-0.61,0-0.91-0.01c0,0-0.09-0.02-0.09-0.02c-0.38-0.36-0.76-0.71-1.14-1.07
			c-3.82-1.92-7.91-0.43-11.84-0.91C87.67,40,85.34,40,83,40z"/>
		<path class="st99" d="M105.99,35c-3.09-0.49-5.98,0.77-8.99,1c-3.52-2.11-7.57-1.47-10.98-0.74C81.28,36.28,76.69,36.14,72,36
			c4.24-2.16,8.98-1.27,13.41-1.7C91.88,33.66,98.47,33.44,105,33C105.33,33.67,105.66,34.34,105.99,35z"/>
		<path class="st100" d="M65.98,44.01c0,1.33-0.01,2.67-0.01,4c-1.98-0.48-3.96,1.05-5.94,0c0-1.33,0-2.67-0.01-4
			C62.01,45.06,63.99,43.53,65.98,44.01z"/>
		<path class="st101" d="M65.98,44.01c-1.99-0.48-3.97,1.05-5.96,0c0-1.33-0.01-2.67-0.01-4C61.99,41.36,66.1,39.53,65.98,44.01z"/>
		<path class="st102" d="M104,42c0.66,0.34,1.32,0.67,1.98,1.01c0,3.33,0.01,6.67,0.01,10c-0.65,0.01-1.3,0.01-1.95,0.02
			C104.03,49.35,104.01,45.68,104,42z"/>
		<path class="st103" d="M60.03,48.02c1.98,1.04,3.96-0.49,5.94,0c-0.01,1-0.01,2-0.02,3C64.21,50.88,62.53,51.06,61,52
			c-0.32,0-0.63,0.01-0.94,0.02C60.04,50.69,60.04,49.35,60.03,48.02z"/>
		<path class="st38" d="M104.04,53.03c0.65-0.01,1.3-0.01,1.95-0.02c-0.01,1-0.01,1.99-0.02,2.99c-0.62,0-1.23,0-1.85,0
			c-0.05-1-0.09-2.01-0.14-3.01L104.04,53.03z"/>
		<path class="st104" d="M54.97,60.02c-0.01,2.03-0.02,4.06-0.03,6.1c-3.79-2.7-7.99-1.08-12.03-1.14c-0.32,0-0.65,0.02-0.97,0.04
			c-0.65,1-1.29,1.99-1.94,2.99c-0.14-1.45,0.47-3.11-1.2-4.1c-4.13-1.38-8.32-1.3-10.58,0.22c-0.09,0.3-0.22,0.57-0.4,0.82
			c-0.25,0-0.5,0.03-0.75,0.07C26.71,65.01,26.36,65.01,26,65c-1.65,0.01-3.31,0.01-4.96,0.02c0-1.33-0.01-2.66-0.01-4
			c1.49,0.86,3.11,1,4.81,1c8.79-0.05,17.51-1.62,26.32-1.1C53.08,60.97,54.04,60.33,54.97,60.02z M44.06,63.22
			c2.93,0.81,5.86,0.93,8.77,0C49.91,63.22,46.99,63.22,44.06,63.22z"/>
		<path class="st105" d="M21.02,59.02c0-0.34-0.01-0.67-0.01-1.01c11.28-1.51,22.59-2.5,33.98-2c0,0.34-0.01,0.67-0.01,1.01
			c-9.63,2.05-19.45,2.16-29.2,2.98C24.1,60.14,22.5,59.86,21.02,59.02z"/>
		<path class="st106" d="M21.02,59.02c1.48,0.84,3.08,1.12,4.76,0.98c9.75-0.82,19.58-0.94,29.2-2.98c0,1-0.01,2-0.01,3
			c-0.94,0.32-1.9,0.95-2.81,0.9c-8.81-0.52-17.53,1.06-26.32,1.1c-1.7,0.01-3.32-0.13-4.81-1C21.03,60.35,21.03,59.69,21.02,59.02z
			"/>
		<path class="st96" d="M21,57c0.17-2.33,1.63-2.9,3.71-3.02c6.72-0.39,13.41-1.4,20.17-0.98c1.66,0.1,3.24-0.27,4.85-0.69
			c1.65-0.43,3.75-1.09,4.26,1.7c-5.69,1.49-11.58-0.43-17.26,1.01C31.57,56.33,26,54.4,21,57z"/>
		<path class="st107" d="M42.91,64.97c4.04,0.05,8.24-1.56,12.03,1.14c0.08,1.63,0.16,3.26,0.24,4.89
			c-0.04,1.67-0.09,3.34-0.13,5.01c-3.84,2.03-7.94,0.61-11.91,0.89C42.24,72.95,42.65,68.96,42.91,64.97z M44.29,70.27
			c-0.54,3.09-0.29,5.26,3.78,4.85c2.83-0.29,5.18,0.35,5.15-4.17c-0.04-4.34-1.77-4.53-5.2-4.67
			C44.63,66.15,43.48,67.11,44.29,70.27z"/>
		<path class="st108" d="M21,57c5-2.6,10.56-0.67,15.73-1.99C42.41,53.57,48.31,55.5,54,54c0.33,0.67,0.66,1.33,1,2
			c-11.4-0.5-22.71,0.49-33.98,2C21.01,57.67,21.01,57.34,21,57z"/>
		<path class="st109" d="M21.04,65.02c1.65-0.01,3.31-0.01,4.96-0.02c0,1,0,2,0,3c-1.44,1.32-2.49,4.5-4.94,1.05
			C21.03,68.03,21,67.02,20.98,66C21,65.67,21.02,65.34,21.04,65.02z"/>
		<path class="st82" d="M92.99,113.92c-6.01,0-12.01,0.01-18.02,0.01c-4.93-2.03-10.06-0.45-15.08-0.87
			c-1.96-0.03-3.92-0.07-5.89-0.1c0.33-0.32,0.67-0.64,1-0.96c11.2,0,22.41-0.03,33.61,0.03C90.24,112.04,92.45,111.18,92.99,113.92
			z"/>
		<path class="st110" d="M37,111.94c0-0.31,0-0.63,0-0.94c0-0.33,0-0.67,0-1c0-0.65,0-1.3,0-1.95c6.32,0,12.65,0,18.97-0.01
			c-3.74,2.02-7.77,0.47-11.63,0.96c-1.65,0.21-3.86-0.78-4.34,2c-0.81,0.02-1.55,0.18-2,0.96C37.67,111.95,37.34,111.95,37,111.94z
			"/>
		<path class="st82" d="M38,111.96c0.45-0.78,1.19-0.94,2-0.96c4.98,0.57,10.12-1.2,15,1c-0.33,0.32-0.67,0.64-1,0.96
			c-0.34-0.01-0.68-0.01-1.02-0.02c-2.87-1.88-6.06-0.57-9.08-0.89C41.93,112.02,39.96,111.99,38,111.96z"/>
		<path class="st111" d="M81.19,75.99c-0.16,0.28-0.23,0.58-0.21,0.9c-4.32,0.02-8.64,0.04-12.96,0.06c0,0,0.05,0.02,0.05,0.02
			c-0.1-1.66-0.2-3.32-0.3-4.98c0-1.99,0-3.99,0-5.98c0.26-0.4,0.52-0.8,0.79-1.21c3.95,0.01,7.9,0.02,11.85,0.03
			c1.25,1.19,0.31,2.81,0.79,4.15c0,1.66,0,3.32,0.01,4.98C81.21,74.64,81.2,75.32,81.19,75.99z M69.94,75.06
			c3.02,1.45,6.04,1.58,9.04-0.06c0-0.68-0.01-1.36-0.01-2.05c-0.21-2.02,1.46-4.34-0.94-6.01c-0.15-0.54-0.42-0.89-1.06-0.72
			c-2.27-0.06-4.53-0.12-6.8-0.18C68.08,69,68.55,72.02,69.94,75.06z"/>
		<path class="st112" d="M91,77c-2.92-1.05-6.45,3.39-9.01-0.99c2.46-1.49,5.08-2.38,8.01-2.01c0.33,0,0.65,0.01,0.98,0.01
			C90.99,75.01,90.99,76,91,77z"/>
		<path class="st113" d="M61.09,77.07c-0.01-0.68-0.02-1.37-0.03-2.05c1.64-0.67,3.29-1.34,4.94-2.01
			c-0.07,1.72,0.16,3.29,2.08,3.97c0,0-0.05-0.02-0.05-0.02C68.01,77.3,68,77.65,67.99,78C65.46,79.39,63.08,79.65,61.09,77.07z"/>
		<path class="st114" d="M90,74c-2.93-0.37-5.54,0.52-8.01,2.01c-0.27,0-0.54-0.01-0.8-0.02c0.01-0.67,0.01-1.35,0.02-2.02
			c0.26,0.02,0.52,0.03,0.78,0.02C84.94,69.99,87.87,69.99,90,74z"/>
		<path class="st115" d="M67.99,78c0.01-0.35,0.02-0.7,0.03-1.05c4.32-0.02,8.64-0.04,12.96-0.06C76.83,79.36,72.31,77.43,67.99,78z
			"/>
		<path class="st116" d="M90.99,80c0,0.33,0,0.66,0,0.99c-3.26,0-6.52,0-9.79,0c0-0.33-0.01-0.66-0.01-0.99
			C84.46,80,87.73,80,90.99,80z"/>
		<path class="st117" d="M101.87,76.81c0.04,0.39,0.08,0.78,0.13,1.18c-3.33-0.41-6.85,1.05-10.02-0.97c0,0,0.05-0.04,0.05-0.04
			c2.98-0.1,5.97-0.2,8.95-0.29c0.27,0.05,0.54,0.09,0.81,0.12L101.87,76.81z"/>
		<path class="st118" d="M91,77c-0.01-1-0.02-1.99-0.02-2.99c0.01-0.67,0.03-1.35,0.04-2.02c0,0,0.39,0,0.39,0l0.39,0
			c0.08,1.66,0.15,3.32,0.23,4.98c0,0-0.05,0.04-0.05,0.04C91.65,77,91.33,76.99,91,77z"/>
		<path class="st119" d="M26.07,103.62c0,0-0.07-0.49-0.07-0.49c2.97,0,5.94,0,8.9,0c0,0.16,0,0.32,0,0.49
			C31.96,103.62,29.02,103.62,26.07,103.62z"/>
		<path class="st120" d="M42.95,97.01c-0.01-1.01-0.03-2.02-0.04-3.02c0,0,0.17,0.02,0.17,0.02c0.25-0.01,0.51-0.02,0.76-0.02
			c0,1.96,0,3.93,0,5.89C42.75,99.16,43.1,98.01,42.95,97.01z"/>
		<path class="st121" d="M79,96c0,2,0,4,0,6c-0.84-3.92-3.49-4.26-6.93-3.96c-3.31,0.29-6.7,2.04-10.02-0.01
			c-0.01-1.01-0.02-2.02-0.03-3.03c5.12-2.32,10.85,0.23,15.98-2C78.04,94.1,77.83,95.28,79,96z"/>
		<path class="st16" d="M62.04,98.03c3.32,2.05,6.71,0.3,10.02,0.01c3.44-0.3,6.09,0.04,6.93,3.96c0,0.32-0.02,0.64-0.04,0.96
			c-2.32,0.01-4.64,0.03-6.95,0.04c-1.06-1.46-2.63-0.86-4.01-0.99c-1.99-0.01-3.98-0.02-5.97-0.04
			C62.02,100.66,62.03,99.34,62.04,98.03z"/>
		<path class="st122" d="M78,93c-5.13,2.23-10.86-0.32-15.98,2c0-1.33-0.01-2.67-0.01-4c4.44-0.48,8.87-0.93,13.34-1.2
			C78.58,89.61,77.95,91.26,78,93z"/>
		<path class="st123" d="M62.02,101.97c1.99,0.01,3.98,0.02,5.97,0.04c-1.76,1.79-4,0.66-6,0.96
			C61.99,102.64,62.01,102.3,62.02,101.97z"/>
		<path class="st124" d="M100.99,98c-0.01,0.34-0.01,0.67-0.02,1.01c-2.53,1.29-5,3.03-7.95,0.99c0.01-0.99,0.02-1.99,0.02-2.98
			C95.54,98.55,98.32,97.84,100.99,98z"/>
		<path class="st125" d="M93.04,97.02c-0.01,0.99-0.02,1.99-0.02,2.98c-0.03,0.16-0.01,0.37-0.11,0.47
			c-0.16,0.16-0.39,0.25-0.6,0.38c-0.05-2.88-0.09-5.76-0.13-8.64c0.29,0.27,0.58,0.54,0.87,0.81c0,0.34,0,0.68,0.01,1.02
			C93.05,95.03,93.05,96.02,93.04,97.02z"/>
		<path class="st126" d="M92.95,88.97c-0.27,0-0.52-0.06-0.75-0.19c-0.01-1.86-0.03-3.72-0.04-5.57c0.83,0.35,0.81,1.12,0.9,1.83
			C93.02,86.35,92.99,87.66,92.95,88.97z"/>
		<path class="st127" d="M92.95,88.97c0.04-1.31,0.07-2.62,0.11-3.93c2.02,1.12,4.04,1.2,6.23,0.38c2.3-0.86,3.44,0.33,3.7,2.59
			C99.78,89.67,96.46,90.27,92.95,88.97z"/>
		<path class="st128" d="M78,22.99c0-0.33,0-0.66,0-0.99c1.34,0,2.67-0.01,4.01-0.01C85,22,88,22,90.99,22
			C86.8,24.14,82.31,22.44,78,22.99z"/>
		<path class="st121" d="M93.05,94.03c0-0.34,0-0.68-0.01-1.02c1.8-0.06,3.59,0.08,5.36-0.64c1.88-0.77,3.58-0.43,4.58,1.61
			C99.68,94.85,96.39,97.86,93.05,94.03z"/>
		<path class="st129" d="M93.05,94.03c3.33,3.83,6.63,0.82,9.93-0.05c-0.02,0.66-0.03,1.31-0.04,1.97c-0.65,0.68-1.3,1.37-1.95,2.05
			c-2.67-0.17-5.45,0.55-7.95-0.98C93.05,96.02,93.05,95.03,93.05,94.03z"/>
		<path class="st130" d="M105.03,70.02c-0.03,1.01-0.06,2.02-0.09,3.03c-0.64,0.99-1.28,1.97-1.92,2.96
			C103,74,102.99,72,102.97,69.99c0.02-0.33,0.04-0.65,0.05-0.98c0.66-0.33,1.32-0.67,1.97-1
			C105.01,68.68,105.02,69.35,105.03,70.02z"/>
		<path class="st131" d="M102.97,69.99c0.02,2.01,0.03,4.01,0.05,6.02c-0.38,0.27-0.77,0.54-1.15,0.8c0,0-0.09-0.02-0.09-0.02
			c0.14-2.27,0.28-4.54,0.41-6.8C102.45,70,102.71,69.99,102.97,69.99z"/>
		<path class="st36" d="M89,89c0.79,2.75-1.65,4.58-2,7c-0.13,2.37-3.64,4.24-1.01,7.01c-0.8,1.19-2,0.95-3.15,0.88
			c0.07-1.94,0.14-3.89,0.22-5.83C85.72,95.49,85.63,91.11,89,89z"/>
		<path class="st132" d="M83.01,84.52c1.37-0.12,2.77-0.48,4.03,0.41c-4.37,1.16-1,6.17-3.98,8.03
			C82.15,90.15,83.08,87.33,83.01,84.52z"/>
		<path class="st133" d="M83.05,98.06c-0.07,1.94-0.14,3.89-0.22,5.83c-0.23,0-0.44-0.05-0.63-0.18c-0.02-2.21-0.04-4.42-0.06-6.63
			C82.45,97.41,82.75,97.74,83.05,98.06z"/>
		<path class="st14" d="M37,108.05c0,0.65,0,1.3,0,1.95c-4.26,0-8.52,0.12-12.77-0.04c-2.8-0.1-0.26-1.26-0.25-1.93
			C28.32,108.04,32.66,108.04,37,108.05z"/>
		<path d="M26.84,85.04c0.08-1.31,0.17-2.63,0.25-3.94c0,0-0.05,0-0.05,0c3.63,0.04,7.26,0.09,10.88,0.13
			c-0.07,0.65,0.09,1.42-0.83,1.64c-2.78-1.36-5.57-1.38-8.37-0.04c-1.14,2.17-1.23,4.3,0.2,6.39c2.72,1.12,5.42,1.3,8.07-0.2
			c0.62,0.34,1.24,0.69,1.86,1.03c0.09,0.27,0.12,0.55,0.09,0.83c-3.96,0-7.92,0-11.89,0.01l0.04,0.08
			C27.02,88.99,26.93,87.01,26.84,85.04z"/>
		<path class="st134" d="M21.08,78.77c0.21-3.02,2.84-3.56,4.84-4.75c0.12,0.81,0.21,1.63,1.14,1.97c0.26,0.02,0.53,0.04,0.79,0.05
			c0.21,0.21,0.35,0.47,0.42,0.76c-0.47,0.33-1.07,0.62-0.28,1.23c0,0.32,0,0.64,0,0.96c-0.82,0.47-0.98,1.24-0.95,2.1
			c0,0,0.05,0,0.05,0C25.09,80.32,23.09,79.55,21.08,78.77z"/>
		<path class="st135" d="M24.07,91.05c-0.11-0.81-0.24-1.6-1.09-2c0.03-0.99,0.06-1.99,0.09-2.98c0.98,1.31,1.95,2.62,2.93,3.94
			c0.37,0.32,0.74,0.64,1.11,0.97c0,0-0.04-0.08-0.04-0.08c-0.03,0.38-0.06,0.75-0.08,1.13C25.55,93.09,24.94,91.69,24.07,91.05z"/>
		<path class="st136" d="M27.11,90.96C26.74,90.64,26.37,90.32,26,90c0.23-1.66-0.6-3.51,0.85-4.96
			C26.93,87.01,27.02,88.99,27.11,90.96z"/>
		<path class="st137" d="M26.07,70.99c0.25,0,0.51,0.01,0.76,0.01c0.08,1.67,0.16,3.33,0.24,5c-0.93-0.34-1.02-1.16-1.14-1.97
			C25.97,73.01,26.02,72,26.07,70.99z"/>
		<path class="st138" d="M66.02,57.96c0.42-0.06,0.85-0.12,1.27-0.18c0,0-0.29,0.05-0.29,0.05c4.62,1.92,9.24,1.96,13.85-0.02
			c0.36,0.03,0.72,0.06,1.08,0.08c2.33,0.89,4.7-0.33,7.04,0.12c0.46,0.28,0.91,0.55,1.37,0.83l0.04-0.06
			c-0.12,0.39-0.23,0.77-0.35,1.16c-0.31,2.38-2.14,2.05-3.73,2.05c-4.57,0.02-9.14-0.03-13.71,0.03C71.01,62.04,69.27,61.5,68,63
			C65.66,63,63.33,63,61,63c0-1,0-2,0-3C62.95,59.99,65.03,60.32,66.02,57.96z"/>
		<path class="st139" d="M61,52c1.53-0.94,3.21-1.13,4.95-0.99c0,1.01-0.01,2.02-0.01,3.02C63.79,54.57,60.59,57.66,61,52z"/>
		<path class="st140" d="M61,63c2.33,0,4.66,0,6.99-0.01c0,0,0.02,0.02,0.02,0.02c0.04,0.3,0.12,0.58,0.25,0.85
			c-1.06,0.39-1.85,1.08-2.28,2.14c-1.54,0.95-3.23,1.1-4.98,1C61.01,65.67,61,64.34,61,63z"/>
		<path class="st141" d="M61.01,67.01c1.75,0.09,3.44-0.05,4.98-1C66,66.34,66,66.67,66,67c0,1.33,0,2.67,0,4
			c-1.66,0-3.32,0.01-4.97,0.01C61.01,70.67,61.01,70.34,61,70C61,69.01,61.01,68.01,61.01,67.01z"/>
		<path class="st142" d="M85.99,103.01c-2.62-2.76,0.89-4.64,1.01-7.01c0.67-0.34,1.33-0.67,2-1.01
			C87.99,97.67,86.99,100.34,85.99,103.01z"/>
		<path class="st143" d="M46.17,94.97c-0.21-2.05-0.66-4.13,0.84-5.93c1.74-1.55,3.84-0.96,5.84-0.98c0.47,1.25-0.53,1.97-1.04,2.87
			c-0.27-0.01-0.53-0.01-0.8-0.01c-1.59-1.38-2.62-1.15-2.97,1.03C47.96,93.29,48.17,94.82,46.17,94.97z"/>
		<path class="st144" d="M51.81,90.93c0.51-0.9,1.52-1.62,1.04-2.87c0.35-0.03,0.69-0.05,1.04-0.08c0,2.68,0.01,5.35,0.01,8.03
			c0,0-0.38,0-0.38,0s-0.37,0.01-0.37,0.01C52.97,94.25,53.19,92.38,51.81,90.93z"/>
		<path class="st145" d="M48.05,91.96c0.35-2.18,1.38-2.41,2.97-1.03c-0.06,1.11,0.18,2.32-1,3.07
			C49.98,92.72,49.29,92.07,48.05,91.96z"/>
		<path class="st146" d="M56.75,78.68c0.02,0.75,0.04,1.5,0.05,2.26c-0.6,0.02-1.2,0.05-1.8,0.07c-4.99-1.17-9.98,2.38-14.98,0.01
			c1.25-1.33,2.82-1.61,4.51-1.26c3.39,0.7,6.48-0.16,9.46-1.7c0.66-0.33,1.33-0.66,1.99-0.99C56.08,77.67,55.88,78.43,56.75,78.68z
			"/>
		<path class="st147" d="M55.98,77.05c-0.66,0.33-1.33,0.66-1.99,0.99c-1.92-0.01-3.88,0.19-5.76-0.09
			c-1.7-0.25-3.81,1.23-5.08-1.04c3.97-0.29,8.07,1.13,11.91-0.89C55.36,76.36,55.67,76.7,55.98,77.05z"/>
		<path class="st148" d="M55,81c0.6-0.02,1.2-0.04,1.8-0.07c0.02,1.42,0.03,2.85,0.05,4.27c-0.58,0.93-1.15,1.87-1.73,2.8
			c-0.38-0.33-0.75-0.66-1.13-1c0,0,0.08-0.11,0.08-0.11c-0.01-0.29-0.03-0.58-0.08-0.86c-3.01-1.64-6.01-1.71-9,0.03
			c-0.04,0.3-0.05,0.6-0.02,0.91l0.03,0.03l-0.45-0.05c0,0-0.44,0.09-0.44,0.09c-1.71-0.07-2.99,2.09-4.9,0.94
			c0-0.36,0-0.72-0.01-1.09c1.02-0.75,0.72-1.88,0.84-2.89c4.38,1.09,8.73-0.42,13.11-0.13C55,84,54.93,82.32,55,81z"/>
		<path class="st149" d="M55.13,88c0.58-0.93,1.15-1.87,1.73-2.8c0.08,2.41,0.4,4.87-1.71,6.72C55.14,90.61,55.13,89.31,55.13,88z"
			/>
		<path class="st150" d="M56.99,95.97c0,0.69,0,1.38,0,2.07c-0.61,0.62-1.21,1.24-1.82,1.86c-0.01-1.95-0.01-3.89-0.02-5.84
			C55.76,94.7,56.38,95.33,56.99,95.97z"/>
		<path class="st151" d="M92.04,64.91c2.67-3.92,6.64-1.05,9.9-1.89c0.03,0.32,0.06,0.65,0.07,0.97c-0.34,0.63-0.68,1.26-1.02,1.89
			c-0.31,0.17-0.63,0.18-0.95,0.03c0-0.32-0.07-0.62-0.21-0.9c-2.31-1.72-4.64-1.49-6.99-0.09c-0.27,0.04-0.54,0.08-0.81,0.12
			L92.04,64.91z"/>
		<path class="st152" d="M100.99,65.88c0.34-0.63,0.68-1.26,1.02-1.89c1.68,1.4,0.72,3.34,1.01,5.02c-0.01,0.33-0.03,0.65-0.05,0.98
			c-0.26,0-0.52,0.01-0.77,0C101.67,68.66,102.78,66.84,100.99,65.88z"/>
		<path class="st153" d="M39.22,87.99c1.91,1.15,3.19-1.01,4.9-0.94c-0.08,0.34-0.16,0.69-0.24,1.03c-1.15,0.71-0.78,1.91-0.94,2.93
			C41.68,91.6,40.71,93.26,39,92c-0.01-0.38-0.03-0.75-0.04-1.13c0.03-0.28,0-0.56-0.09-0.83C38.98,89.36,39.1,88.67,39.22,87.99z"
			/>
		<path class="st154" d="M53.89,87.98c-0.35,0.03-0.69,0.05-1.04,0.08c-2,0.02-4.1-0.58-5.84,0.98c-0.37-0.78-1.06-1-1.85-1.05
			c-0.09-0.32-0.14-0.65-0.16-0.98c0,0-0.03-0.03-0.03-0.03c3.03-0.03,6.07-0.05,9.1-0.08c0,0-0.08,0.11-0.08,0.11
			C53.98,87.33,53.95,87.66,53.89,87.98z"/>
		<path class="st149" d="M42.93,91.02c0.16-1.03-0.2-2.22,0.94-2.93c-0.01,1.97-0.03,3.94-0.04,5.9c-0.25,0.01-0.51,0.01-0.76,0.02
			C43.03,93.01,42.98,92.01,42.93,91.02z"/>
		<path class="st155" d="M61.02,71.01c1.66,0,3.32-0.01,4.97-0.01C66,71.33,66,71.67,66,72c0,0.34-0.01,0.67-0.01,1.01
			c-1.65,0.67-3.29,1.34-4.94,2.01C61.04,73.68,61.03,72.34,61.02,71.01z"/>
		<path class="st156" d="M45.02,43.98c1.72-1.46,3.98-1.3,5.96-1.96c1.17,2.5-0.8,1.86-1.99,1.99C47.67,44,46.35,43.99,45.02,43.98z
			"/>
		<path class="st14" d="M59.89,113.06c5.02,0.42,10.16-1.16,15.08,0.87c-1.99,0.04-3.98,0.08-5.97,0.12
			c-2.97-0.03-5.93-0.06-8.9-0.1C60.03,113.66,59.96,113.36,59.89,113.06z"/>
		<path class="st1" d="M59.89,113.06c0.07,0.3,0.14,0.6,0.22,0.9c-3.03-0.33-6.22,0.96-9.1-0.88c0.66-0.04,1.32-0.09,1.98-0.13
			c0.34,0.01,0.68,0.01,1.02,0.02C55.96,112.99,57.92,113.03,59.89,113.06z"/>
		<path class="st14" d="M52.98,112.94c-0.66,0.04-1.32,0.09-1.98,0.13c-2.29-0.04-4.59-0.08-6.88-0.12c-0.07-0.3-0.15-0.6-0.22-0.9
			C46.92,112.37,50.1,111.06,52.98,112.94z"/>
		<path class="st1" d="M43.89,112.05c0.07,0.3,0.15,0.6,0.22,0.9c-3.02-0.32-6.21,0.99-9.08-0.89c0.66-0.04,1.31-0.08,1.97-0.12
			c0.33,0.01,0.67,0.01,1,0.02C39.96,111.99,41.93,112.02,43.89,112.05z"/>
		<path class="st157" d="M38.96,90.87c0.01,0.38,0.03,0.75,0.04,1.13c-4,1.43-8.01,1.68-12.01,0.01c0.03-0.38,0.06-0.75,0.08-1.13
			C31.04,90.88,35,90.88,38.96,90.87z"/>
		<path class="st158" d="M102.05,42c-0.04,5.32-0.09,10.64-0.13,15.95c-3.89-0.01-7.77-0.02-11.66-0.03
			c-0.14-1.97-0.29-3.95-0.43-5.92c0.56-10.81,0.56-10.81,11.75-10.1C101.73,41.9,101.89,41.96,102.05,42z M92.25,43.1
			c-2.33,4.59-1.93,9.23-0.2,13.88c0.98-0.04,1.96-0.08,2.94-0.12c1.65-0.01,3.3-0.02,4.96-0.03c2.12-2.4,0.62-5.2,0.87-7.81
			c0-1.35,0-2.7,0-4.06C98.6,41.42,95.02,44.14,92.25,43.1z"/>
		<path class="st159" d="M102.05,42c-0.16-0.03-0.32-0.09-0.48-0.1c-11.19-0.7-11.19-0.7-11.75,10.1c-0.27,0-0.54,0-0.81,0
			C88.67,50,88.33,48,88,46c0.28-4.74-4.37-2.08-5.98-3.99C82.01,41.34,82,40.67,82,40c0.33,0,0.67,0,1,0c2.34,0,4.67,0,7.01,0
			c3.82,1.92,7.91,0.46,11.84,0.91c0.38,0.36,0.76,0.71,1.14,1.07c0,0-0.48-0.02-0.48-0.02L102.05,42z"/>
		<path class="st160" d="M91.02,71.99c-0.01,0.67-0.03,1.35-0.04,2.02C90.65,74,90.33,74,90,74c-2.13-4.01-5.07-4.01-8.01,0
			c0-1.67,0.01-3.33,0.01-5l0.02,0.01C82.35,69.01,82.67,69,83,69c2.77,0.23,5.9-0.96,7.99,2C91,71.33,91.01,71.66,91.02,71.99z"/>
		<path class="st161" d="M90.99,71c-2.09-2.96-5.22-1.78-7.99-2c1.35-3.86,3.98-4.19,7.99-0.99C90.99,69.01,90.99,70,90.99,71z"/>
		<path class="st162" d="M68.27,63.87c-0.12-0.27-0.21-0.56-0.25-0.85c4.21,0.43,8.55-1.01,12.67,0.87
			c-0.29,0.03-0.57,0.09-0.85,0.2c-3.56,0-7.12,0-10.67,0.01C68.88,63.96,68.58,63.88,68.27,63.87z"/>
		<path class="st137" d="M90.03,59.94c0.12-0.39,0.23-0.77,0.34-1.16c3.87,0.03,7.73,0.05,11.6,0.08
			C98.17,61.27,94,59.46,90.03,59.94z"/>
		<path class="st163" d="M101.97,58.85c-3.87-0.03-7.73-0.05-11.6-0.08c0,0-0.04,0.06-0.04,0.06c-0.07-0.3-0.09-0.61-0.08-0.92
			c3.89,0.01,7.77,0.02,11.66,0.03C101.98,58.25,102,58.55,101.97,58.85z"/>
		<path class="st164" d="M90.99,71c0-1,0-2-0.01-3c0.04-1.14-0.13-2.35,1.05-3.1c0,0-0.02,0.13-0.02,0.13
			c-0.08,2.32-0.15,4.64-0.23,6.96l-0.39,0c0,0-0.39,0-0.39,0C91.01,71.66,91,71.33,90.99,71z"/>
		<path class="st165" d="M79.84,64.08c0.27-0.11,0.56-0.17,0.85-0.2c2.11,1.27,1.03,3.38,1.34,5.13c0,0-0.02-0.01-0.02-0.01
			c-0.26,0-0.53,0-0.79-0.01c-0.48-1.34,0.46-2.96-0.79-4.15C80.2,64.61,80.01,64.35,79.84,64.08z"/>
		<path class="st166" d="M103.3,52.98c0.23,0.01,0.45,0.01,0.68,0c0.05,1,0.09,2.01,0.14,3.01c-0.26,0.31-0.36,1.62-0.83,0.67
			C102.8,55.69,103.25,54.23,103.3,52.98z"/>
		<path class="st167" d="M67.29,57.78c-0.03-5.5-1.59-11.09,0.83-16.47c0.32-0.1,0.62-0.23,0.9-0.4c0,5.01,0,10.03,0,15.04
			c-0.32,0.58-0.64,1.16-0.96,1.75c-0.36,0.04-0.71,0.08-1.07,0.13L67.29,57.78z"/>
		<path class="st168" d="M69.02,40.91c-0.28,0.17-0.58,0.3-0.9,0.4C68.08,40.87,68.04,40.44,68,40c1.42-1.61,3.33-0.75,5.03-1.01
			C75.35,38.65,77.9,39.9,80,38c0.33,0,0.67,0,1,0c0,0.68,0.01,1.35,0.01,2.03c0,0-0.22,0.21-0.22,0.21
			c-0.44,0.25-0.88,0.5-1.32,0.75c-0.39,0.01-0.78,0.01-1.17,0.02c-3.13-1.6-6.25-1.69-9.37,0.03L69.02,40.91z"/>
		<path class="st169" d="M43.15,76.91c1.28,2.28,3.39,0.79,5.08,1.04c1.88,0.28,3.84,0.08,5.76,0.09c-2.98,1.55-6.07,2.4-9.46,1.7
			c-1.69-0.35-3.26-0.07-4.51,1.26c0,0-0.03-0.01-0.03-0.01c-0.4,0.04-0.8,0.09-1.2,0.13l0.09,0.11c-0.3-0.41-0.6-0.83-0.9-1.24
			c-3.16-2.04-6.67-0.55-9.99-1l0-0.01c0-0.32,0-0.64,0-0.96c3.61-0.68,7.55,1.33,10.92-1.34c-0.1-0.31-0.02-0.57,0.23-0.77
			c4.31,0.13,2.28-3.02,2.57-4.97c0.07-1.98,0.14-3.96,0.21-5.94c0.32-0.03,0.65-0.04,0.97-0.04
			C42.65,68.96,42.24,72.95,43.15,76.91z"/>
		<path class="st76" d="M44.06,63.22c2.92,0,5.85,0,8.77,0C49.92,64.15,46.99,64.03,44.06,63.22z"/>
		<path class="st170" d="M27.06,75.99c-0.08-1.67-0.16-3.33-0.24-5c0.08-1.99,0.16-3.99,0.24-5.98c0.25-0.04,0.5-0.07,0.75-0.07
			c0.21-0.02,0.4,0.02,0.58,0.15c-0.6,3.6-0.7,7.21,0.01,10.81c-0.17,0.1-0.36,0.14-0.56,0.14C27.59,76.02,27.33,76.01,27.06,75.99z
			"/>
		<path class="st171" d="M28.22,64.12c3.23-0.02,6.45-0.05,9.68-0.07c0.16,0.24,0.3,0.5,0.41,0.76c-3.3,0.09-6.6,0.19-9.9,0.28
			c-0.17-0.12-0.37-0.17-0.58-0.15C28,64.69,28.13,64.42,28.22,64.12z"/>
		<path class="st172" d="M38.3,64.82c-0.11-0.27-0.24-0.52-0.41-0.76c0.3-0.07,0.6-0.12,0.91-0.15c1.67,1,1.06,2.66,1.2,4.1
			c0.62,1,0.62,1.99,0,2.99c-0.27,0-0.55,0-0.82,0C38.51,68.99,39.87,66.7,38.3,64.82z"/>
		<path class="st173" d="M40,71c0.62-1,0.62-1.99,0-2.99c0.65-1,1.29-1.99,1.94-2.99c-0.07,1.98-0.14,3.96-0.21,5.94
			C41.15,70.97,40.58,70.99,40,71z"/>
		<path class="st174" d="M44.29,70.27c-0.81-3.16,0.34-4.12,3.74-3.98c3.42,0.14,5.16,0.33,5.2,4.67c0.04,4.52-2.32,3.88-5.15,4.17
			C44,75.53,43.75,73.36,44.29,70.27z"/>
		<path class="st175" d="M76.96,66.23c0.63-0.18,0.91,0.18,1.06,0.72C78.01,67.96,78.01,68.98,78,70c-1.82,1.2-3.64,2.41-4.01,4.82
			c-1.35-0.06-2.7-0.12-4.04-0.18c-0.04-1.52-0.08-3.04-0.12-4.56C72.79,69.87,75.16,68.57,76.96,66.23z"/>
		<path class="st176" d="M76.96,66.23c-1.81,2.34-4.18,3.64-7.13,3.85c-0.23-1.37-0.65-2.76,0.34-4.03
			C72.43,66.1,74.7,66.17,76.96,66.23z"/>
		<path class="st177" d="M73.99,74.82c0.37-2.41,2.19-3.61,4.01-4.82c0.08,1.06-0.16,2.23,0.97,2.96c0,0.68,0.01,1.36,0.01,2.05
			C77.32,74.94,75.65,74.88,73.99,74.82z"/>
		<path class="st178" d="M66,72c0-0.33,0-0.66-0.01-0.99c0-1.33,0-2.67,0-4c0.59-0.33,1.18-0.66,1.78-0.98c0,1.99,0,3.99,0,5.98
			C67.18,71.99,66.59,72,66,72z"/>
		<path class="st179" d="M79.84,64.08c0.17,0.27,0.36,0.52,0.57,0.76c-3.95-0.01-7.9-0.02-11.85-0.03c0.23-0.22,0.43-0.46,0.6-0.72
			C72.72,64.09,76.28,64.09,79.84,64.08z"/>
		<path class="st180" d="M73.99,74.82c1.66,0.06,3.33,0.12,4.99,0.18c-3,1.64-6.02,1.51-9.04,0.06c0,0,0.01-0.43,0.01-0.43
			C71.29,74.7,72.64,74.76,73.99,74.82z"/>
		<path class="st181" d="M66,72c0.59,0,1.18,0,1.77,0c0.1,1.66,0.2,3.32,0.3,4.98c-1.92-0.68-2.15-2.25-2.08-3.97
			C66,72.67,66,72.33,66,72z"/>
		<path class="st179" d="M69.95,74.64c0,0-0.01,0.43-0.01,0.43c-1.38-3.04-1.85-6.06,0.23-9.02c-0.98,1.27-0.57,2.66-0.34,4.03
			C69.87,71.59,69.91,73.11,69.95,74.64z"/>
		<path class="st182" d="M78.97,72.96C77.84,72.23,78.08,71.06,78,70c0.01-1.02,0.02-2.04,0.02-3.06
			C80.43,68.62,78.75,70.94,78.97,72.96z"/>
		<path class="st183" d="M69.17,64.09c-0.17,0.26-0.37,0.5-0.6,0.72c-0.26,0.4-0.52,0.8-0.79,1.21C67.19,66.34,66.59,66.67,66,67
			c0-0.33-0.01-0.66-0.01-0.99c0.43-1.06,1.22-1.74,2.28-2.14C68.58,63.88,68.88,63.96,69.17,64.09z"/>
		<path class="st184" d="M81.21,68.99C81.47,69,81.74,69,82,69c0,1.67-0.01,3.33-0.01,5c-0.26,0.01-0.52,0-0.78-0.02
			C81.21,72.31,81.21,70.65,81.21,68.99z"/>
		<path class="st185" d="M91.8,71.99c0.08-2.32,0.15-4.64,0.23-6.96c0.27-0.04,0.54-0.07,0.81-0.12c1.09,1.7-0.33,3.46,0.13,5.19
			c0.45,1.72-1.08,4.16,1.86,4.94c1.72-0.02,3.44-0.04,5.17-0.07c0.73,0.33,0.94,0.96,0.98,1.7c-2.98,0.1-5.97,0.2-8.95,0.29
			C91.95,75.32,91.87,73.66,91.8,71.99z"/>
		<path class="st186" d="M100.98,76.68c-0.04-0.73-0.25-1.36-0.98-1.7c-0.04-1.01-0.08-2.02-0.11-3.03
			c0.04-1.66,0.09-3.32,0.13-4.98c0.01-0.36,0.02-0.71,0.03-1.07c0.32,0.16,0.64,0.15,0.95-0.03c1.79,0.97,0.68,2.78,1.2,4.12
			c-0.14,2.27-0.28,4.54-0.41,6.8C101.51,76.77,101.24,76.73,100.98,76.68z"/>
		<path class="st187" d="M39.22,87.99c-0.12,0.68-0.23,1.37-0.35,2.05c-0.62-0.34-1.24-0.69-1.86-1.03
			c-0.07-0.39-0.13-0.78-0.2-1.18c0-0.61-0.01-1.22-0.01-1.83c0.04-0.64,0.09-1.27,0.13-1.91c0.06-0.41,0.11-0.82,0.17-1.23
			c0.93-0.21,0.77-0.98,0.83-1.64c0,0,0.48-0.06,0.48-0.06l0.48,0.08c0,0-0.09-0.11-0.09-0.12c0.14,1.92,0.28,3.85,0.42,5.77
			C39.21,87.26,39.21,87.62,39.22,87.99z"/>
		<path class="st188" d="M37.1,82.86c-0.06,0.41-0.11,0.82-0.17,1.23c-0.65-0.08-1.15-1.49-1.94-0.21
			c-1.65-0.06-3.29-0.12-4.94-0.18c-0.44-0.29-0.88-0.58-1.32-0.88C31.53,81.48,34.32,81.51,37.1,82.86z"/>
		<path class="st189" d="M38.89,81.25l-0.48-0.08c0,0-0.48,0.06-0.48,0.06c-3.63-0.04-7.26-0.09-10.88-0.13
			c-0.03-0.86,0.13-1.63,0.95-2.1c0,0,0,0.01,0,0.01c3.16,2.03,6.67,0.54,9.99,1C38.29,80.42,38.59,80.83,38.89,81.25z"/>
		<path class="st190" d="M36.81,87.83c0.07,0.39,0.13,0.78,0.2,1.18c-2.65,1.51-5.35,1.33-8.07,0.2c0.03-0.44,0.06-0.88,0.09-1.33
			c0.65,0.31,1.29,0.62,1.94,0.93C33,89.01,35.05,89.32,36.81,87.83z"/>
		<path class="st191" d="M29.03,87.88c-0.03,0.44-0.06,0.88-0.09,1.33c-1.44-2.09-1.35-4.22-0.21-6.39
			c0.44,0.29,0.88,0.58,1.32,0.88C28.5,84.8,29.2,86.45,29.03,87.88z"/>
		<path class="st192" d="M38.92,76.7c-3.37,2.67-7.31,0.66-10.92,1.34c-0.79-0.61-0.19-0.91,0.28-1.23
			C31.83,76.77,35.38,76.73,38.92,76.7z"/>
		<path class="st171" d="M38.92,76.7c-3.55,0.03-7.1,0.07-10.64,0.1c-0.07-0.29-0.21-0.55-0.42-0.76c0.2,0.01,0.39-0.04,0.56-0.14
			c3.44,0.05,6.89,0.1,10.33,0.15l0.16-0.23l0.26,0.1C38.9,76.13,38.82,76.39,38.92,76.7z"/>
		<path class="st193" d="M81.93,57.89c0.04-1.62,0.08-3.23,0.12-4.85c1.65,2.4,3.69,2.33,5.95,0.96c0.33,0,0.66,0.01,0.99,0.01
			c-0.01,1.33-0.02,2.67-0.02,4C86.63,57.55,84.26,58.78,81.93,57.89z"/>
		<path class="st194" d="M67,57.82c0.36-0.04,0.71-0.08,1.07-0.13c3.95,0.56,7.9,0.51,11.85,0.03c0.29,0.02,0.59,0.04,0.88,0.06
			c0,0,0.05,0.02,0.05,0.02C76.23,59.79,71.61,59.74,67,57.82z"/>
		<path class="st195" d="M88.97,58.01c0.01-1.33,0.02-2.67,0.02-4C89,53.34,89,52.67,89,52c0.27,0,0.54,0,0.81,0
			c0.14,1.97,0.29,3.95,0.43,5.92c-0.01,0.31,0.01,0.62,0.08,0.92C89.88,58.56,89.42,58.29,88.97,58.01z"/>
		<path class="st196" d="M55,81c-0.07,1.32,0,3-1.84,2.88c-4.38-0.29-8.74,1.22-13.11,0.13C40.03,83.01,40.01,82,40,81
			c0,0,0.03,0.01,0.03,0.01C45.02,83.38,50.01,79.83,55,81z"/>
		<path class="st197" d="M54.08,86.9c-3.03,0.03-6.07,0.05-9.1,0.08c-0.03-0.3-0.02-0.6,0.02-0.91c3-0.01,6-0.02,9-0.03
			C54.05,86.32,54.07,86.61,54.08,86.9z"/>
		<path class="st198" d="M54,86.04c-3,0.01-6,0.02-9,0.03C47.99,84.33,50.99,84.39,54,86.04z"/>
		<path class="st199" d="M40,81c0.02,1,0.03,2.01,0.05,3.01c-0.12,1.01,0.18,2.14-0.84,2.89c-0.14-1.92-0.28-3.85-0.42-5.77
			C39.19,81.09,39.6,81.05,40,81z"/>
		<path class="st200" d="M94.83,75.05c-2.94-0.78-1.41-3.22-1.86-4.94c-0.46-1.73,0.96-3.49-0.13-5.19c2.35-1.4,4.68-1.63,6.99,0.09
			c-1.66,0.39-3.96-1.09-4.82,1.64C92.54,69.4,93.56,72.22,94.83,75.05z"/>
		<path class="st201" d="M95.01,66.65c0.86-2.73,3.16-1.25,4.82-1.64c0.14,0.28,0.21,0.58,0.21,0.9c-0.01,0.36-0.02,0.71-0.03,1.07
			c-0.33,0.02-0.65-0.01-0.97-0.09C97.75,65.85,96.29,67.74,95.01,66.65z"/>
		<path class="st202" d="M95,56.86c-0.98,0.04-1.96,0.08-2.94,0.12c-0.42-2.65-0.52-5.3-0.06-7.95c1.58-1.04,0.94-2.63,1.02-4.05
			c2.6-1.1,5.2,0.58,7.8-0.02c0,1.35,0,2.7,0,4.06c-2.57,1.79-5.67,3.14-5.8,6.96C95.01,56.27,95,56.56,95,56.86z"/>
		<path class="st203" d="M95.02,55.98c0.12-3.83,3.22-5.17,5.8-6.96c-0.25,2.61,1.25,5.41-0.87,7.81
			C98.51,55.4,96.67,56.23,95.02,55.98z"/>
		<path class="st204" d="M100.82,44.96c-2.6,0.6-5.2-1.09-7.8,0.02c-0.3-0.32-0.6-0.64-0.89-0.96c-0.06-0.32-0.02-0.62,0.13-0.91
			C95.02,44.14,98.6,41.42,100.82,44.96z"/>
		<path class="st205" d="M92.25,43.1c-0.15,0.29-0.19,0.59-0.13,0.91c-0.68,1.65-0.33,3.33-0.13,5.01
			c-0.46,2.65-0.36,5.31,0.06,7.95C90.33,52.32,89.93,47.69,92.25,43.1z"/>
		<path class="st206" d="M95.02,55.98c1.65,0.25,3.48-0.58,4.93,0.85c-1.65,0.01-3.3,0.02-4.96,0.03
			C95,56.56,95.01,56.27,95.02,55.98z"/>
		<path class="st207" d="M89,52c0,0.67-0.01,1.34-0.01,2.02C88.66,54.01,88.33,54,88,54c-0.17-1.98,0.62-4.85-3.19-3.43
			c-1.52,0.56-1.8-1.1-2.77-1.54c-0.01-1.01-0.01-2.01-0.02-3.02C84.02,47.06,86,45.54,88,46C88.33,48,88.67,50,89,52z"/>
		<path class="st208" d="M88,46c-1.99-0.47-3.98,1.05-5.97,0.01c0-1.33-0.01-2.67-0.01-4C83.62,43.92,88.28,41.26,88,46z"/>
		<path class="st209" d="M69.02,55.95c3.29-0.01,6.58-0.02,9.87-0.03c0.83,0.33,0.99,1.03,1.02,1.81c-3.95,0.48-7.9,0.53-11.85-0.03
			C68.38,57.11,68.7,56.53,69.02,55.95z"/>
		<path class="st210" d="M79.91,57.73c-0.04-0.78-0.19-1.49-1.02-1.81c0.08-1.34,0.16-2.68,0.24-4.02
			c1.86-3.31,0.43-6.89,0.85-10.31c-0.34-0.06-0.51-0.25-0.5-0.6c0.44-0.25,0.88-0.5,1.32-0.75c0,5.85,0.01,11.7,0.01,17.55
			C80.5,57.77,80.21,57.75,79.91,57.73z"/>
		<path class="st211" d="M78.31,41.01c-3.12,1.42-6.25,0.23-9.37,0.03C72.06,39.32,75.18,39.41,78.31,41.01z"/>
		<path class="st212" d="M82.04,49.03c0.96,0.44,1.25,2.1,2.77,1.54c3.82-1.42,3.02,1.45,3.19,3.43c-2.26,1.37-4.3,1.44-5.95-0.96
			C82.05,51.7,82.05,50.37,82.04,49.03z"/>
		<path class="st213" d="M40,71c0.58-0.01,1.15-0.02,1.73-0.04c-0.29,1.95,1.74,5.1-2.57,4.97c0,0-0.26-0.1-0.26-0.1l-0.16,0.23
			c0.47-1.65,1.85-3.23,0.44-5.05C39.45,71,39.73,71,40,71z"/>
		<path class="st62" d="M37.99,80c-3.32-0.46-6.83,1.03-9.99-1C31.32,79.45,34.83,77.96,37.99,80z"/>
		<path class="st214" d="M39.18,71c1.42,1.82,0.03,3.39-0.44,5.05c-3.44-0.05-6.89-0.1-10.33-0.15c-0.72-3.6-0.62-7.2-0.01-10.81
			c3.3-0.09,6.6-0.19,9.9-0.28C39.87,66.7,38.51,68.99,39.18,71z M32.99,66.19c-1.31,0.54-4.02-1.91-3.86,1.8
			c0.01,1,0.02,2,0.03,3.01c-0.05,1.08-0.73,2.32,0.71,3.06c2.12,1.93,4.64,0.48,6.95,0.83c1.92-2.61,1.93-5.26,0.19-7.96
			C35.72,66.42,34.49,65.57,32.99,66.19z"/>
		<path class="st215" d="M95.01,66.65c1.28,1.09,2.74-0.8,4.03,0.23c0.16,1.71-0.59,3.57,0.84,5.08c0.04,1.01,0.08,2.02,0.11,3.03
			c-1.72,0.02-3.44,0.04-5.17,0.07C93.56,72.22,92.54,69.4,95.01,66.65z"/>
		<path class="st216" d="M99.88,71.96c-1.43-1.5-0.68-3.36-0.84-5.08c0.32,0.08,0.64,0.11,0.97,0.09
			C99.96,68.64,99.92,70.3,99.88,71.96z"/>
		<path class="st217" d="M36.81,87.83c-1.75,1.48-3.81,1.18-5.85,0.98c0.12-1.23,0.83-1.8,2.03-1.81c1.27-0.33,2.53-0.66,3.8-1
			C36.8,86.61,36.8,87.22,36.81,87.83z"/>
		<path class="st218" d="M36.79,86c-1.27,0.33-2.53,0.66-3.8,1c0.66-1.04,1.33-2.08,1.99-3.12c0.8-1.28,1.3,0.13,1.94,0.21
			C36.88,84.73,36.84,85.36,36.79,86z"/>
		<path class="st219" d="M34.98,83.88C34.32,84.92,33.66,85.96,33,87c-1.2,0.02-1.91,0.59-2.03,1.81c-0.65-0.31-1.29-0.62-1.94-0.93
			c0.17-1.44-0.53-3.09,1.02-4.19C31.69,83.76,33.34,83.82,34.98,83.88z"/>
		<path class="st220" d="M92,49.02c-0.2-1.68-0.55-3.36,0.13-5.01c0.3,0.32,0.6,0.64,0.89,0.96C92.94,46.39,93.58,47.99,92,49.02z"
			/>
		<path class="st221" d="M79.97,41.59c-0.42,3.43,1,7.01-0.85,10.31C79.4,48.46,77.89,44.88,79.97,41.59z"/>
		<path class="st222" d="M36.82,74.88c-2.31-0.35-4.83,1.1-6.95-0.83c0.71-0.02,1.41-0.04,2.12-0.05c2.37-0.3,2.65-2.18,3.01-3.99
			c0.42-0.02,0.85-0.05,1.27-0.07C37.81,71.44,37.01,73.19,36.82,74.88z"/>
		<path class="st223" d="M32,74c-0.71,0.02-1.41,0.04-2.12,0.05c-1.44-0.74-0.76-1.97-0.71-3.06c2.37,0.22,3.83-1.02,4.82-3.01
			c0,0,0,0,0,0c0.77,0.04,1.53,0.09,2.3,0.13c0,0.61,0,1.22,0,1.82c-0.42,0.02-0.85,0.05-1.27,0.07C33.39,70.87,32.08,71.97,32,74z"
			/>
		<path class="st224" d="M33.98,67.98c-0.99,1.99-2.44,3.23-4.82,3.01c-0.01-1-0.02-2-0.03-3.01
			C30.75,67.99,32.37,67.98,33.98,67.98z"/>
		<path class="st171" d="M36.28,69.94c0-0.61,0-1.22,0-1.82c0.58-0.19,0.88-0.55,0.73-1.19c1.75,2.7,1.74,5.35-0.19,7.96
			C37.01,73.19,37.81,71.44,36.28,69.94z"/>
		<path class="st225" d="M33.98,67.98c-1.61,0-3.23,0-4.84,0.01c-0.17-3.71,2.54-1.26,3.86-1.8C33.32,66.79,33.65,67.39,33.98,67.98
			C33.98,67.98,33.98,67.98,33.98,67.98z"/>
		<path class="st224" d="M33.98,67.98c-0.33-0.6-0.66-1.2-0.99-1.8c1.5-0.62,2.72,0.23,4.01,0.73c0.15,0.64-0.15,1-0.73,1.19
			C35.51,68.07,34.75,68.03,33.98,67.98z"/>
		<path class="st226" d="M32,74c0.08-2.02,1.39-3.13,3.01-3.99C34.65,71.82,34.37,73.7,32,74z"/>
	</g>
</g>
<text transform="matrix(1.4403 0 0 1 9.5225 116.0283)" class="st227 st228 st229">Build by Yingziwo</text>
</svg>
