<?xml version="1.0" encoding="utf-8"?>
<!-- Generator: Adobe Illustrator 25.2.1, SVG Export Plug-In . SVG Version: 6.00 Build 0)  -->
<svg version="1.1" id="图层_1" xmlns="http://www.w3.org/2000/svg" xmlns:xlink="http://www.w3.org/1999/xlink" x="0px" y="0px"
	 viewBox="0 0 100 100" style="enable-background:new 0 0 100 100;" xml:space="preserve">
<style type="text/css">
	.st0{fill:#030202;}
	.st1{fill:#A4ABC4;}
	.st2{fill:#1D0D10;}
	.st3{fill:#100F10;}
	.st4{fill:#939AB3;}
	.st5{fill:#A0A8C2;}
	.st6{fill:#26280B;}
	.st7{fill:#A7AFCA;}
	.st8{fill:#9BA4C0;}
	.st9{fill:#9BA3C0;}
	.st10{fill:#969FBA;}
	.st11{fill:#9BA3BF;}
	.st12{fill:#FAFAFA;}
	.st13{fill:#7C8396;}
	.st14{fill:#C5A8C6;}
	.st15{fill:#AF85B1;}
	.st16{fill:#C09FC0;}
	.st17{fill:#BD9ABD;}
	.st18{fill:#AF81B0;}
	.st19{fill:#B14353;}
	.st20{fill:#A93B51;}
	.st21{fill:#C0A0C0;}
	.st22{fill:#951D4E;}
	.st23{fill:#B692B8;}
	.st24{fill:#C3A6C5;}
	.st25{fill:#91894C;}
	.st26{fill:#AA3B51;}
	.st27{fill:#B84B54;}
	.st28{fill:#CBB1CC;}
	.st29{fill:#9097AD;}
	.st30{fill:#E0D1E1;}
	.st31{fill:#A53251;}
	.st32{fill:#DEC8DD;}
	.st33{fill:#6C5917;}
	.st34{fill:#BD5354;}
	.st35{fill:#70652C;}
	.st36{fill:#DDCBDD;}
	.st37{fill:#D6CBD6;}
	.st38{fill:#9C2A4E;}
	.st39{fill:#FAE1FA;}
	.st40{fill:#7A6C31;}
	.st41{fill:#B793B8;}
	.st42{fill:#B98BBA;}
	.st43{fill:#8B92A9;}
	.st44{fill:#D5BED5;}
	.st45{fill:#D5FEFE;}
	.st46{fill:#7F869A;}
	.st47{fill:#685822;}
	.st48{fill:#33273F;}
	.st49{fill:#56425F;}
	.st50{fill:#B83B59;}
	.st51{fill:#E5C2E5;}
	.st52{fill:#878EA3;}
	.st53{fill:#AD80AE;}
	.st54{fill:#928849;}
	.st55{fill:#C2485B;}
	.st56{fill:#716529;}
	.st57{fill:#E7C6E9;}
	.st58{fill:#5F4D1A;}
	.st59{fill:#CF9ED1;}
	.st60{fill:#DEC3DE;}
	.st61{fill:#554B4A;}
	.st62{fill:#9F1856;}
	.st63{fill:#C9A0CB;}
	.st64{fill:#060A00;}
	.st65{fill:#BE98BF;}
	.st66{fill:#B78AB9;}
	.st67{fill:#D85961;}
	.st68{fill:#E5FEFE;}
	.st69{fill:#B32D5A;}
	.st70{fill:#EECEEF;}
	.st71{fill:#C08FC2;}
	.st72{fill:#BD8EBF;}
	.st73{fill:#FEF6FE;}
	.st74{fill:#040400;}
	.st75{fill:#E2BCE3;}
	.st76{fill:#8C94AA;}
	.st77{fill:#AD235A;}
	.st78{fill:#AA2B56;}
	.st79{fill:#CD9ECF;}
	.st80{fill:#7A8194;}
	.st81{fill:#A4ABC6;}
	.st82{fill:#A6ADC8;}
	.st83{fill:#99A1BD;}
	.st84{fill:#9AA1BD;}
	.st85{fill:#A8AFC9;}
	.st86{fill:#A22E50;}
	.st87{fill:#99254E;}
	.st88{fill:#FEFEAC;}
	.st89{fill:#B84857;}
	.st90{fill:#E55469;}
	.st91{fill:#B894B9;}
	.st92{fill:#B38CB4;}
	.st93{fill:#CFAAD1;}
	.st94{fill:#D8C4D9;}
	.st95{fill:#FAF9FB;}
	.st96{fill:#F7F4F7;}
	.st97{fill:#F6F1F6;}
	.st98{fill:#F3ECF3;}
	.st99{fill:#F7F4F8;}
	.st100{fill:#EDE5ED;}
	.st101{fill:#F2EAF2;}
	.st102{fill:#EADFEA;}
	.st103{fill:#EADEE9;}
	.st104{fill:#EBE0EA;}
	.st105{fill:#F2EBF2;}
	.st106{fill:#F7F3F7;}
	.st107{fill:#3C3A3D;}
	.st108{fill:#E4D7E5;}
	.st109{fill:#201D27;}
	.st110{fill:#CBAFCB;}
	.st111{fill:#CAAECA;}
	.st112{fill:#CDB3CE;}
	.st113{fill:#E2C1E2;}
	.st114{fill:#D4B5D5;}
	.st115{fill:#DEBEDF;}
	.st116{fill:#DFC2E1;}
	.st117{fill:#E2A8E6;}
	.st118{fill:#D9ABDA;}
	.st119{fill:#B793B9;}
	.st120{fill:#B38BB5;}
	.st121{fill:#AE84B0;}
	.st122{fill:#D0A1D3;}
	.st123{fill:#DFB6E0;}
	.st124{fill:#BA97BA;}
	.st125{fill:#B12F58;}
	.st126{fill:#B38CB5;}
	.st127{fill:#B188B2;}
	.st128{fill:#CDB3CD;}
	.st129{fill:#E5C8E5;}
	.st130{fill:#9A914D;}
	.st131{fill:#A0964A;}
	.st132{fill:#D3BCD2;}
	.st133{fill:#C1A2C1;}
	.st134{fill:#D5B4D7;}
	.st135{fill:#DCC9DC;}
	.st136{fill:#E5D9E6;}
	.st137{fill:#D8C4D8;}
	.st138{fill:#D4BDD4;}
	.st139{fill:#695D25;}
	.st140{fill:#DFD0E0;}
	.st141{fill:#D7C3D7;}
	.st142{fill:#FEF2FE;}
	.st143{fill:#CCB2CD;}
	.st144{fill:#EAD5EA;}
	.st145{fill:#A39A56;}
	.st146{fill:#0D0D00;}
	.st147{fill:#766E41;}
	.st148{fill:#C4A8C5;}
	.st149{fill:#E2B9E3;}
	.st150{fill:#D5A4D6;}
	.st151{fill:#F8E2F7;}
	.st152{fill:#EAD6EA;}
	.st153{fill:#010200;}
	.st154{fill:#BE9DBE;}
	.st155{fill:#CFB7CF;}
	.st156{fill:#8F1D4C;}
	.st157{fill:#CAA5CA;}
	.st158{fill:#070615;}
	.st159{fill:#F1EAF1;}
	.st160{fill:#D0B8D1;}
	.st161{fill:#D4BCD4;}
	.st162{fill:#FCEAFD;}
	.st163{fill:#494B45;}
	.st164{fill:#E2CCE2;}
	.st165{fill:#EBD2EB;}
	.st166{fill:#FEF3FE;}
	.st167{fill:#4A484A;}
	.st168{fill:#F8F6F9;}
	.st169{fill:#D0B7D0;}
	.st170{fill:#665F66;}
	.st171{fill:#37353C;}
	.st172{fill:#F6E8F7;}
	.st173{fill:#FDF2FD;}
	.st174{fill:#F8F8F8;}
	.st175{fill:#A79ABD;}
	.st176{fill:#C5B9C7;}
	.st177{fill:#D9C5D9;}
	.st178{fill:#9B8CCB;}
	.st179{fill:#D6BDD6;}
	.st180{fill:#2D2B2D;}
	.st181{fill:#252129;}
	.st182{fill:#E2D0E2;}
	.st183{fill:#B9ABE1;}
	.st184{fill:#E5CAE6;}
	.st185{fill:#201B1B;}
	.st186{fill:#27242D;}
	.st187{fill:#3A3242;}
	.st188{fill:#554D56;}
	.st189{fill:#DCC1DE;}
	.st190{fill:#584960;}
	.st191{fill:#676167;}
	.st192{fill:#F6E0F8;}
	.st193{fill:#DFCFE0;}
	.st194{fill:#FDF0FD;}
	.st195{fill:#EEE3EF;}
	.st196{fill:#C9AECA;}
	.st197{fill:#64546C;}
	.st198{fill:#EECBF0;}
	.st199{fill:#E7C6E7;}
	.st200{fill:#272427;}
	.st201{fill:#201E22;}
	.st202{fill:#B4AEC9;}
	.st203{fill:#9D96C6;}
	.st204{fill:#DCD7EE;}
	.st205{fill:#262626;}
	.st206{fill:#A79DE1;}
	.st207{fill:#E9DEE9;}
	.st208{fill:#EDE4ED;}
	.st209{fill:#434343;}
	.st210{fill:#232323;}
	.st211{fill:#757372;}
	.st212{fill:#E3D7E4;}
	.st213{fill:#F8E5F8;}
	.st214{fill:#0B0C0B;}
	.st215{fill:#AA9DBF;}
	.st216{fill:#C0B1E2;}
	.st217{fill:#9484B2;}
	.st218{fill:#9686B0;}
	.st219{fill:#A99AB9;}
	.st220{fill:#FCF9F4;}
	.st221{fill:#151519;}
	.st222{fill:#B1A8C2;}
	.st223{fill:#9B92C1;}
	.st224{fill:#BDB5C4;}
	.st225{fill:#DBD6D2;}
	.st226{fill:#A79EC2;}
	.st227{fill:#FFD22A;stroke:#FFF035;stroke-width:0.25;stroke-miterlimit:10;}
	.st228{font-family:'AdobeSongStd-Light-GBpc-EUC-H';}
	.st229{font-size:7.6045px;}
</style>
<g>
	<g>
		<path class="st0" d="M43.57,33.16c1.26-0.53,1.56,1.31,2.64,1.15c0.76-0.6,0.29-1.32,0.21-1.89c-1.5-9.75,4.34-15.35,10.48-21.81
			c5.33-5.6,8.99-3.99,13.81-0.93c0.34,0.21,0.71,0.38,1.06,0.57c5.75,2.91,5.86,2.9,5.5-3.73c-0.12-2.16,0.02-3.29,2.58-3.1
			c2.14,0.16,3.75,0.31,3.15,3.17c-0.3,1.42-0.14,2.94-0.22,4.42c-0.16,3.43,0.59,6.22,4.24,7.64c3.65,1.42,3.84,4.93,4.01,8.12
			c0.96,18.44,0.23,36.77-3.76,54.87c-0.11,0.52-0.08,1.07-0.11,1.6c-0.63,0.95-0.94,1.99-0.93,3.13c-0.26,0.57-0.51,1.14-0.77,1.72
			c-1.62,0.04-3.24,0.09-4.86,0.13c-2.05-0.07-4.09-0.14-6.14-0.21c-4.63-0.93-9.3-0.62-13.97-0.59c-2.16-0.01-4.31-0.03-6.47-0.04
			c-1.61,0-3.23,0-4.84-0.01c-0.46-0.06-0.91-0.11-1.37-0.17c-5.81-0.79-11.63-0.68-17.44-0.01c-3.11-0.03-6.22-0.06-9.33-0.09
			c-0.06-0.4-0.13-0.8-0.19-1.2c0.27-0.61,0.53-1.21,0.8-1.82c0.29,0.32,0.57,0.64,0.86,0.96c4.89,0.81,9.76,0.33,14.63-0.13
			c1.52-2,0.31-4.37,0.87-6.5c0,0,0.28,0,0.28,0l0.28,0c0.19,0.61,0.12,1.35,0.87,1.66c0.07,0.77,0.13,1.54,0.2,2.32
			c-0.18,1.71,0.55,2.56,2.29,2.44c0.96,0.25,1.63-0.38,2.37-0.79c0.27,0.01,0.54,0.01,0.81,0.02c0.26,0.28,0.53,0.56,0.79,0.84
			c1.1,0.52,2.27,1.24,2.55-0.81c-0.06-2.96-0.12-5.92-0.18-8.88c0.02-4.11,0.4-8.23-0.56-12.29c-0.25-4.66,0.18-9.36-0.83-13.97
			c-0.02-2.14-0.16-4.29-0.04-6.42c0.12-2.12-0.82-2.84-2.8-2.88c-7.78-0.15-15.53-0.96-23.33-0.48c-2.15,0.13-3.33,0.94-3.64,2.89
			c-0.73,4.64-1.47,9.29-0.26,13.97c0.06,1.25,0.13,2.5,0.19,3.75c0.08,1.65-0.49,3.41,0.74,4.88c0.05,1.08,0.09,2.16,0.14,3.24
			c-0.03,1.31-0.06,2.62-0.09,3.93c-0.25,0.3-0.5,0.59-0.75,0.89c-1.56-8.69-2.55-17.39-2.12-26.27c0.24-5.04,1.51-8.82,6.67-10.54
			c1.22-0.41,2.24-1.42,3.35-2.16c0.01,0.55,0.03,1.11,0.04,1.66c-0.49,0.53-1.24,1.08,0.07,1.52c1.61,0.05,3.21,0.1,4.82,0.15
			c2.14,0.02,4.28,0.05,6.42,0.07c1.61,0.01,3.23,0.03,4.84,0.04c1.28,0.09,2.59,0.4,3.9-0.48c-0.5-1.2-0.98-2.38-1.47-3.56
			L43.57,33.16z M66.19,84.11c1.44-1.77,0.57-3.79,0.61-5.71c0-0.55,0-1.09-0.01-1.64c0-2.15,0.01-4.29,0.01-6.44
			c-0.23-2.44,0.6-3.66,3.31-3.29c1.84,0.25,3.73,0.09,5.6,0.12c0.1,4.8,0.09,9.61,0.35,14.4c0.08,1.43-1.27,4.02,1.66,4.01
			c2.41-0.01,5.8,1.95,6.86-2.33c0.6-1.53,1.1-3.07,1-4.74c1.17-2.1,0.89-4.33,0.59-6.56c0.28-0.55,0.56-1.09,0.83-1.64
			c0.09-0.71,0.17-1.42,0.26-2.13c0.8-1.36,0.63-2.85,0.58-4.33c0.07-0.98,0.13-1.97,0.2-2.95c0.83-2.18,0.64-4.45,0.61-6.71
			c0.03-1.08,0.06-2.16,0.09-3.24c0.19-0.18,0.22-0.39,0.08-0.62c0.85-7.15,0.98-14.31,0.03-21.46c-0.67-2.31,1.62-6.24-3.19-6.32
			c-11.38-0.18-22.77-0.32-34.14,0.56c-2.07,0.16-2.8,0.86-2.83,2.87c-0.1,7.25,0,14.49,0.49,21.72c0.01,0.54,0.02,1.08,0.03,1.62
			C49.2,55.06,49,60.83,49.87,66.55c0.04,0.99,0.09,1.98,0.13,2.97c0.05,2.16,0.1,4.32,0.14,6.48c0.03,2.8-0.48,5.64,0.58,8.37
			c3.22,0.89,6.5,0.49,9.77,0.43C62.4,84.68,64.48,85.96,66.19,84.11z M80.78,6.11c-0.19-0.44-0.48-0.61-0.93-0.32
			c-1.84,1.86-0.34,4.22-0.91,6.28c-0.21,0.75-0.33,1.73,0.82,1.83c1.32,0.11,1.44-0.88,1.34-1.87C80.9,10.05,81.52,8.04,80.78,6.11
			z M76.61,15.36c-0.53-0.29-1.05-0.58-1.58-0.87c-0.54-0.27-1.07-0.54-1.61-0.82c-1.07-0.55-2.14-1.09-3.21-1.64
			c-0.43-0.55-0.96-0.83-1.68-0.66c-0.54-0.27-1.08-0.53-1.62-0.8c-4.48-2.79-4.48-2.79-7.25,1.54c-0.27,0.48-0.55,0.96-0.82,1.44
			c-1.87,0.51-3.85,0.89-4.05,3.4c-1.25,0.72-2.23,1.68-3.2,3.37c2.22-0.11,3.92-0.2,5.63-0.29c0.83,0.01,1.66,0.02,2.49,0.02
			c7.95,0,15.9,0,23.86,0c0.05-0.36,0.1-0.71,0.15-1.07c-1.52-0.74-3.04-1.48-4.56-2.22C78.31,16.31,77.46,15.84,76.61,15.36z
			 M68.57,67.87c-1.68,5.71-0.94,11.43-0.12,17.16c5.91,1.36,6.47,0.97,6.5-4.6c0.01-1.21-0.07-2.41-0.1-3.62
			c0.01-2.17,0.02-4.33,0.02-6.5c-0.02-0.52-0.03-1.05-0.05-1.57C72.92,67.13,70.64,68.22,68.57,67.87z"/>
		<path class="st1" d="M78.35,95.43c-3.21,1.28-6.56,0.63-9.85,0.66c-2.15-1.06-4.29-1.2-6.4,0.12c-8.87,0-17.74,0.01-26.62,0.01
			c-1.56-1.29-3.16-1.2-4.79-0.13c-8.23-0.01-16.33-1.16-24.32-3.07c0.7-0.36,0.87-1,0.87-1.72c1.12-2.31,3.28-2.34,5.39-2.49
			c0.15,0.04,0.29,0.1,0.43,0.17c0.04,0.53-2.5,1.17-0.13,1.48c2.88,0.38,5.84,0.1,8.76,0.11c0.06,0.24,0.12,0.48,0.19,0.72
			c-3.22,0-6.44,0-9.65,0c15.33,0.19,30.51,3.05,45.84,2.47c4.48,1.76,9.15,0.35,13.71,0.81c1.41,1.44,3.17,0.59,4.78,0.73
			C77.15,95.35,77.75,95.39,78.35,95.43z M27.75,94.95c-1.23-0.47-2.05-0.58-2.88,0.02C25.71,95.55,26.52,95.48,27.75,94.95z"/>
		<path class="st1" d="M78.35,95.43c-0.6-0.04-1.19-0.08-1.79-0.12c0.03-0.24,0.05-0.49,0.05-0.73c0.27-0.27,0.54-0.54,0.81-0.81
			c0.27-0.28,0.53-0.56,0.8-0.84l-0.01,0.02c2.28,0.03,4.48-0.12,5.63-2.56c-0.14-1.25,1.44-1.29,1.63-2.32
			c0.26-0.57,0.51-1.14,0.77-1.72c0.19,0.33,0.28,1.4,0.64,0.81c0.65-1.07,0.73-2.49,1.04-3.76c0.66-0.03,1.33-0.11,1.99-0.08
			c0.52,0.02,1.03,0.18,2.12,0.39c-3.6,3.13-3.46,5.71,0.75,7.55c-0.93,3.15,1.76,1.08,2.54,1.77c-2.39,1.01-4.97,1.01-7.48,1.42
			c-1.25-1.09-2.62-0.75-4.09-0.41c0.81,0.88,1.78,0.36,2.61,0.56C83.8,96.01,81.02,95.24,78.35,95.43z"/>
		<path class="st2" d="M24.97,35.42c-0.01-0.55-0.03-1.11-0.04-1.66c-0.01-1.87-0.16-3.76,0.04-5.61c0.09-0.84-1.46-1.97-0.07-2.26
			c1.19-0.25,3.08-1.49,3.93,0.81c-0.52,0.28-1.03,0.55-1.55,0.83c-1.87,1.73-1.83,2.96,0.13,3.98c1.56,0.44,0.51-1.47,1.43-1.6
			c1.79,1.79,2.78-0.34,3.86-0.98c5.45-3.21,8.52-2.09,10.87,4.22c0,0-0.01,0.01-0.01,0.01c-0.27,0.01-0.55,0.02-0.82,0.02
			c-0.45-0.05-0.91-0.11-1.36-0.16c-0.5-0.55-1-1.11-1.51-1.66c-0.09-0.73-0.37-1.3-1.17-1.46c-0.3-1.92-1.23-1.71-2.39-0.72
			c-1.45,0.48-2.92,0.95-3.78,2.37c-1.15,1.32-3.37,0.68-4.32,2.38C26.8,33.71,26.25,35.35,24.97,35.42z"/>
		<path class="st3" d="M17.04,72.73c0.25-0.3,0.5-0.59,0.75-0.89c0.9,0.23,0.76,1.03,0.92,1.67c-0.55,1.28,0.6,2.15,0.77,3.25
			c0.05,1.3-0.33,2.79,1.48,3.28c0.2,1.1-0.19,2.34,0.8,3.24c0.05,0.27,0.01,0.53-0.1,0.78c-0.27,0.61-0.53,1.21-0.8,1.82
			c-0.79-0.01-1.42-0.26-1.64-1.11C18.5,80.76,17.77,76.75,17.04,72.73z"/>
		<path class="st4" d="M19.23,84.78c0.22,0.85,0.84,1.11,1.64,1.11c0.06,0.4,0.13,0.8,0.19,1.2c-0.03,0.33-0.05,0.65-0.08,0.98
			c-2.64,0.3-5.28,0.6-7.91,0.91c-0.14-0.07-0.28-0.13-0.43-0.17C15.24,88.13,16.87,85.85,19.23,84.78z"/>
		<path class="st5" d="M95.31,93.02c-0.77-0.69-3.46,1.38-2.54-1.77c1.77,0.04,3.62-0.38,5.22,1.01
			C97.32,93.47,96.2,92.86,95.31,93.02z"/>
		<path class="st6" d="M27.28,27.54c0.52-0.28,1.03-0.55,1.55-0.83c0,1.07,0,2.14,0.01,3.2c-0.92,0.14,0.14,2.04-1.43,1.6
			C27.37,30.19,27.33,28.87,27.28,27.54z"/>
		<path class="st7" d="M87.91,83.4c-0.32,1.27-0.39,2.7-1.04,3.76c-0.36,0.59-0.45-0.48-0.64-0.81c-0.01-1.14,0.31-2.18,0.93-3.13
			C87.42,83.27,87.67,83.33,87.91,83.4z"/>
		<path class="st8" d="M62.1,96.21c2.11-1.32,4.24-1.19,6.4-0.12C66.36,96.13,64.23,96.17,62.1,96.21z"/>
		<path class="st9" d="M30.7,96.09c1.63-1.07,3.22-1.16,4.79,0.13C33.89,96.17,32.29,96.13,30.7,96.09z"/>
		<path class="st10" d="M7.25,91.29c0,0.72-0.17,1.35-0.87,1.72c-0.62-0.14-1.25-0.29-1.87-0.43C5.2,91.68,6.14,91.31,7.25,91.29z"
			/>
		<path class="st11" d="M86.35,94.6c-0.83-0.2-1.8,0.32-2.61-0.56c1.47-0.34,2.84-0.68,4.09,0.41C87.34,94.5,86.85,94.55,86.35,94.6
			z"/>
		<path class="st12" d="M16.8,56.05c-1.21-4.68-0.47-9.34,0.26-13.97c0.31-1.95,1.49-2.76,3.64-2.89c7.8-0.49,15.56,0.33,23.33,0.48
			c1.98,0.04,2.92,0.77,2.8,2.88c-0.12,2.13,0.01,4.28,0.04,6.42c-0.63,3.05,0.7,6.26-0.76,9.24c-0.07-1.32-0.13-2.63-0.2-3.95
			c0.01-1.64,0.02-3.28,0.02-4.93c0-0.81,0-1.62,0.01-2.43c0-0.54,0-1.08,0-1.62c-0.61-1.18-1-2.64-2.8-2.36
			c-7.55,1.18-15.2,0.79-22.78,1.53c-1.58,0.15-2.51,0.79-2.63,2.43c0,0.27,0,0.54,0,0.81c0,0.27,0.01,0.55,0.01,0.82
			c0,0.54,0.01,1.08,0.01,1.62c0,1.08,0,2.15,0.01,3.23c-0.02,0.26-0.03,0.53-0.05,0.79C17.01,54.59,16.93,55.32,16.8,56.05z"/>
		<path class="st13" d="M85.46,88.06c-0.18,1.03-1.76,1.06-1.63,2.32c-1.93,0.36-3.46,1.98-5.56,1.78
			c-1.58-0.98-3.34-0.84-5.08-0.83c-12.31,0.09-24.61,0.06-36.9-0.83c-0.7-0.05-1.68,0.3-1.9-0.99c1.4-1.14,3.05-0.39,4.55-0.6
			c2.59-0.37,5.33,0.78,7.81-0.78c0.81-0.02,1.62-0.03,2.44-0.05c1.61,0,3.23,0.01,4.84,0.01c3.01-0.3,5.85,1.3,8.88,0.8
			c5.89-0.39,11.85,0.91,17.7-0.7C82.23,88.15,83.85,88.11,85.46,88.06z"/>
		<path class="st14" d="M75.7,67.15c-1.87-0.03-3.76,0.13-5.6-0.12c-2.7-0.37-3.54,0.84-3.31,3.29c-0.49,0-0.98,0-1.47,0l-0.01,0
			c0.09-1.62-0.52-2.55-2.28-2.42c-2.5,0.17-5.07-0.49-7.48,0.47c-2.35,0.93-3.73,0.01-4.67-2.07c0-1.07-0.01-2.13-0.01-3.2
			c1.84,2.64,4.17,1.21,6.37,0.76c3.48-0.46,7.13,1.09,10.47-0.9c-0.01-0.26,0.04-0.5,0.17-0.73c0.22,0.01,0.43,0.01,0.65,0.01
			c2.06,3.54,4.91-0.05,7.26,0.8c0.26,0,0.52,0,0.78,0.02c2.56,1.63,5.39,0.45,8.08,0.78c-2.75,1.7-6.08,0.16-8.87,1.63
			c-2.63,0-5.27,0-7.9,0c0,0.27,0.01,0.54,0.01,0.8c2.63,0,5.26,0,7.89,0c0.27,0.26,0.54,0.52,0.81,0.79l0,0.02
			C76.31,67.11,76.01,67.13,75.7,67.15z"/>
		<path class="st15" d="M37.15,84.91c-4.87,0.45-9.75,0.93-14.63,0.13c0.02-0.16,0.06-0.32,0.12-0.48c2.38,0,4.75,0,7.13,0
			c0-0.13,0-0.26,0-0.39c-2.39,0-4.79,0-7.18,0c0-0.84,0.01-1.69,0.01-2.53c3.04-1.53,6.29-0.64,9.44-0.75
			c1.68-0.06,3.15-0.22,4.2-1.66c0.13,0.81-0.16,1.74,0.72,2.32C37.03,82.66,37.09,83.79,37.15,84.91z"/>
		<path class="st16" d="M50.89,66.3c0.94,2.08,2.32,3,4.67,2.07c2.42-0.96,4.99-0.29,7.48-0.47c1.76-0.12,2.37,0.81,2.28,2.42
			c-3.53,0.27-7.05,0.74-10.58,0.74c-2.51,0-3.43,0.92-3.13,3.3c0,1.08,0.01,2.16,0.01,3.24c0.01,0.81,0.01,1.63,0.02,2.44
			c-0.02,1.07-0.04,2.13-0.05,3.2c-0.24-0.01-0.48-0.04-0.72-0.07c-0.43-2.37,0.66-4.9-0.73-7.17c-0.05-2.16-0.1-4.32-0.14-6.48
			C51.2,68.7,50.67,67.39,50.89,66.3z"/>
		<path class="st17" d="M51.61,74.37c-0.3-2.39,0.62-3.3,3.13-3.3c3.53,0,7.05-0.47,10.58-0.74c0,0,0.01,0,0.01,0
			c0.49,2.15,0.97,4.29,1.46,6.44c0,0.55,0,1.09,0.01,1.64c-0.22,0-0.45,0-0.67,0.01c-0.65-0.35-0.79-0.96-0.8-1.62
			c0.52-2.79-0.47-3.48-3.36-3.36C58.49,73.57,55.07,74.07,51.61,74.37z"/>
		<path class="st18" d="M75.7,67.15c0.3-0.02,0.61-0.04,0.91-0.06c0.04,0.32,0.09,0.65,0.13,0.97c0.01,1.5,0.02,3,0.03,4.5
			c-0.01,0.92-0.01,1.85-0.02,2.77c0.04,2.33,0.07,4.65,0.11,6.98c0.16-0.1,0.35-0.17,0.48-0.3c0.08-0.08,0.06-0.25,0.09-0.38
			c2.37,1.65,4.37,0.24,6.41-0.8c0.05,0.86-0.14,1.79,0.73,2.39c-1.07,4.28-4.45,2.33-6.86,2.33c-2.93,0.01-1.58-2.59-1.66-4.01
			C75.8,76.76,75.8,71.95,75.7,67.15z"/>
		<path class="st19" d="M57.22,20.05c-1.7,0.09-3.4,0.18-5.63,0.29c0.97-1.69,1.95-2.64,3.2-3.37c1.09-0.54,2.18-1.08,3.27-1.62
			c4.22,0.62,7.58-1.05,10.47-3.96c0.71-0.17,1.25,0.11,1.68,0.66c-0.69,1.94-2.15,2.8-4.05,3.49c-2.47,0.89-5.29,1.02-7.28,3.06
			c-1.09,0-2.18,0-3.93,0C56.16,19.37,56.69,19.71,57.22,20.05z"/>
		<path class="st20" d="M38.71,29.91c0.8,0.16,1.08,0.74,1.17,1.46c-2.32,2-6.2,1.61-7.61,4.99c-0.86,0.04-1.79-0.14-2.4,0.73
			c-1.61-0.05-3.21-0.1-4.82-0.15c0.66-1.42,4.85,0.89,3.17-3.01c0.95-1.69,3.17-1.05,4.32-2.38c1.84,0.85,2.85-0.26,3.75-1.61
			C37.1,29.94,37.9,29.92,38.71,29.91z"/>
		<path class="st21" d="M76.75,68.06c-0.04-0.32-0.09-0.65-0.13-0.97c0,0,0-0.02,0-0.02c3.15-1.1,6.43-0.74,9.67-0.78
			c0.2,1.34-0.49,2.85,0.73,4.01c-0.28,0.55-0.56,1.09-0.83,1.64c-0.23,0.01-0.46,0.01-0.69,0.01c-0.21-1.83-1.13-2.79-2.98-2.09
			c-1.77,0.67-3.4,0.6-5.03-0.31C77.4,68.96,77.41,68.35,76.75,68.06z"/>
		<path class="st22" d="M79.15,16.78c1.52,0.74,3.04,1.48,4.55,2.22c-0.05,0.36-0.1,0.71-0.15,1.07c-7.95,0-15.9,0-23.86,0
			c1.75-1.27,3.75-0.39,5.62-0.68c3.48-0.45,7.1,0.93,10.48-0.8c0.27-0.54,0.54-1.08,0.81-1.62C77.45,16.75,78.39,17.98,79.15,16.78
			z"/>
		<path class="st23" d="M85.48,71.94c0.23,0,0.46,0,0.69-0.01c0.29,2.23,0.58,4.46-0.59,6.56c0,0-0.14-0.12-0.14-0.12
			c0.01-0.53,0.02-1.06,0.04-1.59c-0.8-1.65-2.18-1.92-3.69-1.3c-1.43,0.58-2.87,0.46-4.32,0.52c-0.23-0.22-0.47-0.43-0.7-0.65
			c0.01-0.92,0.01-1.85,0.02-2.77c0.19,0.11,0.39,0.16,0.6,0.16C80.21,73.77,82.88,73.29,85.48,71.94z"/>
		<path class="st24" d="M86.28,66.28c-3.24,0.04-6.51-0.32-9.67,0.78c-0.27-0.26-0.54-0.53-0.81-0.79c0.01-0.27,0.01-0.54,0-0.8
			c2.79-1.46,6.13,0.07,8.87-1.63c-0.03-0.32-0.07-0.63-0.1-0.95c0.31-0.22,0.62-0.43,0.93-0.65c0.52-0.8,1.03-1.59,1.55-2.39
			c0.25,1.33-0.48,2.85,0.79,3.98c0.06,1.48,0.23,2.97-0.58,4.33C86.67,67.67,87.79,66.28,86.28,66.28z"/>
		<path class="st25" d="M74.82,68.73c0.02,0.52,0.03,1.05,0.05,1.57c-0.78,0.66-0.67,1.57-0.68,2.44c-2.71,1.71-2.64,5.25-4.79,7.32
			c-0.24-0.26-0.48-0.53-0.72-0.79c-0.24-1.22,0.13-2.3,0.73-3.34c2.4-1.5-0.32-5.55,3.21-6.49C73.35,69.22,74.09,68.97,74.82,68.73
			z"/>
		<path class="st26" d="M58.88,18.59c1.99-2.04,4.81-2.17,7.28-3.06c1.9-0.68,3.36-1.55,4.05-3.49c1.07,0.55,2.14,1.09,3.21,1.64
			c-2.58,2.94-6.97,2.29-9.71,4.91C62.1,18.59,60.49,18.59,58.88,18.59z"/>
		<path class="st27" d="M68.53,11.38c-2.89,2.92-6.25,4.59-10.47,3.96c0.26-0.59,0.52-1.18,0.78-1.77c0.27-0.48,0.55-0.96,0.82-1.44
			c2.77,1.17,5.14,0.41,7.25-1.54C67.45,10.85,67.99,11.11,68.53,11.38z"/>
		<path class="st28" d="M17.88,67.92c-0.05-1.08-0.09-2.16-0.14-3.24l0.06-0.2c1.89,0.62,3.78,1.25,5.67,1.87
			c-0.07,1.06-0.14,2.12-0.2,3.19c-1.03,0.9-0.56,2.12-0.69,3.21c-1.37-0.76-1.08-3.16-3.16-3.21
			C19.33,68.59,18.92,67.95,17.88,67.92z"/>
		<path class="st29" d="M49.19,88.09c-0.81,0.02-1.62,0.03-2.44,0.05c-5.1,0-10.2,0-15.3,0c-3.5-0.01-7-0.01-10.5-0.02l0.02-0.05
			c0.03-0.33,0.05-0.65,0.08-0.98c3.11,0.03,6.22,0.06,9.33,0.09c5.81,0,11.63,0,17.44,0.01c0.46,0.06,0.91,0.11,1.37,0.17
			C49.19,87.6,49.19,87.84,49.19,88.09z"/>
		<path class="st30" d="M49.18,47.69c1.51-1.39,0.53-3.23,0.86-4.83c0.25-0.01,0.51-0.02,0.76-0.02c-0.33,4.57,2.25,2.08,3.98,1.64
			c0.02,1.06,0.04,2.11,0.07,3.17c-0.8,1.91-2.48,1.64-4.05,1.65c-0.53,0-1.06,0-1.59,0C49.2,48.77,49.19,48.23,49.18,47.69z"/>
		<path class="st31" d="M63.71,18.59c2.74-2.62,7.13-1.97,9.71-4.91c0.54,0.27,1.07,0.54,1.61,0.82c-1.41,2.56-4.28,2.79-6.48,4.09
			c-1.08,0-2.16,0.01-3.23,0.01C64.78,18.59,64.25,18.59,63.71,18.59z"/>
		<path class="st32" d="M49.22,49.31c0.53,0,1.06,0,1.59,0c0,0.81,0,1.62,0,2.43c0,1.08,0,2.16,0.01,3.24
			c0,0.81-0.01,1.61-0.01,2.42c-1.75,2.91-0.22,6.15-0.94,9.16C49,60.83,49.2,55.06,49.22,49.31z"/>
		<path class="st33" d="M74.85,76.81c0.04,1.21,0.11,2.41,0.1,3.62c-0.03,5.57-0.58,5.96-6.5,4.6c0.08-0.13,0.17-0.26,0.27-0.38
			c0.15,0.1,0.32,0.15,0.5,0.14c0.93,0.05,1.9,0.25,2.54-0.71c0.81-2.16,1.62-4.32,2.43-6.48C74.41,77.33,74.63,77.07,74.85,76.81z"
			/>
		<path class="st34" d="M66.91,10.58c-2.11,1.96-4.48,2.71-7.25,1.54C62.43,7.8,62.43,7.8,66.91,10.58z"/>
		<path class="st35" d="M69.41,75.94c-0.6,1.03-0.98,2.12-0.74,3.34c0.01,1.79,0.03,3.57,0.05,5.36c-0.09,0.12-0.18,0.25-0.27,0.38
			c-0.83-5.73-1.56-11.45,0.11-17.16c0.27,0.42,0.53,0.84,0.8,1.26C69.42,71.4,68.67,73.68,69.41,75.94z"/>
		<path class="st36" d="M17.74,64.68c-1.24-1.48-0.66-3.23-0.74-4.88c0.93-0.57,0.7-1.53,0.8-2.38c1.99,2.05,3.5,1.27,4.77-0.83
			c0.02,0.54,0.05,1.07,0.07,1.61c-0.04,0.55-0.08,1.09-0.11,1.64c-1.08,1.21-3.65-0.06-3.98,2.4c-0.25,0.75-0.5,1.51-0.74,2.26
			L17.74,64.68z"/>
		<path class="st37" d="M88.82,50.31c-0.37-7.15-0.33-14.31,0.03-21.46C89.8,36.01,89.67,43.16,88.82,50.31z"/>
		<path class="st38" d="M68.55,18.59c2.2-1.3,5.07-1.53,6.48-4.09c0.53,0.29,1.05,0.58,1.58,0.87c0,0.54,0,1.07,0,1.61
			c-0.27,0.54-0.54,1.08-0.81,1.62C73.38,18.59,70.97,18.59,68.55,18.59z"/>
		<path class="st39" d="M46.12,58.2c1.46-2.98,0.14-6.19,0.76-9.24c1.01,4.61,0.57,9.31,0.83,13.97c-0.11,0.49-0.22,0.98-0.33,1.48
			c-0.7-0.2-0.54-0.82-0.62-1.31c-0.25-0.28-0.5-0.56-0.74-0.84C46.05,60.9,46.08,59.55,46.12,58.2z"/>
		<path class="st40" d="M39.63,82.39c-0.07-0.77-0.13-1.54-0.2-2.32c1.5-0.59,1.81-2.09,2.51-3.3c0.95-0.6,0.76-1.58,0.81-2.48
			c0.21,0,0.43,0.01,0.64,0.01c1.11,1.17,0.93,2.68,1.08,4.11c-0.08,0.53-0.17,1.05-0.25,1.58c-0.6-0.41-0.99-1.63-1.97-0.28
			C41.54,80.72,40.52,81.51,39.63,82.39z"/>
		<path class="st41" d="M47.38,64.4c0.11-0.49,0.22-0.98,0.33-1.48c0.96,4.06,0.58,8.18,0.56,12.29c-1.04,0.88-0.57,2.08-0.69,3.16
			c-0.5-0.51-0.99-1.03-1.49-1.54c0-0.58,0-1.16,0-1.73c1.71-1.49,1.44-3.48,1.38-5.43c-0.01-1.15-0.03-2.3-0.04-3.45
			C47.41,65.62,47.39,65.01,47.38,64.4z"/>
		<path class="st42" d="M50.87,83.17c0.24,0.04,0.48,0.06,0.72,0.07c2.92,0.74,6.08-1.08,8.89,0.83c0,0.24,0,0.49,0,0.73
			c-3.27,0.06-6.55,0.46-9.77-0.43C50.77,83.97,50.82,83.57,50.87,83.17z"/>
		<path class="st43" d="M80.61,88.2c-5.85,1.62-11.81,0.31-17.7,0.7c0-0.26,0-0.52,0-0.78c3.85-0.04,7.71-0.09,11.56-0.13
			C76.51,88.06,78.56,88.13,80.61,88.2z"/>
		<path class="st44" d="M87.96,50.88c0.26,0,0.52,0.02,0.78,0.05c-0.03,1.08-0.06,2.16-0.09,3.24c-0.52,0.54-1.03,1.07-1.55,1.61
			c-0.53,0.27-1.06,0.54-1.59,0.81c-0.24-1.36,0.54-2.92-0.81-4.06c-0.01-0.26-0.03-0.52-0.06-0.79
			C85.84,51.85,86.93,51.47,87.96,50.88z"/>
		<path class="st45" d="M80.78,6.11c0.74,1.93,0.12,3.94,0.32,5.91c0.1,0.99-0.02,1.99-1.34,1.87c-1.14-0.1-1.02-1.08-0.82-1.83
			c0.57-2.06-0.93-4.41,0.91-6.28c0,1.79,0,3.59,0,5.38c0.22-0.01,0.44-0.01,0.65-0.02C80.59,9.47,80.68,7.79,80.78,6.11z"/>
		<path class="st46" d="M47.82,87.19c-5.81,0-11.63,0-17.44-0.01C36.2,86.5,42.01,86.39,47.82,87.19z"/>
		<path class="st47" d="M39.63,82.39c0.89-0.88,1.91-1.67,2.63-2.67c0.97-1.35,1.37-0.13,1.97,0.28c0.01,0.27,0.02,0.55,0.03,0.82
			c-2.17,0.53-2.22,2.29-2.34,4.01C40.18,84.95,39.45,84.1,39.63,82.39z"/>
		<path class="st13" d="M74.47,87.99c-3.85,0.04-7.71,0.09-11.56,0.13c-0.86-0.05-1.79,0.13-2.41-0.72
			C65.16,87.37,69.84,87.06,74.47,87.99z"/>
		<path class="st48" d="M46.09,75.1c0,0.58,0,1.16,0,1.73c0.01,1.57,0.01,3.15,0.02,4.72c-0.07,1.12-0.14,2.23-0.21,3.35
			c-0.26-0.28-0.53-0.56-0.79-0.84c-0.01-1.88-0.01-3.77-0.02-5.65c0-2.16-0.01-4.33-0.01-6.49c0.04-0.26,0.07-0.52,0.08-0.79
			c0.3,0.27,0.61,0.54,0.91,0.81C46.08,73,46.08,74.05,46.09,75.1z"/>
		<path class="st49" d="M37.15,84.91c-0.06-1.12-0.13-2.25-0.19-3.37c0-1.59,0-3.17,0-4.76C36.98,75.19,36.99,73.6,37,72
			c0.06-0.28,0.13-0.56,0.19-0.83l0.36-0.07c0,0,0.36,0.04,0.36,0.04c0.02,0.27,0.06,0.53,0.13,0.79c-0.01,2.16-0.01,4.32-0.02,6.48
			C37.46,80.54,38.67,82.91,37.15,84.91z"/>
		<path class="st50" d="M63.71,18.59c0.54,0,1.07,0,1.61,0.01c0,0.27,0,0.53,0,0.8c-1.87,0.29-3.87-0.59-5.62,0.68
			c-0.83-0.01-1.66-0.02-2.49-0.02c-0.53-0.34-1.06-0.68-2.27-1.46c1.75,0,2.84,0,3.93,0C60.49,18.59,62.1,18.59,63.71,18.59z"/>
		<path class="st51" d="M49.87,66.55c0.71-3.01-0.81-6.25,0.94-9.16c0.01,0.27,0.01,0.54,0.02,0.81c0.01,1.08,0.02,2.16,0.03,3.24
			c0.01,0.55,0.02,1.11,0.03,1.66c0,1.07,0,2.13,0.01,3.2c-0.22,1.09,0.32,2.4-0.89,3.22C49.95,68.53,49.91,67.54,49.87,66.55z"/>
		<path class="st52" d="M60.5,87.4c0.62,0.85,1.55,0.67,2.41,0.72c0,0.26,0,0.52,0,0.78c-3.03,0.5-5.87-1.1-8.88-0.8
			c0-0.25,0-0.49,0-0.74C56.18,87.38,58.34,87.39,60.5,87.4z"/>
		<path class="st53" d="M45.89,84.91c0.07-1.12,0.14-2.23,0.21-3.35c0.49-0.5,0.98-1,1.47-1.5c0.22,1.36-0.54,2.94,0.88,4.04
			C48.16,86.15,46.99,85.43,45.89,84.91z"/>
		<path class="st54" d="M41.95,76.78c-0.7,1.2-1.01,2.7-2.51,3.3c-0.75-0.31-0.68-1.06-0.87-1.66c0.09-0.28,0.19-0.56,0.28-0.84
			c1.61-0.12,1.44-1.36,1.51-2.44C41.36,75.23,41.92,75.75,41.95,76.78z"/>
		<path class="st55" d="M28.22,33.94c1.68,3.9-2.51,1.58-3.17,3.01c-1.32-0.45-0.57-0.99-0.07-1.52
			C26.25,35.35,26.8,33.71,28.22,33.94z"/>
		<path class="st56" d="M74.85,76.81c-0.22,0.26-0.44,0.52-0.66,0.79c-0.54,0.27-1.07,0.54-1.61,0.81c0.28-1.96,2.25-3.44,1.61-5.66
			c0.01-0.87-0.1-1.78,0.68-2.44C74.86,72.47,74.85,74.64,74.85,76.81z"/>
		<path class="st57" d="M17.88,67.92c1.04,0.04,1.45,0.67,1.53,1.62c-0.02,1.07-0.03,2.14-0.05,3.2c-0.22,0.26-0.44,0.52-0.66,0.77
			c-0.16-0.64-0.02-1.44-0.92-1.67C17.81,70.54,17.85,69.23,17.88,67.92z"/>
		<path class="st58" d="M41.93,84.83c0.12-1.72,0.17-3.49,2.34-4.01c0.01,1.07,0.02,2.15,0.03,3.22
			C43.55,84.45,42.89,85.08,41.93,84.83z"/>
		<path class="st59" d="M48.45,84.1c-1.42-1.1-0.66-2.68-0.88-4.04c0-0.56,0-1.12,0-1.67c0.12-1.08-0.35-2.29,0.69-3.16
			C48.33,78.18,48.39,81.14,48.45,84.1z"/>
		<path class="st60" d="M87.09,55.78c0.52-0.54,1.03-1.07,1.55-1.61c0.04,2.26,0.23,4.53-0.61,6.71c-0.4-1.13,0.23-2.54-0.92-3.47
			C87.11,56.86,87.1,56.32,87.09,55.78z"/>
		<path class="st61" d="M69.36,69.12c-0.27-0.42-0.53-0.84-0.8-1.26c2.08,0.35,4.35-0.74,6.25,0.87c-0.74,0.24-1.47,0.48-2.21,0.72
			C71.59,68.73,70.47,69.03,69.36,69.12z"/>
		<path class="st62" d="M42.75,33.19c0.27-0.01,0.55-0.02,0.82-0.02c0.49,1.18,0.97,2.36,1.47,3.56c-1.31,0.88-2.62,0.57-3.9,0.48
			c0-0.28-0.01-0.55-0.01-0.83c0.96-0.11,2.55,0.41,1.61-1.61C42.74,34.25,42.74,33.72,42.75,33.19z"/>
		<path class="st63" d="M66.79,76.76c-0.49-2.15-0.97-4.29-1.46-6.44c0.49,0,0.98,0,1.47,0C66.8,72.47,66.8,74.61,66.79,76.76z"/>
		<path class="st64" d="M38.85,77.57c-0.09,0.28-0.19,0.56-0.28,0.84c0,0-0.28,0-0.28,0s-0.28,0-0.28,0
			c0.01-2.16,0.01-4.32,0.02-6.48c0.64,0.04,1.19,0.22,1.49,0.85C38.32,74.24,38.68,75.92,38.85,77.57z"/>
		<path class="st65" d="M50.87,83.17c-0.05,0.4-0.1,0.8-0.16,1.2c-1.06-2.73-0.55-5.57-0.58-8.37
			C51.53,78.27,50.44,80.8,50.87,83.17z"/>
		<path class="st66" d="M84.58,83.23c-0.87-0.61-0.69-1.53-0.73-2.39c0.01-0.27,0.01-0.54,0.02-0.81c0.53-0.55,1.05-1.1,1.58-1.66
			c0,0,0.14,0.12,0.14,0.12C85.67,80.16,85.17,81.71,84.58,83.23z"/>
		<path class="st67" d="M58.84,13.57c-0.26,0.59-0.52,1.18-0.78,1.77c-1.09,0.54-2.18,1.08-3.27,1.62
			C54.99,14.46,56.97,14.08,58.84,13.57z"/>
		<path class="st68" d="M80.78,6.11c-0.09,1.68-0.18,3.36-0.28,5.04c-0.22,0.01-0.44,0.01-0.65,0.02c0-1.79,0-3.59,0-5.38
			C80.29,5.5,80.58,5.66,80.78,6.11z"/>
		<path class="st69" d="M29.87,37.09c0.61-0.87,1.54-0.69,2.4-0.73c1.08,0,2.15,0,3.23,0c0.27,0,0.53,0.01,0.8,0.01
			c0,0.26,0,0.52,0,0.78C34.15,37.14,32.01,37.12,29.87,37.09z"/>
		<path class="st70" d="M87.12,57.41c1.15,0.93,0.52,2.34,0.92,3.47c-0.07,0.98-0.13,1.97-0.2,2.95c-1.28-1.12-0.54-2.65-0.79-3.98
			C87.07,59.04,87.1,58.22,87.12,57.41z"/>
		<path class="st71" d="M60.49,84.8c0-0.24,0-0.49,0-0.73c1.87-0.01,3.74-0.02,5.61-0.04l0.1,0.08
			C64.48,85.96,62.4,84.68,60.49,84.8z"/>
		<path class="st72" d="M66.13,78.4c0.22,0,0.45,0,0.67-0.01c-0.04,1.92,0.83,3.94-0.61,5.71c0,0-0.1-0.08-0.1-0.08
			c0.02-0.26,0.03-0.52,0.03-0.78C66.13,81.64,66.13,80.02,66.13,78.4z"/>
		<path class="st73" d="M17.79,57.41c-0.1,0.85,0.13,1.81-0.8,2.38c-0.06-1.25-0.13-2.5-0.19-3.75c0.12-0.72,0.21-1.46,0.92-1.89
			c0.02,0.81,0.03,1.62,0.05,2.43C17.78,56.86,17.79,57.14,17.79,57.41z"/>
		<path class="st74" d="M44.3,84.04c-0.01-1.07-0.02-2.15-0.03-3.22c-0.01-0.27-0.02-0.55-0.03-0.82c0.08-0.53,0.16-1.05,0.25-1.58
			c0,0,0.3,0,0.3,0s0.3,0,0.3,0c0.01,1.88,0.02,3.77,0.02,5.65C44.84,84.05,44.57,84.05,44.3,84.04z"/>
		<path class="st75" d="M86.28,66.28c1.52,0,0.39,1.39,0.99,1.88c-0.09,0.71-0.17,1.42-0.26,2.13
			C85.79,69.13,86.48,67.62,86.28,66.28z"/>
		<path class="st76" d="M54.03,87.36c0,0.25,0,0.49,0,0.74c-1.61,0-3.23-0.01-4.84-0.01c0-0.24,0-0.49,0-0.73
			C50.8,87.36,52.42,87.36,54.03,87.36z"/>
		<path class="st77" d="M36.29,37.16c0-0.26,0-0.52,0-0.78c0.54-0.01,1.09-0.02,1.63-0.02c1.07,0.01,2.13,0.01,3.2,0.02
			c0,0.28,0.01,0.55,0.01,0.83C39.52,37.19,37.9,37.18,36.29,37.16z"/>
		<path class="st78" d="M76.61,16.98c0-0.54,0-1.07,0-1.61c0.85,0.47,1.69,0.94,2.54,1.42C78.39,17.98,77.45,16.75,76.61,16.98z"/>
		<path class="st79" d="M22.6,81.64c0,0.84-0.01,1.69-0.01,2.53c0,0,0.05,0.39,0.05,0.39c-0.06,0.15-0.1,0.31-0.12,0.48
			c-0.29-0.32-0.57-0.64-0.86-0.96c0.11-0.25,0.14-0.51,0.1-0.78C22.19,82.82,21.04,81.53,22.6,81.64z"/>
		<path class="st80" d="M31.45,88.14c5.1,0,10.2,0,15.3,0c-2.47,1.56-5.22,0.41-7.81,0.78c-1.5,0.21-3.15-0.54-4.55,0.6
			c0.22,1.29,1.2,0.94,1.9,0.99c12.29,0.88,24.59,0.92,36.9,0.83c1.74-0.01,3.5-0.15,5.08,0.83c-0.03,0.26-0.05,0.52-0.07,0.78
			c0,0,0.01-0.02,0.01-0.02c-5.65-0.01-11.3-0.02-16.95-0.03c-3.71-1.56-7.58-0.41-11.36-0.7c-1.86-0.03-3.71-0.06-5.57-0.09
			c-2.32-1.53-4.89-0.46-7.33-0.72c-1.85-0.03-3.7-0.06-5.55-0.09c-3.16-1.57-6.51-0.41-9.76-0.72c-2.93-0.01-5.89,0.27-8.76-0.11
			c-2.37-0.31,0.18-0.95,0.13-1.48c2.64-0.3,5.28-0.6,7.91-0.9c0,0-0.02,0.05-0.02,0.05c-0.13,0.85-1.57,0.42-1.48,1.6
			c2.97,0,5.9,0.03,8.84-0.01C29.57,89.69,31.13,90.13,31.45,88.14z"/>
		<path class="st81" d="M61.26,92.89c5.65,0.01,11.3,0.02,16.95,0.03c-0.27,0.28-0.53,0.56-0.8,0.84c-6.45,0-12.9,0-19.35,0
			c-15.33,0.57-30.51-2.28-45.84-2.47c3.22,0,6.44,0,9.65,0c2.66,0.03,5.33,0.07,7.99,0.1c2.32,1.52,4.89,0.45,7.33,0.72
			c1.85,0.03,3.7,0.07,5.55,0.1c2.33,1.49,4.9,0.45,7.34,0.71C53.81,92.91,57.54,92.9,61.26,92.89z"/>
		<path class="st82" d="M58.06,93.76c6.45,0,12.9,0,19.35,0c-0.27,0.27-0.54,0.54-0.81,0.81c-1.61,0-3.22,0-4.83,0
			C67.22,94.12,62.55,95.53,58.06,93.76z"/>
		<path class="st13" d="M29.86,91.39c-2.66-0.03-5.33-0.07-7.99-0.1c-0.06-0.24-0.12-0.48-0.18-0.72c3.25,0.31,6.61-0.85,9.76,0.72
			C30.92,91.32,30.39,91.36,29.86,91.39z"/>
		<path class="st83" d="M71.78,94.57c1.61,0,3.22,0,4.83,0c0,0.24-0.01,0.49-0.05,0.73C74.95,95.16,73.19,96.01,71.78,94.57z"/>
		<path class="st84" d="M27.75,94.95c-1.23,0.52-2.04,0.59-2.88,0.02C25.7,94.38,26.52,94.48,27.75,94.95z"/>
		<path class="st85" d="M78.2,92.94c0.02-0.26,0.04-0.52,0.07-0.78c2.11,0.19,3.63-1.42,5.56-1.78
			C82.68,92.82,80.48,92.98,78.2,92.94z"/>
		<path class="st86" d="M35.49,36.37c-1.08,0-2.15,0-3.23,0c1.42-3.38,5.29-3,7.62-4.99c0.5,0.55,1.01,1.11,1.51,1.66
			C39.11,33.59,37.31,35.01,35.49,36.37z"/>
		<path class="st87" d="M35.49,36.37c1.83-1.36,3.62-2.78,5.9-3.34c0.46,0.05,0.91,0.1,1.37,0.16c-0.01,0.53-0.01,1.06-0.02,1.58
			c-1.6,0.53-3.42,0.41-4.81,1.58c-0.54,0.01-1.09,0.02-1.63,0.02C36.02,36.38,35.75,36.37,35.49,36.37z"/>
		<path class="st88" d="M27.28,27.54c0.04,1.33,0.09,2.65,0.13,3.98C25.46,30.5,25.41,29.27,27.28,27.54z"/>
		<path class="st89" d="M36.29,29.95c-0.9,1.35-1.91,2.46-3.75,1.61c0.87-1.42,2.33-1.89,3.78-2.37
			C36.31,29.44,36.3,29.7,36.29,29.95z"/>
		<path class="st90" d="M36.29,29.95c0.01-0.25,0.02-0.51,0.03-0.76c1.16-0.99,2.1-1.2,2.39,0.72C37.9,29.92,37.1,29.94,36.29,29.95
			z"/>
		<path class="st91" d="M20.96,80.05c-1.81-0.5-1.43-1.99-1.48-3.28c1.62-0.06,1.51-1.27,1.56-2.37c0.52-0.01,1.03-0.02,1.55-0.04
			c0,0,0.01-0.01,0.01-0.01c3.28,3.03,6.89,1.69,10.47,0.82c1.16,0.12,2.19-0.23,3.18-0.8c0.04,0.81,0.08,1.61,0.11,2.42l-0.14-0.02
			c-0.94,1.29-2.17,1.74-3.79,1.66c-2.79-0.13-5.6-0.05-8.4-0.02C22.75,78.43,21.21,78.06,20.96,80.05z"/>
		<path class="st92" d="M20.96,80.05c0.25-1.99,1.79-1.62,3.07-1.63c2.8-0.03,5.6-0.1,8.4,0.02c1.62,0.07,2.84-0.38,3.79-1.66
			c0.01,0.81,0.02,1.63,0.03,2.44c-1.06,1.44-2.52,1.6-4.2,1.66c-3.15,0.12-6.4-0.78-9.44,0.75c-1.56-0.1-0.41,1.18-0.84,1.66
			C20.76,82.39,21.15,81.15,20.96,80.05z"/>
		<path class="st93" d="M21.03,74.4c-0.05,1.1,0.06,2.3-1.56,2.37c-0.17-1.1-1.33-1.97-0.77-3.25c0.22-0.26,0.44-0.52,0.66-0.77
			C20.44,72.76,20.94,73.37,21.03,74.4z"/>
		<path class="st94" d="M87.96,50.88c-1.04,0.58-2.12,0.97-3.33,0.86c-2.63,0.68-5.83-1.65-7.98,1.52
			c-0.96,0.61-0.82,1.59-0.85,2.51c-3.23-2.58-5.35-2.32-6.44,0.8c-0.26,0-0.52,0.01-0.79,0.01c-0.25-1.41,0.62-3.11-1.08-4.15
			c-3.32-1.52-6.82-0.36-10.21-0.7l-0.02-0.02c1.03-1.21,2.44-0.77,3.7-0.78c3.68-0.05,7.37-0.01,11.06-0.02
			c1.29-0.01,2.76,0.27,3.01-1.66c3.21-0.39,6.58,1.08,9.65-0.88c0.02-0.24,0-0.49-0.06-0.72c0.04-4.3,0.07-8.6,0.11-12.9l0.38-0.03
			l0.38,0.02c0,0,0.07,0.01,0.07,0.01c0.06,2.96,0.11,5.92,0.17,8.88c-0.03,1.01-0.4,2.19-0.01,2.98c0.38,0.76,0.46-0.29,0.67-0.54
			c0.5,0,0.99,0,1.49,0C87.9,47.68,87.93,49.28,87.96,50.88z"/>
		<path class="st95" d="M50,29.91c-0.17-2.02,0.94-2.51,2.71-2.44c8.27,0.35,16.47-1.34,24.77-0.88c2.06,0.12,4.22-0.54,6.24-1.13
			c2.03-0.59,3.11-0.1,3.37,2.02c-5.27,0.36-10.58,0.53-15.8,1.05c-3.57,0.35-7.39-0.37-10.81,1.38C56.99,29.91,53.5,29.91,50,29.91
			z"/>
		<path class="st96" d="M50,29.91c3.49,0,6.99,0,10.48,0c3.78,0.12,7.48,0.22,11.31-0.6c2.75-0.59,6.02-1.11,8.85,0.6
			c-4.2,1.34-8.81-0.58-12.9,1.62c-0.27,0-0.54,0-0.81,0c-2.8,0-5.59-0.01-8.39,0c-1.33,0-2.81-0.17-2.82,1.86
			c0,4.72-0.49,9.45,0.28,14.15c-0.38,0.04-0.77,0.07-1.15,0.11c-0.02-1.06-0.04-2.11-0.07-3.17c0-0.82,0.01-1.63,0.01-2.44
			c0-0.81,0.01-1.62,0.01-2.43c0-1.08,0.01-2.16,0.01-3.23c0.1-3.62-3.22-2.15-4.81-3.23C50.01,32.07,50,30.99,50,29.91z"/>
		<path class="st97" d="M67.74,31.52c4.09-2.2,8.7-0.27,12.9-1.62c2.43-0.18,4.76-1.21,7.25-0.81c0,0.54,0,1.08,0,1.62
			c-2.21,1.3-4.65,0.73-7,0.78c-3.92,0.09-7.77,0.57-11.55,1.64c-0.27,0-0.54,0-0.81,0c-0.27,0-0.53,0.01-0.8,0.02
			C67.75,32.62,67.74,32.07,67.74,31.52z"/>
		<path class="st98" d="M69.35,33.14c3.77-1.07,7.63-1.55,11.55-1.64c2.35-0.05,4.78,0.52,7-0.78c0,1.62-0.01,3.24-0.01,4.85
			c-0.53-0.27-1.07-0.54-1.6-0.82c-0.24,0-0.49,0-0.73,0c0,0-0.07-0.01-0.07-0.01c-0.31-0.29-0.62-0.58-0.92-0.86
			c-3.08-1.55-6.38-0.35-9.55-0.73C73.12,33.14,71.24,33.14,69.35,33.14z"/>
		<path class="st99" d="M87.9,29.1c-2.49-0.4-4.83,0.62-7.25,0.81c-2.84-1.71-6.1-1.19-8.85-0.6c-3.82,0.82-7.53,0.71-11.31,0.6
			c3.42-1.74,7.25-1.02,10.81-1.38c5.22-0.52,10.53-0.69,15.8-1.05C87.36,28.02,87.63,28.56,87.9,29.1z"/>
		<path class="st100" d="M54.82,36.38c0,1.08-0.01,2.16-0.01,3.23c-1.6-0.39-3.19,0.85-4.79,0c0-1.08,0-2.16,0-3.23
			C51.62,37.23,53.22,35.99,54.82,36.38z"/>
		<path class="st101" d="M54.82,36.38c-1.6-0.39-3.2,0.85-4.8,0c0-1.08-0.01-2.16-0.01-3.24C51.61,34.24,54.92,32.76,54.82,36.38z"
			/>
		<path class="st102" d="M86.29,34.76c0.53,0.27,1.07,0.54,1.6,0.82c0,2.69,0.01,5.39,0.01,8.08c-0.52,0.01-1.05,0.01-1.57,0.02
			C86.31,40.7,86.3,37.73,86.29,34.76z"/>
		<path class="st103" d="M50.02,39.62c1.6,0.84,3.19-0.39,4.79,0c-0.01,0.81-0.01,1.62-0.01,2.43c-1.41-0.11-2.76,0.04-4,0.8
			c-0.25,0-0.51,0-0.76,0.02C50.04,41.78,50.03,40.7,50.02,39.62z"/>
		<path class="st37" d="M86.32,43.67c0.52-0.01,1.05-0.01,1.57-0.02c-0.01,0.81-0.01,1.61-0.02,2.42c-0.5,0-0.99,0-1.49,0
			c-0.04-0.81-0.08-1.62-0.11-2.44L86.32,43.67z"/>
		<path class="st104" d="M17.78,53.36c0-1.08,0-2.15-0.01-3.23c1.02,0.26,2.04,0.73,3.07,0.76c7.76,0.17,15.46-1.27,23.24-0.87
			c0.61,0.03,1.24-0.45,1.87-0.7c-0.01,1.64-0.02,3.28-0.02,4.93c-3.06-2.18-6.44-0.88-9.7-0.92c-0.26,0-0.52,0.01-0.78,0.04
			c-0.52,0.81-1.04,1.61-1.56,2.42c-0.11-1.17,0.38-2.51-0.97-3.32c-3.33-1.12-6.71-1.05-8.53,0.18c-0.07,0.24-0.18,0.46-0.32,0.67
			c-0.2,0-0.41,0.02-0.61,0.06c-0.29,0-0.57-0.01-0.86-0.01C20.98,53.4,19.38,54.28,17.78,53.36z M43.98,52.35
			c0.12-0.13,0.23-0.25,0.35-0.38c-2.36,0-4.73,0-7.09,0c0,0.13,0,0.25,0,0.38C39.49,52.35,41.73,52.35,43.98,52.35z"/>
		<path class="st105" d="M17.76,48.51c0-0.27-0.01-0.55-0.01-0.82c4.37,0.02,8.66-0.59,12.89-1.62c5.12,0.06,10.24,0.13,15.31-0.8
			c0,0.54,0,1.08,0,1.62c-0.75,0.26-1.48,0.57-2.24,0.76c-5.94,1.47-12.08,0.52-18.11,1.49C23.18,49.52,20.17,50.95,17.76,48.51z"/>
		<path class="st106" d="M45.96,45.27c-5.07,0.92-10.19,0.85-15.31,0.8c-4.33-0.25-8.7-1.01-12.9,0.81
			c0.12-1.64,1.05-2.28,2.63-2.43c7.58-0.74,15.23-0.35,22.78-1.53C44.96,42.64,45.35,44.1,45.96,45.27z"/>
		<path class="st100" d="M17.76,48.51c2.41,2.44,5.41,1.01,7.84,0.62c6.03-0.96,12.17-0.01,18.11-1.49c0.76-0.19,1.5-0.5,2.24-0.76
			c0,0.81,0,1.62-0.01,2.43c-0.62,0.25-1.26,0.73-1.87,0.7c-7.78-0.4-15.48,1.04-23.24,0.87c-1.03-0.02-2.05-0.49-3.07-0.76
			C17.77,49.59,17.76,49.05,17.76,48.51z"/>
		<path class="st107" d="M36.22,53.33c3.26,0.04,6.64-1.26,9.7,0.92c0.07,1.32,0.13,2.63,0.2,3.95c-0.04,1.35-0.07,2.7-0.11,4.05
			c-3.1,1.64-6.4,0.49-9.6,0.72C35.68,59.77,36.01,56.55,36.22,53.33z M37.33,57.56c-0.39,2.46-0.31,4.33,3.02,3.96
			c2.24-0.24,4.23,0.37,4.18-3.33c-0.05-3.43-1.32-3.74-4.16-3.8C37.71,54.33,36.65,54.96,37.33,57.56z"/>
		<path class="st97" d="M17.75,46.88c4.2-1.82,8.57-1.06,12.9-0.81c-4.24,1.03-8.53,1.64-12.89,1.62
			C17.75,47.42,17.75,47.15,17.75,46.88z"/>
		<path class="st108" d="M17.78,53.36c1.6,0.92,3.2,0.04,4.8-0.01c0,0.54-0.01,1.08-0.01,1.62c-1.42,1.08-2.9,1.95-4.79,1.62
			c-0.02-0.81-0.03-1.62-0.05-2.43C17.74,53.89,17.76,53.63,17.78,53.36z"/>
		<path class="st109" d="M67.9,62.23c-0.13,0.23-0.18,0.47-0.17,0.73c-3.48,0.02-6.97,0.03-10.45,0.05c0,0,0.04,0.01,0.04,0.01
			c-0.08-1.34-0.16-2.68-0.23-4.02c0-1.62,0-3.24,0-4.85c0.21-0.32,0.42-0.64,0.63-0.96c3.19,0.01,6.37,0.02,9.56,0.03
			c1.01,0.97,0.25,2.27,0.64,3.35c0,1.34,0,2.68,0.01,4.02C67.91,61.14,67.9,61.69,67.9,62.23z M58.82,61.48
			c2.44,1.17,4.87,1.28,7.29-0.05c0-0.55-0.01-1.1-0.01-1.65c-0.17-1.63,1.18-3.51-0.76-4.86c-0.12-0.43-0.34-0.72-0.85-0.58
			c-1.83-0.05-3.66-0.1-5.48-0.15C57.33,56.58,57.7,59.02,58.82,61.48z"/>
		<path class="st110" d="M50.88,63.1c-0.01-0.55-0.02-1.11-0.03-1.66c1.33-0.54,2.65-1.08,3.98-1.62c-0.06,1.76,0.34,3.16,2.48,3.2
			c0,0-0.04-0.01-0.04-0.01c-0.01,0.28-0.02,0.57-0.02,0.85C55.04,64.31,52.72,65.74,50.88,63.1z"/>
		<path class="st111" d="M75.81,63.05c-2.36-0.85-5.2,2.74-7.26-0.8c1.99-1.2,4.09-1.92,6.46-1.62c0.26,0,0.53,0,0.79,0.01
			C75.8,61.44,75.8,62.24,75.81,63.05z"/>
		<path class="st112" d="M75,60.62c-2.36-0.3-4.47,0.42-6.46,1.62c-0.22,0-0.43-0.01-0.65-0.01c0.01-0.54,0.01-1.09,0.02-1.63
			c0.21,0.02,0.42,0.02,0.63,0.02C70.92,57.38,73.28,57.38,75,60.62z"/>
		<path class="st113" d="M57.25,63.86c0.01-0.28,0.02-0.57,0.02-0.85c3.48-0.02,6.97-0.03,10.45-0.05
			C64.38,64.95,60.73,63.39,57.25,63.86z"/>
		<path class="st114" d="M75.8,65.47c0,0.27,0,0.54,0,0.8c-2.63,0-5.26,0-7.89,0c0-0.27-0.01-0.54-0.01-0.8
			C70.53,65.47,73.17,65.47,75.8,65.47z"/>
		<path class="st115" d="M84.57,62.9c0.03,0.32,0.07,0.63,0.1,0.95c-2.69-0.33-5.52,0.85-8.08-0.78c0,0,0.04-0.04,0.04-0.04
			c2.41-0.08,4.81-0.16,7.22-0.24c0.22,0.04,0.43,0.07,0.65,0.09L84.57,62.9z"/>
		<path class="st116" d="M75.81,63.05c-0.01-0.8-0.01-1.61-0.02-2.42c0.01-0.54,0.02-1.09,0.03-1.63c0,0,0.31,0,0.31,0l0.31,0
			c0.06,1.34,0.12,2.68,0.18,4.03c0,0-0.04,0.03-0.04,0.04C76.33,63.05,76.07,63.04,75.81,63.05z"/>
		<path class="st117" d="M22.64,84.56c0,0-0.05-0.4-0.05-0.39c2.39,0,4.79,0,7.18,0c0,0.13,0,0.26,0,0.39
			C27.39,84.56,25.01,84.56,22.64,84.56z"/>
		<path class="st118" d="M36.25,79.22c-0.01-0.81-0.02-1.63-0.03-2.44c0,0,0.14,0.02,0.14,0.02c0.2-0.01,0.41-0.01,0.61-0.02
			c0,1.59,0,3.17,0,4.76C36.09,80.96,36.37,80.03,36.25,79.22z"/>
		<path class="st119" d="M51.61,74.37c3.45-0.29,6.87-0.79,10.35-0.94c2.89-0.12,3.88,0.57,3.36,3.36c-4.5,1.38-9.13,0.61-13.7,0.82
			C51.62,76.52,51.62,75.44,51.61,74.37z"/>
		<path class="st15" d="M66.12,83.25c0,0.26-0.02,0.52-0.03,0.78c-1.87,0.01-3.74,0.02-5.61,0.04c-2.81-1.9-5.97-0.09-8.89-0.83
			c0.02-1.07,0.04-2.13,0.05-3.2c2.8,1.49,5.71,0.67,8.5,0.15C63.1,79.63,65.25,80.03,66.12,83.25z"/>
		<path class="st120" d="M66.12,83.25c-0.88-3.22-3.02-3.62-5.98-3.06c-2.79,0.53-5.7,1.35-8.5-0.15c-0.01-0.81-0.01-1.63-0.02-2.44
			c4.57-0.21,9.2,0.56,13.7-0.82c0.02,0.66,0.15,1.27,0.8,1.62C66.13,80.02,66.13,81.64,66.12,83.25z"/>
		<path class="st121" d="M83.86,80.02c-0.01,0.27-0.01,0.54-0.02,0.81c-2.04,1.04-4.03,2.45-6.41,0.8c0.01-0.8,0.01-1.61,0.02-2.41
			C79.47,80.47,81.71,79.89,83.86,80.02z"/>
		<path class="st122" d="M77.46,79.23c-0.01,0.8-0.01,1.61-0.02,2.41c-0.03,0.13-0.01,0.3-0.09,0.38c-0.13,0.13-0.32,0.21-0.48,0.3
			c-0.04-2.33-0.07-4.66-0.11-6.98c0.23,0.22,0.47,0.44,0.7,0.65c0,0.28,0,0.55,0.01,0.83C77.46,77.62,77.46,78.42,77.46,79.23z"/>
		<path class="st123" d="M77.38,72.72c-0.22,0-0.42-0.05-0.6-0.16c-0.01-1.5-0.02-3-0.03-4.5c0.67,0.29,0.66,0.9,0.72,1.48
			C77.44,70.6,77.41,71.66,77.38,72.72z"/>
		<path class="st124" d="M77.38,72.72c0.03-1.06,0.06-2.12,0.09-3.18c1.63,0.91,3.26,0.97,5.03,0.31c1.86-0.7,2.78,0.26,2.98,2.09
			C82.88,73.29,80.21,73.77,77.38,72.72z"/>
		<path class="st125" d="M65.32,19.39c0-0.27,0-0.53,0-0.8c1.08,0,2.16-0.01,3.23-0.01c2.42,0,4.83,0.01,7.25,0.01
			C72.42,20.32,68.8,18.94,65.32,19.39z"/>
		<path class="st126" d="M77.46,76.81c0-0.28,0-0.55-0.01-0.83c1.45-0.05,2.9,0.07,4.32-0.52c1.51-0.62,2.89-0.35,3.69,1.3
			C82.81,77.48,80.15,79.91,77.46,76.81z"/>
		<path class="st127" d="M77.46,76.81c2.69,3.1,5.34,0.66,8.01-0.04c-0.01,0.53-0.02,1.06-0.04,1.59c-0.53,0.55-1.05,1.1-1.58,1.66
			c-2.15-0.14-4.39,0.44-6.41-0.8C77.46,78.42,77.46,77.62,77.46,76.81z"/>
		<path class="st128" d="M87.12,57.41c-0.02,0.82-0.05,1.63-0.07,2.45c-0.52,0.8-1.03,1.6-1.55,2.39c-0.01-1.62-0.03-3.24-0.04-4.87
			c0.02-0.26,0.03-0.53,0.04-0.79c0.53-0.27,1.06-0.54,1.59-0.81C87.1,56.32,87.11,56.86,87.12,57.41z"/>
		<path class="st129" d="M85.46,57.38c0.01,1.62,0.03,3.24,0.04,4.87c-0.31,0.22-0.62,0.43-0.93,0.65c0,0-0.07-0.01-0.07-0.01
			c0.11-1.83,0.22-3.67,0.33-5.5C85.04,57.39,85.25,57.38,85.46,57.38z"/>
		<path class="st35" d="M74.19,72.75c0.64,2.22-1.33,3.7-1.61,5.66c-0.16,1.9-2.93,3.43-0.82,5.66c-0.64,0.96-1.61,0.77-2.54,0.71
			c0.06-1.57,0.12-3.14,0.17-4.71C71.55,78,71.48,74.46,74.19,72.75z"/>
		<path class="st130" d="M69.36,69.12c1.1-0.09,2.23-0.39,3.25,0.34c-3.53,0.94-0.81,4.99-3.21,6.49
			C68.67,73.68,69.42,71.4,69.36,69.12z"/>
		<path class="st131" d="M69.4,80.07c-0.06,1.57-0.12,3.14-0.17,4.71c-0.18,0-0.35-0.04-0.51-0.14c-0.01-1.79-0.03-3.57-0.05-5.36
			C68.91,79.55,69.16,79.81,69.4,80.07z"/>
		<path d="M23.26,69.54c0.07-1.06,0.14-2.12,0.2-3.19c0,0-0.04,0-0.04,0c2.93,0.04,5.85,0.07,8.78,0.11
			c-0.05,0.53,0.08,1.15-0.67,1.32c-2.24-1.1-4.49-1.11-6.75-0.03c-0.92,1.75-1,3.48,0.17,5.17c2.19,0.91,4.37,1.05,6.51-0.16
			c0.5,0.28,1,0.56,1.5,0.83c0.07,0.22,0.09,0.44,0.07,0.67c-3.19,0.03-6.38,0.05-9.57,0.08C23.4,72.74,23.33,71.14,23.26,69.54z"/>
		<path class="st132" d="M17.8,64.48c0.25-0.75,0.5-1.51,0.74-2.26c1.61,1.2,2.91,0.8,3.97-0.78c0.31,0.26,0.62,0.53,0.93,0.79
			c0.21,0.01,0.42,0.03,0.64,0.04c0.17,0.17,0.28,0.38,0.34,0.62c-0.38,0.26-0.86,0.5-0.22,1c0,0.26,0,0.51,0,0.77
			c-0.66,0.38-0.79,1.01-0.77,1.7l0.04,0C21.58,65.73,19.69,65.11,17.8,64.48z"/>
		<path class="st133" d="M21.03,74.4c-0.09-1.02-0.59-1.64-1.67-1.66c0.02-1.07,0.03-2.14,0.05-3.2c2.08,0.06,1.79,2.46,3.16,3.21
			c0,0.54,0.01,1.07,0.01,1.61C22.06,74.37,21.55,74.39,21.03,74.4z"/>
		<path class="st134" d="M22.58,74.36c0-0.54-0.01-1.07-0.01-1.61c0.13-1.09-0.35-2.31,0.69-3.21c0.07,1.6,0.13,3.2,0.2,4.8
			c-0.29,0-0.58,0.01-0.87,0.01C22.59,74.35,22.58,74.36,22.58,74.36z"/>
		<path class="st13" d="M31.45,88.14c-0.32,1.99-1.88,1.55-3.15,1.57c-2.93,0.04-5.87,0.01-8.84,0.01c-0.08-1.17,1.36-0.75,1.48-1.6
			C24.45,88.13,27.95,88.14,31.45,88.14z"/>
		<path class="st135" d="M54.85,47.65c0.38-0.04,0.77-0.07,1.15-0.11c0,0,0.17-0.12,0.17-0.12l0.17,0.13
			c3.76,1.54,7.52,1.59,11.27-0.02c0.29,0.02,0.58,0.05,0.87,0.07c1.89,0.03,3.78,0.06,5.67,0.1c0.37,0.22,0.74,0.45,1.1,0.67
			l-0.14-0.08c-0.04,0.32-0.07,0.65-0.11,0.97c-0.25,1.93-1.72,1.66-3.01,1.66c-3.69,0.02-7.37-0.03-11.06,0.02
			c-1.27,0.02-2.67-0.42-3.7,0.78c-2.15,0-4.29,0.01-6.44,0.01c0-0.81,0-1.62,0-2.43C52.38,49.3,54.06,49.56,54.85,47.65z"/>
		<path class="st136" d="M50.8,42.84c1.23-0.76,2.59-0.91,4-0.8c0,0.81-0.01,1.63-0.01,2.44C53.06,44.92,50.48,47.42,50.8,42.84z"/>
		<path class="st137" d="M50.81,51.74c2.15,0,4.29-0.01,6.44-0.01c0,0,0.02,0.02,0.02,0.02c0.04,0.24,0.11,0.48,0.21,0.7
			c-1.2,0.09-2.16,0.53-2.65,1.71c-1.24,0.77-2.61,0.89-4.02,0.81C50.81,53.89,50.81,52.81,50.81,51.74z"/>
		<path class="st138" d="M50.81,54.97c1.41,0.08,2.78-0.04,4.02-0.81c0,0.27,0.01,0.54,0.01,0.8c0,1.08,0,2.16,0,3.24
			c-1.34,0-2.67,0-4.01,0.01c-0.01-0.27-0.01-0.54-0.02-0.81C50.81,56.58,50.81,55.78,50.81,54.97z"/>
		<path class="st139" d="M71.76,84.07c-2.12-2.23,0.66-3.76,0.82-5.66c0.54-0.27,1.07-0.54,1.61-0.81
			C73.38,79.75,72.57,81.91,71.76,84.07z"/>
		<path class="st140" d="M17.77,56.59c1.89,0.33,3.38-0.54,4.8-1.62c0,0.54,0,1.08,0,1.62c-1.28,2.1-2.78,2.88-4.77,0.83
			C17.79,57.14,17.78,56.86,17.77,56.59z"/>
		<path class="st141" d="M22.51,61.44c-1.06,1.58-2.36,1.98-3.97,0.78c0.33-2.46,2.9-1.19,3.98-2.4
			C22.52,60.36,22.52,60.9,22.51,61.44z"/>
		<path class="st142" d="M22.64,58.19c0.2,0,0.41,0.01,0.61,0c0.06,1.35,0.13,2.69,0.19,4.04c-0.31-0.26-0.62-0.53-0.93-0.79
			c0-0.54,0.01-1.08,0.01-1.62C22.57,59.28,22.6,58.73,22.64,58.19z"/>
		<path class="st143" d="M47.38,64.4c0.01,0.61,0.03,1.22,0.04,1.82c-0.48,0.02-0.97,0.04-1.45,0.05
			c-4.03-0.95-8.05,1.92-12.08,0.01c1.01-1.07,2.27-1.3,3.63-1.02c2.74,0.56,5.23-0.13,7.63-1.38c0.53-0.27,1.07-0.53,1.6-0.8
			C46.84,63.59,46.68,64.2,47.38,64.4z"/>
		<path class="st144" d="M46.76,63.09c-0.53,0.27-1.07,0.53-1.6,0.8c-1.55-0.01-3.13,0.15-4.64-0.07c-1.37-0.2-3.07,1-4.1-0.84
			c3.2-0.23,6.51,0.92,9.6-0.72C46.26,62.53,46.51,62.81,46.76,63.09z"/>
		<path class="st145" d="M38.85,77.57c-0.17-1.65-0.53-3.34,0.68-4.79c1.4-1.25,3.1-0.77,4.71-0.79c0.38,1.01-0.43,1.6-0.84,2.32
			c-0.21-0.01-0.43-0.01-0.64-0.01c-1.28-1.11-2.11-0.93-2.39,0.84C40.29,76.22,40.46,77.45,38.85,77.57z"/>
		<path class="st146" d="M43.4,74.31c0.42-0.72,1.22-1.31,0.84-2.32c0.28-0.02,0.56-0.04,0.84-0.07c0,2.16,0.01,4.33,0.01,6.49
			c0,0-0.3,0-0.3,0s-0.3,0-0.3,0C44.33,76.99,44.5,75.48,43.4,74.31z"/>
		<path class="st147" d="M40.36,75.14c0.28-1.76,1.11-1.95,2.39-0.84c-0.05,0.9,0.15,1.88-0.81,2.48
			C41.92,75.75,41.36,75.23,40.36,75.14z"/>
		<path class="st148" d="M45.97,66.28c0.49-0.02,0.97-0.04,1.45-0.05c0.01,1.15,0.03,2.3,0.04,3.45c-0.46,0.75-0.93,1.51-1.39,2.27
			c-0.3-0.27-0.61-0.54-0.91-0.81c0,0,0.07-0.09,0.07-0.09c-0.01-0.23-0.03-0.47-0.06-0.7c-2.42-1.33-4.84-1.38-7.26,0.03
			c-0.03,0.24-0.04,0.49-0.02,0.73l0.02,0.03l-0.36-0.04c0,0-0.36,0.07-0.36,0.07c-1.38-0.06-2.41,1.69-3.95,0.76
			c0-0.29,0-0.58-0.01-0.88c0.82-0.61,0.58-1.52,0.67-2.34c3.53,0.88,7.04-0.34,10.58-0.1C45.97,68.71,45.91,67.35,45.97,66.28z"/>
		<path class="st149" d="M46.07,71.94c0.47-0.76,0.93-1.51,1.39-2.27c0.07,1.94,0.33,3.94-1.38,5.43
			C46.08,74.05,46.08,73,46.07,71.94z"/>
		<path class="st150" d="M47.58,78.38c0,0.56,0,1.12,0,1.67c-0.49,0.5-0.98,1-1.47,1.5c-0.01-1.57-0.01-3.15-0.02-4.72
			C46.58,77.35,47.08,77.87,47.58,78.38z"/>
		<path class="st151" d="M76.65,53.27c2.15-3.17,5.35-0.85,7.98-1.52c0.03,0.26,0.05,0.52,0.06,0.79c-0.27,0.51-0.55,1.02-0.82,1.52
			c-0.25,0.14-0.51,0.15-0.77,0.02c0-0.26-0.06-0.5-0.17-0.73c-1.86-1.39-3.75-1.2-5.64-0.07c-0.22,0.03-0.43,0.06-0.65,0.09
			L76.65,53.27z"/>
		<path class="st152" d="M83.86,54.06c0.27-0.51,0.55-1.02,0.82-1.52c1.35,1.13,0.58,2.7,0.81,4.06c-0.01,0.26-0.03,0.53-0.04,0.79
			c-0.21,0-0.42,0-0.62,0C84.41,56.3,85.31,54.84,83.86,54.06z"/>
		<path class="st153" d="M45.08,71.92c-0.28,0.02-0.56,0.04-0.84,0.07c-1.61,0.01-3.3-0.47-4.71,0.79c-0.3-0.63-0.86-0.81-1.49-0.85
			c-0.07-0.26-0.12-0.52-0.13-0.79c0,0-0.02-0.03-0.02-0.03c2.45-0.02,4.89-0.04,7.34-0.06c0,0-0.07,0.09-0.07,0.09
			C45.15,71.4,45.12,71.66,45.08,71.92z"/>
		<path class="st154" d="M33.24,71.93c1.54,0.93,2.57-0.81,3.95-0.76C37.12,71.45,37.06,71.73,37,72c-0.93,0.57-0.63,1.54-0.76,2.37
			c-0.98,0.57-2.02,0.92-3.18,0.8c-0.01-0.3-0.02-0.61-0.03-0.91c0.02-0.23,0-0.45-0.07-0.67C33.05,73.03,33.14,72.48,33.24,71.93z"
			/>
		<path class="st149" d="M36.24,74.37c0.13-0.83-0.17-1.8,0.76-2.37c-0.01,1.59-0.02,3.18-0.03,4.77c-0.2,0-0.41,0.01-0.61,0.02
			C36.31,75.99,36.28,75.18,36.24,74.37z"/>
		<path class="st155" d="M50.83,58.21c1.34,0,2.67,0,4.01-0.01c0,0.27,0,0.54,0.01,0.8c0,0.27-0.01,0.54-0.01,0.82
			c-1.33,0.54-2.65,1.08-3.98,1.62C50.84,60.36,50.83,59.28,50.83,58.21z"/>
		<path class="st156" d="M37.92,36.36c1.39-1.18,3.21-1.05,4.81-1.58c0.94,2.02-0.64,1.5-1.61,1.61
			C40.05,36.37,38.99,36.36,37.92,36.36z"/>
		<path class="st13" d="M61.26,92.89c-3.73,0.01-7.45,0.02-11.18,0.03c-0.06-0.24-0.12-0.48-0.18-0.72
			C53.68,92.48,57.56,91.33,61.26,92.89z"/>
		<path class="st1" d="M49.9,92.19c0.06,0.24,0.12,0.48,0.18,0.72c-2.44-0.26-5.02,0.78-7.34-0.71c0.53-0.03,1.06-0.07,1.59-0.1
			C46.19,92.13,48.05,92.16,49.9,92.19z"/>
		<path class="st13" d="M44.34,92.1c-0.53,0.03-1.06,0.07-1.59,0.1c-1.85-0.03-3.7-0.07-5.55-0.1c-0.06-0.24-0.12-0.48-0.19-0.72
			C39.45,91.64,42.02,90.57,44.34,92.1z"/>
		<path class="st1" d="M37,91.38c0.06,0.24,0.13,0.48,0.19,0.72c-2.44-0.26-5.01,0.8-7.33-0.72c0.53-0.03,1.06-0.07,1.59-0.1
			C33.3,91.32,35.15,91.35,37,91.38z"/>
		<path class="st157" d="M33.03,74.26c0.01,0.3,0.02,0.61,0.03,0.91c-3.58,0.87-7.19,2.21-10.47-0.82c0.29,0,0.58-0.01,0.87-0.01
			C26.65,74.31,29.84,74.29,33.03,74.26z"/>
		<path class="st158" d="M84.71,34.75c-0.04,4.3-0.07,8.6-0.11,12.9c-3.13-0.01-6.27-0.02-9.4-0.02c-0.12-1.6-0.23-3.19-0.35-4.79
			c0.45-8.73,0.45-8.74,9.47-8.17C84.46,34.68,84.59,34.72,84.71,34.75z M76.82,35.64c-1.88,3.71-1.56,7.46-0.16,11.22
			c0.79-0.03,1.58-0.06,2.37-0.1c1.33-0.01,2.66-0.02,4-0.02c1.71-1.94,0.5-4.21,0.7-6.31c0-1.09,0-2.19,0-3.28
			C81.93,34.29,79.05,36.48,76.82,35.64z"/>
		<path class="st159" d="M84.71,34.75c-0.13-0.03-0.26-0.07-0.39-0.08c-9.02-0.57-9.02-0.57-9.47,8.17c-0.22,0-0.44,0-0.66,0
			c-0.27-1.61-0.54-3.23-0.81-4.84c0.23-3.83-3.53-1.68-4.82-3.23c-0.01-0.54-0.01-1.08-0.02-1.63c0.27,0,0.54,0,0.81,0
			c1.88,0,3.77,0,5.65,0c3.08,1.55,6.38,0.37,9.55,0.73c0.31,0.29,0.62,0.58,0.92,0.86c0,0-0.38-0.02-0.38-0.02L84.71,34.75z"/>
		<path class="st160" d="M75.82,59c-0.01,0.54-0.02,1.09-0.03,1.63c-0.26-0.01-0.53-0.01-0.79-0.01c-1.72-3.24-4.09-3.24-6.46,0
			c0-1.35,0-2.69,0.01-4.04l0.02,0.01c0.26,0,0.52-0.01,0.79-0.01c2.24,0.18,4.76-0.77,6.45,1.62C75.81,58.47,75.81,58.73,75.82,59z
			"/>
		<path class="st161" d="M75.8,58.2c-1.69-2.39-4.21-1.43-6.45-1.62c1.09-3.12,3.21-3.38,6.44-0.8C75.8,56.59,75.8,57.39,75.8,58.2z
			"/>
		<path class="st162" d="M57.48,52.44c-0.11-0.22-0.18-0.46-0.21-0.7c3.4,0.35,6.9-0.82,10.22,0.7c-0.23,0.02-0.46,0.07-0.68,0.16
			c-2.87,0-5.74,0-8.61,0.01C57.97,52.5,57.73,52.45,57.48,52.44z"/>
		<path class="st163" d="M75.2,47.62c3.13,0.01,6.27,0.02,9.4,0.02c0.05,0.24,0.07,0.48,0.06,0.72c-3.18-0.03-6.36-0.06-9.54-0.09
			c0,0,0.14,0.08,0.14,0.08C75.21,48.12,75.19,47.87,75.2,47.62z"/>
		<path class="st142" d="M75.12,48.29c3.18,0.03,6.36,0.06,9.54,0.09c-3.06,1.97-6.44,0.5-9.65,0.88
			C75.05,48.93,75.09,48.61,75.12,48.29z"/>
		<path class="st164" d="M75.8,58.2c0-0.81,0-1.61,0-2.42c0.03-0.92-0.11-1.9,0.85-2.51c0,0-0.01,0.1-0.01,0.1
			c-0.06,1.88-0.12,3.75-0.18,5.63l-0.31,0c0,0-0.31,0-0.31,0C75.81,58.73,75.81,58.47,75.8,58.2z"/>
		<path class="st165" d="M66.81,52.61c0.22-0.09,0.45-0.14,0.68-0.16c1.7,1.03,0.83,2.73,1.08,4.14c0,0-0.02-0.01-0.02-0.01
			c-0.21,0-0.43,0-0.64-0.01c-0.39-1.08,0.37-2.39-0.64-3.35C67.1,53.03,66.94,52.83,66.81,52.61z"/>
		<path class="st166" d="M85.72,43.63c0.18,0.01,0.37,0.01,0.55,0c0.04,0.81,0.07,1.62,0.11,2.44c-0.21,0.25-0.29,1.31-0.67,0.54
			C85.32,45.82,85.69,44.64,85.72,43.63z"/>
		<path class="st167" d="M56.35,47.55l-0.17-0.13c0,0-0.17,0.12-0.17,0.12c-0.77-4.7-0.28-9.43-0.28-14.15
			c0.51-0.09,1.02-0.19,1.54-0.28c0.28,0.08,0.56,0.16,0.84,0.24c0.07,0.17,0.07,0.34-0.02,0.51c-0.01,4.07-0.01,8.13-0.02,12.2
			c-0.26,0.45-0.51,0.91-0.77,1.36C56.99,47.46,56.67,47.5,56.35,47.55z"/>
		<path class="st168" d="M57.26,33.11c1.71-1.49,3.75-0.5,5.62-0.77c1.36-0.2,2.9,0.49,4.04-0.81c0.27,0,0.54,0,0.81,0
			c0,0.55,0,1.09,0.01,1.64c0,0-0.18,0.17-0.18,0.17c-0.35,0.2-0.71,0.41-1.06,0.61c-0.31,0.01-0.63,0.01-0.94,0.02
			c-2.38-1.58-4.96-0.64-7.46-0.61C57.83,33.27,57.54,33.19,57.26,33.11z"/>
		<path class="st169" d="M36.41,62.97c1.03,1.84,2.73,0.64,4.1,0.84c1.52,0.23,3.09,0.07,4.64,0.07c-2.4,1.25-4.89,1.94-7.63,1.38
			c-1.36-0.28-2.63-0.05-3.63,1.02c0,0-0.02,0-0.02,0c-0.32,0.03-0.65,0.07-0.97,0.1l0.08,0.09c-0.24-0.34-0.48-0.67-0.72-1.01
			c-2.55-1.65-5.38-0.44-8.06-0.81l0-0.01c0-0.26,0-0.51,0-0.77c2.91-0.55,6.09,1.07,8.81-1.08c-0.08-0.25-0.02-0.46,0.19-0.62
			c3.48,0.11,1.84-2.44,2.07-4.01c0.06-1.6,0.11-3.2,0.17-4.8c0.26-0.02,0.52-0.04,0.78-0.04C36.01,56.55,35.68,59.77,36.41,62.97z"
			/>
		<path class="st73" d="M43.98,52.35c-2.25,0-4.49,0-6.74,0c0-0.13,0-0.25,0-0.38c2.36,0,4.73,0,7.09,0
			C44.21,52.1,44.1,52.22,43.98,52.35z"/>
		<path class="st170" d="M23.44,62.23c-0.06-1.35-0.13-2.69-0.19-4.04c0.06-1.61,0.13-3.22,0.19-4.83c0.2-0.04,0.4-0.05,0.61-0.06
			c0.17-0.02,0.33,0.02,0.47,0.12c-0.49,2.91-0.57,5.82,0.01,8.74c-0.14,0.08-0.29,0.12-0.45,0.11
			C23.86,62.26,23.65,62.24,23.44,62.23z"/>
		<path class="st171" d="M24.37,52.64c2.6-0.02,5.2-0.04,7.8-0.06c0.13,0.19,0.24,0.4,0.33,0.62c-2.66,0.07-5.32,0.15-7.99,0.22
			c-0.14-0.1-0.3-0.14-0.47-0.12C24.19,53.1,24.3,52.88,24.37,52.64z"/>
		<path class="st172" d="M32.5,53.2c-0.09-0.22-0.2-0.42-0.33-0.62c0.24-0.06,0.49-0.1,0.73-0.12c1.35,0.8,0.85,2.15,0.97,3.32
			c0.5,0.81,0.5,1.61,0,2.42c-0.22,0-0.44,0-0.66,0C32.67,56.57,33.77,54.72,32.5,53.2z"/>
		<path class="st173" d="M33.87,58.2c0.5-0.81,0.5-1.61,0-2.42c0.52-0.81,1.04-1.61,1.56-2.42c-0.06,1.6-0.11,3.2-0.17,4.8
			C34.8,58.18,34.34,58.19,33.87,58.2z"/>
		<path class="st174" d="M37.33,57.56c-0.68-2.6,0.38-3.23,3.04-3.17c2.83,0.06,4.11,0.37,4.16,3.8c0.05,3.7-1.94,3.09-4.18,3.33
			C37.01,61.89,36.94,60.02,37.33,57.56z"/>
		<path class="st175" d="M64.49,54.34c0.51-0.14,0.73,0.15,0.85,0.58c-0.01,0.82-0.01,1.65-0.02,2.47
			c-1.47,0.97-2.94,1.94-3.23,3.89c-1.09-0.05-2.17-0.1-3.26-0.15c-0.03-1.23-0.06-2.46-0.09-3.69
			C61.12,57.28,63.03,56.23,64.49,54.34z"/>
		<path class="st176" d="M64.49,54.34c-1.46,1.89-3.37,2.94-5.75,3.11c-0.19-1.11-0.52-2.23,0.27-3.26
			C60.83,54.24,62.66,54.29,64.49,54.34z"/>
		<path class="st177" d="M54.84,59c0-0.27,0-0.54-0.01-0.8c0-1.08,0-2.16,0-3.24c0.75-0.27,1.49-0.54,2.24-0.82
			c0,1.62,0,3.24,0,4.85C56.33,59,55.59,59,54.84,59z"/>
		<path class="st178" d="M62.09,61.28c0.3-1.95,1.77-2.92,3.23-3.89c0.07,0.86-0.13,1.8,0.78,2.39c0,0.55,0.01,1.1,0.01,1.65
			C64.77,61.38,63.43,61.33,62.09,61.28z"/>
		<path class="st179" d="M54.84,59c0.75,0,1.49,0,2.24,0c0.08,1.34,0.16,2.68,0.23,4.02c-2.14-0.04-2.54-1.44-2.48-3.2
			C54.83,59.55,54.84,59.27,54.84,59z"/>
		<path class="st180" d="M66.81,52.61c0.14,0.22,0.29,0.42,0.46,0.61c-3.19-0.01-6.37-0.02-9.56-0.03c0.18-0.17,0.35-0.37,0.49-0.58
			C61.07,52.61,63.94,52.61,66.81,52.61z"/>
		<path class="st181" d="M62.09,61.28c1.34,0.05,2.68,0.1,4.02,0.15c-2.42,1.33-4.85,1.22-7.29,0.05c0,0,0.01-0.34,0.01-0.34
			C59.91,61.19,61,61.23,62.09,61.28z"/>
		<path class="st180" d="M58.83,61.14c0,0-0.01,0.34-0.01,0.34c-1.12-2.46-1.49-4.9,0.18-7.29c-0.79,1.03-0.46,2.15-0.27,3.26
			C58.76,58.68,58.8,59.91,58.83,61.14z"/>
		<path class="st182" d="M58.2,52.61c-0.14,0.21-0.3,0.41-0.49,0.58c-0.21,0.32-0.42,0.64-0.63,0.96c-0.75,0.27-1.49,0.54-2.24,0.82
			c0-0.27,0-0.54-0.01-0.8c0.49-1.19,1.45-1.63,2.65-1.71C57.73,52.45,57.97,52.5,58.2,52.61z"/>
		<path class="st183" d="M66.1,59.78c-0.91-0.58-0.71-1.53-0.78-2.39c0.01-0.82,0.01-1.65,0.02-2.47
			C67.28,56.27,65.93,58.15,66.1,59.78z"/>
		<path class="st184" d="M67.91,56.57c0.21,0,0.43,0.01,0.64,0.01c0,1.35,0,2.69-0.01,4.04c-0.21,0-0.42,0-0.63-0.02
			C67.91,59.26,67.91,57.92,67.91,56.57z"/>
		<path class="st185" d="M76.45,59c0.06-1.88,0.12-3.75,0.18-5.63c0.22-0.03,0.44-0.06,0.65-0.09c0.88,1.38-0.26,2.8,0.1,4.2
			c0.36,1.39-0.87,3.37,1.5,3.99c1.39-0.02,2.78-0.04,4.17-0.05c0.59,0.27,0.76,0.78,0.79,1.37c-2.41,0.08-4.81,0.16-7.22,0.24
			C76.57,61.69,76.51,60.34,76.45,59z"/>
		<path class="st186" d="M83.85,62.79c-0.03-0.59-0.2-1.1-0.79-1.37c-0.03-0.82-0.06-1.63-0.09-2.45c0.03-1.34,0.07-2.68,0.1-4.03
			c0.01-0.29,0.02-0.58,0.02-0.86c0.26,0.13,0.52,0.12,0.77-0.02c1.44,0.78,0.55,2.25,0.97,3.33c-0.11,1.83-0.22,3.67-0.33,5.5
			C84.28,62.86,84.07,62.83,83.85,62.79z"/>
		<path class="st187" d="M33.24,71.93c-0.09,0.55-0.19,1.11-0.28,1.66c-0.5-0.28-1-0.56-1.5-0.83c-0.05-0.32-0.11-0.63-0.16-0.95
			c0-0.49-0.01-0.99-0.01-1.48c0.04-0.51,0.07-1.03,0.11-1.54c0.05-0.33,0.09-0.66,0.14-0.99c0.75-0.17,0.62-0.79,0.67-1.32
			c0,0,0.39-0.05,0.39-0.05l0.38,0.06c0,0-0.08-0.09-0.08-0.09c0.11,1.55,0.22,3.11,0.33,4.66C33.23,71.34,33.24,71.63,33.24,71.93z
			"/>
		<path class="st188" d="M31.53,67.78c-0.05,0.33-0.09,0.66-0.14,0.99c-0.52-0.07-0.93-1.21-1.57-0.17
			c-1.33-0.05-2.65-0.1-3.98-0.15c-0.35-0.24-0.71-0.47-1.06-0.71C27.04,66.67,29.29,66.69,31.53,67.78z"/>
		<path class="st189" d="M32.97,66.48l-0.38-0.06c0,0-0.39,0.05-0.39,0.05c-2.93-0.04-5.85-0.07-8.78-0.11
			c-0.02-0.69,0.11-1.32,0.77-1.7c0,0,0,0.01,0,0.01c2.55,1.64,5.38,0.44,8.06,0.81C32.49,65.81,32.73,66.14,32.97,66.48z"/>
		<path class="st190" d="M31.3,71.8c0.05,0.32,0.11,0.63,0.16,0.95c-2.14,1.22-4.32,1.07-6.51,0.16c0.02-0.36,0.05-0.72,0.07-1.07
			c0.52,0.25,1.04,0.5,1.56,0.75C28.23,72.76,29.88,73,31.3,71.8z"/>
		<path class="st191" d="M25.02,71.85c-0.02,0.36-0.05,0.71-0.07,1.07c-1.16-1.69-1.09-3.41-0.17-5.17
			c0.35,0.24,0.71,0.47,1.06,0.71C24.59,69.35,25.16,70.68,25.02,71.85z"/>
		<path class="st192" d="M33,62.8c-2.72,2.15-5.9,0.53-8.81,1.08c-0.64-0.49-0.15-0.73,0.22-1C27.28,62.86,30.14,62.83,33,62.8z"/>
		<path class="st171" d="M33,62.8c-2.86,0.03-5.72,0.06-8.58,0.08c-0.06-0.24-0.17-0.44-0.34-0.62c0.16,0.01,0.31-0.03,0.45-0.11
			c2.78,0.04,5.55,0.08,8.33,0.12l0.13-0.18l0.21,0.08C32.98,62.34,32.92,62.55,33,62.8z"/>
		<path class="st193" d="M68.49,47.6c0.03-1.31,0.07-2.61,0.1-3.92c1.33,1.94,2.98,1.88,4.8,0.78c0.02,0.66,0.16,1.27,0.8,1.62
			c-0.01,0.54-0.02,1.08-0.03,1.62C72.27,47.66,70.38,47.63,68.49,47.6z"/>
		<path class="st194" d="M56.35,47.55c0.32-0.04,0.64-0.09,0.96-0.13c3.18,0.5,6.37,0.42,9.56,0.05c0.24,0.02,0.48,0.04,0.72,0.05
			c0,0,0.04,0.02,0.04,0.02C63.86,49.14,60.11,49.09,56.35,47.55z"/>
		<path class="st195" d="M74.17,47.7c0.01-0.54,0.02-1.08,0.03-1.62c0-1.08,0-2.16,0.01-3.24c0.22,0,0.44,0,0.66,0
			c0.12,1.6,0.23,3.19,0.35,4.79c-0.01,0.25,0.01,0.5,0.07,0.74C74.9,48.14,74.53,47.92,74.17,47.7z"/>
		<path class="st196" d="M45.97,66.28c-0.06,1.07,0,2.43-1.49,2.33c-3.54-0.23-7.05,0.98-10.58,0.1c-0.01-0.81-0.03-1.62-0.04-2.43
			c0,0,0.02,0,0.02,0C37.92,68.2,41.94,65.33,45.97,66.28z"/>
		<path class="st197" d="M45.23,71.05c-2.45,0.02-4.89,0.04-7.34,0.06c-0.02-0.24-0.02-0.49,0.02-0.73
			c2.42-0.01,4.84-0.02,7.26-0.03C45.2,70.58,45.22,70.82,45.23,71.05z"/>
		<path class="st198" d="M45.16,70.35c-2.42,0.01-4.84,0.02-7.26,0.03C40.32,68.97,42.74,69.02,45.16,70.35z"/>
		<path class="st199" d="M33.87,66.28c0.01,0.81,0.03,1.62,0.04,2.43c-0.1,0.82,0.15,1.73-0.67,2.34c-0.11-1.55-0.22-3.11-0.33-4.66
			C33.22,66.35,33.54,66.32,33.87,66.28z"/>
		<path class="st200" d="M78.89,61.47c-2.37-0.63-1.14-2.61-1.5-3.99c-0.37-1.4,0.78-2.82-0.1-4.2c1.89-1.13,3.78-1.32,5.64,0.07
			c-1.34,0.32-3.19-0.88-3.88,1.33C77.05,56.9,77.87,59.19,78.89,61.47z"/>
		<path class="st201" d="M79.04,54.68c0.69-2.21,2.55-1.01,3.88-1.33c0.11,0.23,0.17,0.47,0.17,0.73c-0.01,0.29-0.02,0.58-0.02,0.86
			c-0.26,0.01-0.53-0.01-0.78-0.07C81.25,54.03,80.07,55.57,79.04,54.68z"/>
		<path class="st202" d="M83.72,37.15c0,1.09,0,2.19,0,3.28c-2.07,1.45-4.57,2.54-4.67,5.63c-0.01,0.24-0.02,0.47-0.02,0.71
			c-0.79,0.03-1.58,0.06-2.37,0.1c-0.34-2.14-0.42-4.28-0.05-6.43c1.28-0.84,0.76-2.13,0.83-3.27
			C79.53,35.79,81.63,37.55,83.72,37.15z"/>
		<path class="st203" d="M79.05,46.05c0.1-3.09,2.6-4.18,4.67-5.63c-0.2,2.11,1.01,4.37-0.7,6.31
			C81.86,45.59,80.38,46.26,79.05,46.05z"/>
		<path class="st204" d="M83.72,37.15c-2.1,0.4-4.19-1.36-6.29,0.01c-0.24-0.26-0.48-0.52-0.72-0.78c-0.05-0.26-0.01-0.5,0.11-0.74
			C79.05,36.48,81.93,34.29,83.72,37.15z"/>
		<path class="st205" d="M76.82,35.64c-0.12,0.23-0.15,0.48-0.11,0.74c-0.55,1.34-0.27,2.7-0.1,4.05c-0.37,2.15-0.29,4.29,0.05,6.43
			C75.26,43.1,74.94,39.36,76.82,35.64z"/>
		<path class="st206" d="M79.05,46.05c1.33,0.21,2.81-0.47,3.97,0.69c-1.33,0.01-2.66,0.02-4,0.02
			C79.03,46.53,79.04,46.29,79.05,46.05z"/>
		<path class="st207" d="M74.2,42.84c0,1.08,0,2.16-0.01,3.24c-0.65-0.35-0.79-0.96-0.8-1.62c-0.13-1.6,0.5-3.92-2.57-2.77
			c-1.22,0.45-1.45-0.89-2.23-1.24c0-0.81-0.01-1.62-0.01-2.44c1.61,0.84,3.21-0.39,4.82-0.01C73.66,39.61,73.93,41.22,74.2,42.84z"
			/>
		<path class="st208" d="M73.38,37.99c-1.61-0.38-3.21,0.85-4.82,0.01c0-1.08,0-2.16-0.01-3.24C69.86,36.31,73.61,34.16,73.38,37.99
			z"/>
		<path class="st209" d="M58.07,46.06c2.66-0.02,5.32-0.03,7.97-0.05c0.66,0.27,0.78,0.84,0.82,1.46c-3.19,0.37-6.37,0.45-9.56-0.05
			C57.56,46.97,57.81,46.51,58.07,46.06z"/>
		<path class="st210" d="M65.57,33.95c-2.51,1.05-4.99,0.35-7.48-0.09c0.08-0.17,0.09-0.34,0.02-0.51
			C60.61,33.32,63.19,32.37,65.57,33.95z"/>
		<path class="st211" d="M66.86,47.47c-0.03-0.62-0.15-1.19-0.82-1.46c0.06-1.08,0.12-2.17,0.19-3.25c1.5-2.67,0.35-5.57,0.69-8.34
			c-0.27-0.04-0.41-0.21-0.4-0.48c0.35-0.2,0.71-0.41,1.06-0.61c0,4.73,0.01,9.46,0.01,14.19C67.34,47.51,67.1,47.49,66.86,47.47z"
			/>
		<path class="st212" d="M68.58,40.44c0.78,0.36,1.01,1.7,2.23,1.24c3.08-1.15,2.44,1.17,2.57,2.77c-1.82,1.1-3.47,1.16-4.8-0.78
			C68.59,42.6,68.59,41.52,68.58,40.44z"/>
		<path class="st213" d="M33.87,58.2c0.46-0.01,0.93-0.02,1.39-0.03c-0.24,1.57,1.41,4.12-2.07,4.01c0,0-0.21-0.08-0.21-0.08
			s-0.13,0.18-0.13,0.18c0.38-1.34,1.5-2.61,0.35-4.08C33.43,58.2,33.65,58.2,33.87,58.2z"/>
		<path class="st60" d="M32.25,65.47c-2.68-0.37-5.51,0.83-8.06-0.81C26.87,65.03,29.7,63.82,32.25,65.47z"/>
		<path class="st214" d="M33.21,58.2c1.14,1.47,0.03,2.74-0.35,4.08c-2.78-0.04-5.55-0.08-8.33-0.12c-0.58-2.91-0.5-5.82-0.01-8.74
			c2.66-0.07,5.33-0.15,7.99-0.22C33.77,54.72,32.67,56.57,33.21,58.2z M28.22,54.31c-1.06,0.44-3.24-1.55-3.11,1.45
			c0.01,0.81,0.01,1.62,0.02,2.43c-0.04,0.88-0.58,1.88,0.58,2.47c1.71,1.55,3.74,0.39,5.6,0.67c1.54-2.11,1.55-4.25,0.14-6.43
			C30.42,54.49,29.43,53.81,28.22,54.31z"/>
		<path class="st215" d="M79.04,54.68c1.03,0.88,2.21-0.65,3.25,0.19c0.13,1.38-0.48,2.89,0.68,4.1c0.03,0.82,0.06,1.63,0.09,2.45
			c-1.39,0.02-2.78,0.04-4.17,0.05C77.87,59.19,77.05,56.9,79.04,54.68z"/>
		<path class="st216" d="M82.97,58.97c-1.16-1.21-0.55-2.72-0.68-4.1c0.26,0.06,0.52,0.09,0.78,0.07
			C83.04,56.29,83,57.63,82.97,58.97z"/>
		<path class="st217" d="M31.3,71.8c-1.41,1.2-3.07,0.95-4.71,0.79c0.1-0.99,0.67-1.45,1.64-1.47c1.02-0.27,2.04-0.54,3.06-0.81
			C31.29,70.82,31.29,71.31,31.3,71.8z"/>
		<path class="st218" d="M31.29,70.32c-1.02,0.27-2.04,0.54-3.06,0.81c0.53-0.84,1.07-1.68,1.6-2.52c0.64-1.03,1.05,0.1,1.57,0.17
			C31.36,69.29,31.32,69.81,31.29,70.32z"/>
		<path class="st219" d="M29.83,68.61c-0.53,0.84-1.07,1.68-1.6,2.52c-0.97,0.01-1.54,0.47-1.64,1.47c-0.52-0.25-1.04-0.5-1.56-0.75
			c0.14-1.16-0.43-2.49,0.82-3.39C27.17,68.51,28.5,68.56,29.83,68.61z"/>
		<path class="st220" d="M76.61,40.43c-0.16-1.36-0.45-2.71,0.1-4.05c0.24,0.26,0.48,0.52,0.72,0.78
			C77.37,38.3,77.89,39.6,76.61,40.43z"/>
		<path class="st221" d="M66.92,34.42c-0.34,2.77,0.81,5.66-0.69,8.34C66.45,39.98,65.24,37.08,66.92,34.42z"/>
		<path class="st222" d="M25.71,60.67c-1.16-0.6-0.62-1.59-0.58-2.47c1.91,0.18,3.09-0.83,3.88-2.44c0,0,0,0,0,0
			c0.62,0.03,1.24,0.07,1.85,0.1c0,0.49,0,0.98,0,1.48c-0.34,0.02-0.68,0.04-1.03,0.05c-1.31,0.7-2.36,1.59-2.43,3.23
			C26.85,60.64,26.28,60.65,25.71,60.67z"/>
		<path class="st223" d="M25.71,60.67c0.57-0.02,1.14-0.03,1.71-0.05c1.91-0.24,2.14-1.76,2.43-3.23c0.34-0.02,0.68-0.04,1.03-0.05
			c1.23,1.21,0.58,2.63,0.44,3.99C29.45,61.05,27.42,62.22,25.71,60.67z"/>
		<path class="st224" d="M29.02,55.76c-0.8,1.61-1.97,2.61-3.88,2.44c-0.01-0.81-0.01-1.62-0.02-2.43
			C26.41,55.76,27.71,55.76,29.02,55.76z"/>
		<path class="st171" d="M31.31,61.33c0.14-1.36,0.79-2.78-0.44-3.99c0-0.49,0-0.98,0-1.48c0.47-0.15,0.71-0.45,0.59-0.96
			C32.87,57.08,32.86,59.22,31.31,61.33z"/>
		<path class="st225" d="M29.02,55.76c-1.3,0-2.6,0-3.9,0.01c-0.13-3,2.05-1.02,3.11-1.45C28.49,54.79,28.75,55.28,29.02,55.76
			L29.02,55.76z"/>
		<path class="st224" d="M29.02,55.76c-0.27-0.48-0.53-0.97-0.8-1.45c1.21-0.5,2.2,0.19,3.24,0.59c0.12,0.52-0.12,0.81-0.59,0.96
			C30.25,55.83,29.64,55.79,29.02,55.76z"/>
		<path class="st226" d="M29.85,57.39c-0.29,1.47-0.51,2.98-2.43,3.23C27.48,58.98,28.54,58.09,29.85,57.39z"/>
	</g>
</g>
<text transform="matrix(1.4727 0 0 1 7.9341 94.5669)" class="st227 st228 st229">Build by Yingziwo</text>
</svg>
